<?xml version="1.0" encoding="utf-8"?>
<!-- Generator: Adobe Illustrator 26.3.1, SVG Export Plug-In . SVG Version: 6.00 Build 0)  -->
<svg version="1.1" xmlns="http://www.w3.org/2000/svg" xmlns:xlink="http://www.w3.org/1999/xlink" x="0px" y="0px"
	 viewBox="0 0 94.28 94.28" style="enable-background:new 0 0 94.28 94.28;" xml:space="preserve">
<style type="text/css">
	.st0{fill:#FFFFFF;}
	.st1{fill:#9CB2DC;}
	.st2{clip-path:url(#SVGID_00000064319204899722467650000000287190512921503873_);fill:#9CB2DC;}
	.st3{clip-path:url(#SVGID_00000064319204899722467650000000287190512921503873_);fill:#9DB3DD;}
	.st4{clip-path:url(#SVGID_00000064319204899722467650000000287190512921503873_);fill:#9DB4DD;}
	.st5{clip-path:url(#SVGID_00000064319204899722467650000000287190512921503873_);fill:#9DB5DE;}
	.st6{clip-path:url(#SVGID_00000064319204899722467650000000287190512921503873_);fill:#9EB6DF;}
	.st7{clip-path:url(#SVGID_00000064319204899722467650000000287190512921503873_);fill:#9EB7DF;}
	.st8{clip-path:url(#SVGID_00000064319204899722467650000000287190512921503873_);fill:#9EB8E0;}
	.st9{clip-path:url(#SVGID_00000064319204899722467650000000287190512921503873_);fill:#9FB9E1;}
	.st10{clip-path:url(#SVGID_00000064319204899722467650000000287190512921503873_);fill:#9FBAE1;}
	.st11{clip-path:url(#SVGID_00000064319204899722467650000000287190512921503873_);fill:#9FBBE2;}
	.st12{clip-path:url(#SVGID_00000064319204899722467650000000287190512921503873_);fill:#9FBCE2;}
	.st13{clip-path:url(#SVGID_00000064319204899722467650000000287190512921503873_);fill:#A0BDE3;}
	.st14{clip-path:url(#SVGID_00000064319204899722467650000000287190512921503873_);fill:#A0BEE4;}
	.st15{clip-path:url(#SVGID_00000064319204899722467650000000287190512921503873_);fill:#A0BFE4;}
	.st16{clip-path:url(#SVGID_00000064319204899722467650000000287190512921503873_);fill:#A1C0E5;}
	.st17{clip-path:url(#SVGID_00000064319204899722467650000000287190512921503873_);fill:#A1C1E6;}
	.st18{clip-path:url(#SVGID_00000064319204899722467650000000287190512921503873_);fill:#A1C2E6;}
	.st19{clip-path:url(#SVGID_00000064319204899722467650000000287190512921503873_);fill:#A2C3E7;}
	.st20{clip-path:url(#SVGID_00000064319204899722467650000000287190512921503873_);fill:#A2C4E8;}
	.st21{clip-path:url(#SVGID_00000064319204899722467650000000287190512921503873_);fill:#A2C5E8;}
	.st22{clip-path:url(#SVGID_00000064319204899722467650000000287190512921503873_);fill:#A3C6E9;}
	.st23{clip-path:url(#SVGID_00000064319204899722467650000000287190512921503873_);fill:#A3C7EA;}
	.st24{clip-path:url(#SVGID_00000064319204899722467650000000287190512921503873_);fill:#A3C8EA;}
	.st25{clip-path:url(#SVGID_00000064319204899722467650000000287190512921503873_);fill:#A4C9EB;}
	.st26{clip-path:url(#SVGID_00000064319204899722467650000000287190512921503873_);fill:#A4CAEB;}
	.st27{clip-path:url(#SVGID_00000064319204899722467650000000287190512921503873_);fill:#A4CBEC;}
	.st28{clip-path:url(#SVGID_00000064319204899722467650000000287190512921503873_);fill:#A5CCEC;}
	.st29{clip-path:url(#SVGID_00000064319204899722467650000000287190512921503873_);fill:#A5CDED;}
	.st30{clip-path:url(#SVGID_00000064319204899722467650000000287190512921503873_);fill:#A5CEEE;}
	.st31{clip-path:url(#SVGID_00000064319204899722467650000000287190512921503873_);fill:#A6CFEE;}
	.st32{clip-path:url(#SVGID_00000064319204899722467650000000287190512921503873_);fill:#A6D0EF;}
	.st33{clip-path:url(#SVGID_00000064319204899722467650000000287190512921503873_);fill:#A7D1F0;}
	.st34{clip-path:url(#SVGID_00000064319204899722467650000000287190512921503873_);fill:#A7D2F0;}
	.st35{clip-path:url(#SVGID_00000064319204899722467650000000287190512921503873_);fill:#A7D3F1;}
	.st36{clip-path:url(#SVGID_00000064319204899722467650000000287190512921503873_);fill:#A8D4F2;}
	.st37{clip-path:url(#SVGID_00000064319204899722467650000000287190512921503873_);fill:#A8D5F2;}
	.st38{clip-path:url(#SVGID_00000064319204899722467650000000287190512921503873_);fill:#A8D6F3;}
	.st39{clip-path:url(#SVGID_00000064319204899722467650000000287190512921503873_);fill:#A9D7F3;}
	.st40{clip-path:url(#SVGID_00000064319204899722467650000000287190512921503873_);fill:#A9D7F4;}
	.st41{clip-path:url(#SVGID_00000064319204899722467650000000287190512921503873_);fill:#A9D8F4;}
	.st42{clip-path:url(#SVGID_00000064319204899722467650000000287190512921503873_);fill:#A9D9F5;}
	.st43{clip-path:url(#SVGID_00000064319204899722467650000000287190512921503873_);fill:#AADAF5;}
	.st44{clip-path:url(#SVGID_00000064319204899722467650000000287190512921503873_);fill:#AADBF6;}
	.st45{clip-path:url(#SVGID_00000064319204899722467650000000287190512921503873_);fill:#AADCF6;}
	.st46{clip-path:url(#SVGID_00000064319204899722467650000000287190512921503873_);fill:#AADDF7;}
	.st47{clip-path:url(#SVGID_00000064319204899722467650000000287190512921503873_);fill:#ABDEF8;}
	.st48{clip-path:url(#SVGID_00000064319204899722467650000000287190512921503873_);fill:#ABDFF9;}
	.st49{clip-path:url(#SVGID_00000064319204899722467650000000287190512921503873_);fill:#ABE1FA;}
	.st50{fill:#0076C0;}
</style>
<g id="Layer_1">
</g>
<g id="Слой_1">
	<g>
		<g>
			<circle class="st0" cx="47.14" cy="47.14" r="46.89"/>
			<path class="st1" d="M47.14,94.28C21.15,94.28,0,73.13,0,47.14C0,21.15,21.15,0,47.14,0c25.99,0,47.14,21.15,47.14,47.14
				C94.28,73.13,73.13,94.28,47.14,94.28z M47.14,0.5C21.42,0.5,0.5,21.42,0.5,47.14c0,25.72,20.92,46.64,46.64,46.64
				c25.72,0,46.64-20.92,46.64-46.64C93.78,21.42,72.86,0.5,47.14,0.5z"/>
		</g>
		<g>
			<g>
				<defs>
					<circle id="SVGID_1_" cx="47.14" cy="47.14" r="32.37"/>
				</defs>
				<clipPath id="SVGID_00000127045033501130115830000003562945561963626407_">
					<use xlink:href="#SVGID_1_"  style="overflow:visible;"/>
				</clipPath>
				
					<rect x="14.77" y="14.77" style="clip-path:url(#SVGID_00000127045033501130115830000003562945561963626407_);fill:#9CB2DC;" width="64.74" height="64.74"/>
				
					<circle style="clip-path:url(#SVGID_00000127045033501130115830000003562945561963626407_);fill:#9CB2DC;" cx="47.14" cy="47.14" r="32.37"/>
				
					<circle style="clip-path:url(#SVGID_00000127045033501130115830000003562945561963626407_);fill:#9DB3DD;" cx="47.14" cy="47.14" r="31.82"/>
				
					<circle style="clip-path:url(#SVGID_00000127045033501130115830000003562945561963626407_);fill:#9DB4DD;" cx="47.14" cy="47.14" r="31.27"/>
				
					<circle style="clip-path:url(#SVGID_00000127045033501130115830000003562945561963626407_);fill:#9DB5DE;" cx="47.14" cy="47.14" r="30.72"/>
				
					<circle style="clip-path:url(#SVGID_00000127045033501130115830000003562945561963626407_);fill:#9DB5DE;" cx="47.14" cy="47.14" r="30.17"/>
				
					<circle style="clip-path:url(#SVGID_00000127045033501130115830000003562945561963626407_);fill:#9EB6DF;" cx="47.14" cy="47.14" r="29.62"/>
				
					<circle style="clip-path:url(#SVGID_00000127045033501130115830000003562945561963626407_);fill:#9EB7DF;" cx="47.14" cy="47.14" r="29.08"/>
				
					<circle style="clip-path:url(#SVGID_00000127045033501130115830000003562945561963626407_);fill:#9EB8E0;" cx="47.14" cy="47.14" r="28.53"/>
				
					<circle style="clip-path:url(#SVGID_00000127045033501130115830000003562945561963626407_);fill:#9EB8E0;" cx="47.14" cy="47.14" r="27.98"/>
				
					<circle style="clip-path:url(#SVGID_00000127045033501130115830000003562945561963626407_);fill:#9FB9E1;" cx="47.14" cy="47.14" r="27.43"/>
				
					<circle style="clip-path:url(#SVGID_00000127045033501130115830000003562945561963626407_);fill:#9FBAE1;" cx="47.14" cy="47.14" r="26.88"/>
				
					<circle style="clip-path:url(#SVGID_00000127045033501130115830000003562945561963626407_);fill:#9FBBE2;" cx="47.14" cy="47.14" r="26.33"/>
				
					<circle style="clip-path:url(#SVGID_00000127045033501130115830000003562945561963626407_);fill:#9FBBE2;" cx="47.14" cy="47.14" r="25.78"/>
				
					<circle style="clip-path:url(#SVGID_00000127045033501130115830000003562945561963626407_);fill:#9FBCE2;" cx="47.14" cy="47.14" r="25.24"/>
				
					<circle style="clip-path:url(#SVGID_00000127045033501130115830000003562945561963626407_);fill:#A0BDE3;" cx="47.14" cy="47.14" r="24.69"/>
				
					<circle style="clip-path:url(#SVGID_00000127045033501130115830000003562945561963626407_);fill:#A0BDE3;" cx="47.14" cy="47.14" r="24.14"/>
				
					<circle style="clip-path:url(#SVGID_00000127045033501130115830000003562945561963626407_);fill:#A0BEE4;" cx="47.14" cy="47.14" r="23.59"/>
				
					<circle style="clip-path:url(#SVGID_00000127045033501130115830000003562945561963626407_);fill:#A0BFE4;" cx="47.14" cy="47.14" r="23.04"/>
				
					<circle style="clip-path:url(#SVGID_00000127045033501130115830000003562945561963626407_);fill:#A1C0E5;" cx="47.14" cy="47.14" r="22.49"/>
				
					<circle style="clip-path:url(#SVGID_00000127045033501130115830000003562945561963626407_);fill:#A1C0E5;" cx="47.14" cy="47.14" r="21.94"/>
				
					<circle style="clip-path:url(#SVGID_00000127045033501130115830000003562945561963626407_);fill:#A1C1E6;" cx="47.14" cy="47.14" r="21.4"/>
				
					<circle style="clip-path:url(#SVGID_00000127045033501130115830000003562945561963626407_);fill:#A1C2E6;" cx="47.14" cy="47.14" r="20.85"/>
				
					<circle style="clip-path:url(#SVGID_00000127045033501130115830000003562945561963626407_);fill:#A2C3E7;" cx="47.14" cy="47.14" r="20.3"/>
				
					<circle style="clip-path:url(#SVGID_00000127045033501130115830000003562945561963626407_);fill:#A2C3E7;" cx="47.14" cy="47.14" r="19.75"/>
				
					<circle style="clip-path:url(#SVGID_00000127045033501130115830000003562945561963626407_);fill:#A2C4E8;" cx="47.14" cy="47.14" r="19.2"/>
				
					<circle style="clip-path:url(#SVGID_00000127045033501130115830000003562945561963626407_);fill:#A2C5E8;" cx="47.14" cy="47.14" r="18.65"/>
				
					<circle style="clip-path:url(#SVGID_00000127045033501130115830000003562945561963626407_);fill:#A3C6E9;" cx="47.14" cy="47.14" r="18.1"/>
				
					<circle style="clip-path:url(#SVGID_00000127045033501130115830000003562945561963626407_);fill:#A3C6E9;" cx="47.14" cy="47.14" r="17.56"/>
				
					<circle style="clip-path:url(#SVGID_00000127045033501130115830000003562945561963626407_);fill:#A3C7EA;" cx="47.14" cy="47.14" r="17.01"/>
				
					<circle style="clip-path:url(#SVGID_00000127045033501130115830000003562945561963626407_);fill:#A3C8EA;" cx="47.14" cy="47.14" r="16.46"/>
				
					<circle style="clip-path:url(#SVGID_00000127045033501130115830000003562945561963626407_);fill:#A4C9EB;" cx="47.14" cy="47.14" r="15.91"/>
				
					<circle style="clip-path:url(#SVGID_00000127045033501130115830000003562945561963626407_);fill:#A4C9EB;" cx="47.14" cy="47.14" r="15.36"/>
				
					<circle style="clip-path:url(#SVGID_00000127045033501130115830000003562945561963626407_);fill:#A4CAEB;" cx="47.14" cy="47.14" r="14.81"/>
				
					<circle style="clip-path:url(#SVGID_00000127045033501130115830000003562945561963626407_);fill:#A4CBEC;" cx="47.14" cy="47.14" r="14.26"/>
				
					<circle style="clip-path:url(#SVGID_00000127045033501130115830000003562945561963626407_);fill:#A5CCEC;" cx="47.14" cy="47.14" r="13.72"/>
				
					<circle style="clip-path:url(#SVGID_00000127045033501130115830000003562945561963626407_);fill:#A5CDED;" cx="47.14" cy="47.14" r="13.17"/>
				
					<circle style="clip-path:url(#SVGID_00000127045033501130115830000003562945561963626407_);fill:#A5CDED;" cx="47.14" cy="47.14" r="12.62"/>
				
					<circle style="clip-path:url(#SVGID_00000127045033501130115830000003562945561963626407_);fill:#A5CEEE;" cx="47.14" cy="47.14" r="12.07"/>
				
					<circle style="clip-path:url(#SVGID_00000127045033501130115830000003562945561963626407_);fill:#A6CFEE;" cx="47.14" cy="47.14" r="11.52"/>
				
					<circle style="clip-path:url(#SVGID_00000127045033501130115830000003562945561963626407_);fill:#A6D0EF;" cx="47.14" cy="47.14" r="10.97"/>
				
					<circle style="clip-path:url(#SVGID_00000127045033501130115830000003562945561963626407_);fill:#A6D0EF;" cx="47.14" cy="47.14" r="10.42"/>
				
					<circle style="clip-path:url(#SVGID_00000127045033501130115830000003562945561963626407_);fill:#A7D1F0;" cx="47.14" cy="47.14" r="9.87"/>
				
					<circle style="clip-path:url(#SVGID_00000127045033501130115830000003562945561963626407_);fill:#A7D2F0;" cx="47.14" cy="47.14" r="9.33"/>
				
					<circle style="clip-path:url(#SVGID_00000127045033501130115830000003562945561963626407_);fill:#A7D3F1;" cx="47.14" cy="47.14" r="8.78"/>
				
					<circle style="clip-path:url(#SVGID_00000127045033501130115830000003562945561963626407_);fill:#A7D3F1;" cx="47.14" cy="47.14" r="8.23"/>
				
					<circle style="clip-path:url(#SVGID_00000127045033501130115830000003562945561963626407_);fill:#A8D4F2;" cx="47.14" cy="47.14" r="7.68"/>
				
					<circle style="clip-path:url(#SVGID_00000127045033501130115830000003562945561963626407_);fill:#A8D5F2;" cx="47.14" cy="47.14" r="7.13"/>
				
					<circle style="clip-path:url(#SVGID_00000127045033501130115830000003562945561963626407_);fill:#A8D6F3;" cx="47.14" cy="47.14" r="6.58"/>
				
					<circle style="clip-path:url(#SVGID_00000127045033501130115830000003562945561963626407_);fill:#A9D7F3;" cx="47.14" cy="47.14" r="6.03"/>
				
					<circle style="clip-path:url(#SVGID_00000127045033501130115830000003562945561963626407_);fill:#A9D7F4;" cx="47.14" cy="47.14" r="5.49"/>
				
					<circle style="clip-path:url(#SVGID_00000127045033501130115830000003562945561963626407_);fill:#A9D8F4;" cx="47.14" cy="47.14" r="4.94"/>
				
					<circle style="clip-path:url(#SVGID_00000127045033501130115830000003562945561963626407_);fill:#A9D9F5;" cx="47.14" cy="47.14" r="4.39"/>
				
					<circle style="clip-path:url(#SVGID_00000127045033501130115830000003562945561963626407_);fill:#AADAF5;" cx="47.14" cy="47.14" r="3.84"/>
				
					<circle style="clip-path:url(#SVGID_00000127045033501130115830000003562945561963626407_);fill:#AADBF6;" cx="47.14" cy="47.14" r="3.29"/>
				
					<circle style="clip-path:url(#SVGID_00000127045033501130115830000003562945561963626407_);fill:#AADCF6;" cx="47.14" cy="47.14" r="2.74"/>
				
					<circle style="clip-path:url(#SVGID_00000127045033501130115830000003562945561963626407_);fill:#AADDF7;" cx="47.14" cy="47.14" r="2.19"/>
				
					<circle style="clip-path:url(#SVGID_00000127045033501130115830000003562945561963626407_);fill:#ABDEF8;" cx="47.14" cy="47.14" r="1.65"/>
				
					<circle style="clip-path:url(#SVGID_00000127045033501130115830000003562945561963626407_);fill:#ABDFF9;" cx="47.14" cy="47.14" r="1.1"/>
				
					<circle style="clip-path:url(#SVGID_00000127045033501130115830000003562945561963626407_);fill:#ABE1FA;" cx="47.14" cy="47.14" r="0.55"/>
			</g>
		</g>
		<g>
			<path class="st50" d="M9.44,63.77l1.14,0.44c0.1,0.04,0.24,0.08,0.42,0.14c0.18,0.06,0.37,0.11,0.57,0.16
				c0.2,0.05,0.41,0.1,0.62,0.15s0.4,0.09,0.58,0.13c0.31,0.06,0.59,0.08,0.82,0.07c0.23-0.01,0.44-0.07,0.63-0.17
				c0.25-0.13,0.41-0.32,0.47-0.58c0.06-0.26,0.01-0.53-0.14-0.83c-0.12-0.23-0.29-0.45-0.52-0.67c-0.23-0.22-0.47-0.39-0.73-0.52
				l1.04-0.66c0.28,0.2,0.55,0.44,0.79,0.73c0.25,0.29,0.45,0.6,0.62,0.93c0.15,0.28,0.24,0.56,0.29,0.84
				c0.05,0.27,0.05,0.54-0.01,0.79s-0.17,0.48-0.33,0.69c-0.17,0.21-0.4,0.39-0.69,0.54c-0.15,0.08-0.32,0.14-0.48,0.19
				s-0.35,0.07-0.53,0.09c-0.19,0.01-0.4,0.01-0.62-0.01c-0.23-0.02-0.48-0.06-0.75-0.1c-0.22-0.04-0.43-0.08-0.61-0.13
				c-0.18-0.04-0.36-0.09-0.54-0.13s-0.37-0.11-0.56-0.18c-0.2-0.07-0.43-0.16-0.69-0.25l1.3,2.54l-1,0.52l-2.14-4.16L9.44,63.77z"
				/>
			<path class="st50" d="M18.44,69.93c-0.04-0.22-0.1-0.43-0.18-0.63s-0.17-0.37-0.28-0.52c-0.19-0.26-0.39-0.44-0.62-0.55
				c-0.23-0.1-0.46-0.15-0.7-0.14c-0.24,0.01-0.48,0.07-0.72,0.17c-0.24,0.11-0.47,0.24-0.69,0.39c0.13-0.02,0.26-0.01,0.39,0.02
				c0.13,0.03,0.26,0.07,0.38,0.14c0.12,0.06,0.23,0.14,0.33,0.23s0.19,0.19,0.26,0.29c0.2,0.28,0.32,0.57,0.37,0.85
				s0.03,0.56-0.05,0.83c-0.08,0.26-0.21,0.51-0.4,0.75s-0.41,0.45-0.67,0.63c-0.59,0.42-1.17,0.58-1.75,0.48
				c-0.57-0.1-1.08-0.46-1.5-1.06c-0.28-0.39-0.43-0.77-0.45-1.13c-0.02-0.36,0.04-0.71,0.18-1.04c0.14-0.33,0.36-0.64,0.64-0.93
				s0.59-0.55,0.92-0.79c0.39-0.28,0.81-0.52,1.25-0.71c0.44-0.19,0.88-0.31,1.31-0.34c0.44-0.03,0.86,0.04,1.26,0.21
				c0.4,0.17,0.77,0.48,1.09,0.94c0.15,0.21,0.28,0.43,0.39,0.66s0.2,0.46,0.27,0.72L18.44,69.93z M14.01,69.65
				c-0.31,0.22-0.52,0.48-0.62,0.78c-0.1,0.3-0.06,0.56,0.11,0.79c0.16,0.23,0.39,0.35,0.67,0.35c0.28,0.01,0.58-0.1,0.88-0.31
				c0.32-0.23,0.52-0.48,0.61-0.77c0.09-0.28,0.05-0.55-0.12-0.79c-0.16-0.23-0.39-0.35-0.67-0.36
				C14.59,69.34,14.31,69.44,14.01,69.65z"/>
			<path class="st50" d="M15.79,73.86l1.21,0.1c0.11,0.01,0.25,0.01,0.44,0.01c0.19,0,0.38,0,0.59-0.01
				c0.21-0.01,0.42-0.02,0.64-0.03c0.21-0.01,0.41-0.03,0.59-0.04c0.32-0.04,0.58-0.09,0.8-0.17c0.21-0.08,0.4-0.19,0.55-0.34
				c0.21-0.2,0.3-0.43,0.29-0.69c-0.02-0.26-0.14-0.51-0.37-0.75c-0.18-0.18-0.4-0.35-0.69-0.49c-0.28-0.14-0.57-0.24-0.84-0.29
				l0.81-0.93c0.33,0.11,0.65,0.27,0.96,0.47c0.32,0.2,0.6,0.44,0.86,0.71c0.22,0.23,0.4,0.47,0.52,0.72
				c0.12,0.25,0.2,0.5,0.22,0.75c0.02,0.25-0.02,0.51-0.12,0.75c-0.1,0.25-0.27,0.48-0.5,0.71c-0.12,0.12-0.26,0.23-0.41,0.32
				c-0.15,0.09-0.31,0.17-0.48,0.24c-0.18,0.07-0.38,0.12-0.6,0.17c-0.23,0.04-0.47,0.08-0.75,0.11c-0.23,0.02-0.43,0.04-0.62,0.05
				c-0.19,0.01-0.37,0.02-0.56,0.03c-0.18,0.01-0.38,0-0.59-0.01c-0.21-0.01-0.45-0.03-0.73-0.05l1.97,2.06l-0.82,0.78l-3.24-3.38
				L15.79,73.86z"/>
			<path class="st50" d="M22.87,80.4c0.19-0.11,0.37-0.24,0.55-0.4c0.18-0.16,0.36-0.35,0.54-0.59s0.4-0.53,0.63-0.88l0.79-1.17
				L28,79.11l-2.54,3.79l0.61,0.41l-1.25,1.86l-0.52-0.35l0.95-1.41l-3.28-2.19l-0.95,1.41l-0.52-0.35l1.25-1.86l0.47,0.32
				C22.46,80.62,22.68,80.52,22.87,80.4z M27.18,79.21l-1.59-1.06l-0.58,0.87c-0.33,0.5-0.67,0.93-1.01,1.29s-0.74,0.63-1.2,0.81
				l2.14,1.43L27.18,79.21z"/>
			<path class="st50" d="M32.26,84.07c-0.17,0.36-0.38,0.67-0.63,0.92c-0.25,0.25-0.52,0.44-0.81,0.56s-0.6,0.18-0.92,0.17
				c-0.32-0.01-0.65-0.09-0.97-0.25c-0.32-0.15-0.58-0.35-0.79-0.58c-0.2-0.24-0.35-0.51-0.44-0.81c-0.09-0.3-0.11-0.62-0.07-0.96
				c0.04-0.34,0.14-0.69,0.31-1.05c0.18-0.37,0.39-0.69,0.63-0.94c0.24-0.25,0.51-0.44,0.8-0.56s0.6-0.17,0.92-0.16
				c0.32,0.02,0.65,0.1,0.99,0.26c0.36,0.17,0.64,0.38,0.84,0.63c0.21,0.25,0.35,0.52,0.42,0.82c0.08,0.3,0.09,0.61,0.04,0.95
				S32.42,83.74,32.26,84.07z M28.54,82.34c-0.13,0.28-0.21,0.55-0.25,0.82c-0.04,0.27-0.03,0.52,0.03,0.76
				c0.06,0.24,0.16,0.45,0.3,0.63c0.14,0.19,0.33,0.33,0.55,0.44c0.23,0.11,0.46,0.16,0.7,0.16c0.24,0,0.47-0.06,0.68-0.17
				s0.42-0.26,0.61-0.46c0.19-0.2,0.35-0.45,0.49-0.73c0.14-0.29,0.23-0.57,0.27-0.84s0.03-0.52-0.02-0.74
				c-0.05-0.23-0.15-0.43-0.3-0.61c-0.15-0.18-0.34-0.33-0.57-0.44c-0.49-0.23-0.95-0.24-1.4-0.03S28.83,81.75,28.54,82.34z"/>
			<path class="st50" d="M36.19,86.52c-0.08,0.25-0.21,0.46-0.38,0.62c-0.17,0.16-0.36,0.27-0.59,0.34
				c-0.22,0.07-0.46,0.1-0.71,0.09s-0.5-0.06-0.74-0.14c-0.18-0.06-0.33-0.11-0.47-0.17c-0.14-0.06-0.26-0.12-0.36-0.18
				c-0.11-0.06-0.2-0.13-0.29-0.19c-0.09-0.07-0.18-0.14-0.26-0.2l0.25-0.58c0.13,0.14,0.3,0.29,0.49,0.43
				c0.19,0.14,0.45,0.27,0.78,0.38c0.39,0.13,0.74,0.14,1.04,0.03c0.3-0.11,0.49-0.3,0.58-0.56c0.11-0.35,0.08-0.64-0.1-0.85
				c-0.18-0.22-0.48-0.4-0.9-0.54l-0.43-0.14l0.17-0.51l0.42,0.14c0.37,0.12,0.69,0.14,0.96,0.07s0.46-0.26,0.55-0.56
				c0.04-0.14,0.05-0.27,0.02-0.38c-0.03-0.11-0.09-0.21-0.18-0.3c-0.08-0.09-0.19-0.16-0.31-0.22s-0.24-0.11-0.36-0.15
				c-0.13-0.04-0.27-0.07-0.41-0.08s-0.28-0.02-0.41-0.02c-0.13,0-0.26,0.01-0.37,0.02c-0.12,0.01-0.21,0.02-0.29,0.04l0.14-0.59
				c0.17-0.01,0.38-0.02,0.64-0.02c0.26-0.01,0.57,0.05,0.92,0.16c0.23,0.08,0.45,0.17,0.63,0.27c0.19,0.11,0.34,0.23,0.45,0.37
				c0.11,0.14,0.19,0.3,0.22,0.47c0.04,0.17,0.02,0.36-0.05,0.57c-0.09,0.29-0.27,0.5-0.52,0.66s-0.55,0.22-0.88,0.19l0,0.01
				c0.33,0.16,0.57,0.37,0.72,0.63C36.29,85.85,36.31,86.16,36.19,86.52z"/>
			<path class="st50" d="M42.43,84.11l-0.91,5.02l-0.62-0.11l0.75-4.15l-0.03-0.01l-3.36,3.68l-0.74-0.13l0.91-5.02l0.62,0.11
				l-0.75,4.15l0.03,0.01l3.36-3.68L42.43,84.11z"/>
			<path class="st50" d="M50.17,84.29l-1.76,5.46c-0.06,0.19-0.13,0.4-0.2,0.62c-0.07,0.22-0.16,0.42-0.28,0.6s-0.25,0.33-0.42,0.46
				c-0.17,0.12-0.37,0.18-0.62,0.19c-0.1,0-0.2,0-0.31-0.01c-0.11-0.01-0.21-0.03-0.3-0.06l0.05-0.56c0.06,0.03,0.12,0.05,0.19,0.07
				c0.06,0.01,0.14,0.02,0.24,0.01c0.18,0,0.33-0.06,0.45-0.16c0.12-0.1,0.22-0.22,0.3-0.37c0.08-0.15,0.14-0.3,0.19-0.46
				c0.05-0.16,0.1-0.32,0.14-0.46l-1.93-5.23l0.7-0.02l1.54,4.32l1.38-4.38L50.17,84.29z"/>
			<path class="st50" d="M60.45,84.77c0.1,0.37,0.15,0.72,0.15,1.05c0,0.33-0.04,0.64-0.13,0.91s-0.23,0.5-0.42,0.69
				c-0.19,0.19-0.44,0.32-0.73,0.4c-0.27,0.07-0.52,0.08-0.75,0.02c-0.23-0.06-0.43-0.16-0.6-0.32l-0.01,0l0.65,2.53L58,90.21
				l-0.65-2.53l-0.01,0c-0.07,0.22-0.2,0.41-0.37,0.57c-0.17,0.16-0.39,0.28-0.66,0.35c-0.3,0.08-0.58,0.08-0.84,0
				c-0.26-0.07-0.5-0.21-0.71-0.4c-0.21-0.19-0.4-0.44-0.56-0.73c-0.16-0.29-0.29-0.62-0.38-0.99c-0.1-0.37-0.15-0.73-0.16-1.06
				c-0.01-0.33,0.03-0.64,0.11-0.9c0.09-0.27,0.23-0.49,0.42-0.68s0.45-0.32,0.77-0.41c0.15-0.04,0.29-0.05,0.42-0.05
				c0.13,0.01,0.26,0.03,0.37,0.06c0.12,0.04,0.22,0.08,0.31,0.14c0.09,0.05,0.18,0.11,0.25,0.18l0.01,0l-0.74-2.85l0.61-0.16
				l0.74,2.85l0.01,0c0.03-0.09,0.07-0.18,0.12-0.28c0.06-0.09,0.13-0.18,0.21-0.27s0.18-0.17,0.29-0.24
				c0.11-0.07,0.24-0.12,0.39-0.16c0.32-0.08,0.61-0.09,0.87-0.02c0.26,0.07,0.5,0.2,0.7,0.39c0.2,0.19,0.38,0.44,0.54,0.73
				C60.23,84.06,60.36,84.4,60.45,84.77z M56.52,84.51c-0.16-0.22-0.35-0.39-0.57-0.51c-0.22-0.12-0.46-0.14-0.73-0.07
				c-0.25,0.06-0.43,0.18-0.57,0.35s-0.22,0.36-0.27,0.59s-0.06,0.46-0.04,0.72c0.02,0.26,0.06,0.5,0.12,0.74s0.15,0.48,0.25,0.71
				s0.23,0.44,0.38,0.61c0.15,0.17,0.32,0.3,0.52,0.38c0.2,0.08,0.42,0.09,0.67,0.03c0.27-0.07,0.47-0.21,0.6-0.42
				c0.13-0.21,0.21-0.45,0.25-0.71L56.52,84.51z M59.81,84.94c-0.06-0.24-0.15-0.48-0.25-0.71s-0.23-0.44-0.38-0.61
				c-0.15-0.17-0.33-0.3-0.52-0.38c-0.2-0.08-0.42-0.09-0.66-0.03c-0.27,0.07-0.47,0.21-0.6,0.42c-0.13,0.21-0.21,0.45-0.25,0.72
				l0.62,2.41c0.16,0.21,0.35,0.38,0.56,0.5c0.22,0.12,0.46,0.14,0.73,0.07c0.25-0.07,0.44-0.18,0.58-0.35s0.22-0.36,0.27-0.59
				c0.05-0.22,0.06-0.46,0.04-0.72C59.91,85.43,59.87,85.18,59.81,84.94z"/>
			<path class="st50" d="M66.44,84.85l-0.57,0.26l-1.89-4.15l-1.8,0.82l0.53,1.17c0.09,0.19,0.18,0.41,0.28,0.64
				c0.1,0.23,0.18,0.46,0.26,0.7c0.08,0.24,0.13,0.47,0.17,0.7c0.04,0.23,0.04,0.45,0.01,0.66c-0.03,0.21-0.1,0.39-0.21,0.56
				c-0.11,0.16-0.28,0.3-0.5,0.4c-0.15,0.07-0.3,0.12-0.45,0.14l-0.2-0.54c0.11-0.01,0.23-0.04,0.37-0.1
				c0.16-0.07,0.27-0.18,0.34-0.31c0.07-0.14,0.09-0.33,0.05-0.58c-0.03-0.25-0.12-0.56-0.26-0.95c-0.14-0.38-0.34-0.85-0.59-1.41
				l-0.6-1.31l2.95-1.34L66.44,84.85z"/>
			<path class="st50" d="M70.8,82.24l-0.48-0.75c0.02,0.18,0.01,0.35-0.04,0.52c-0.04,0.17-0.11,0.33-0.2,0.48
				c-0.09,0.15-0.2,0.29-0.32,0.42c-0.12,0.13-0.26,0.24-0.41,0.33c-0.41,0.26-0.8,0.35-1.19,0.28c-0.38-0.07-0.7-0.3-0.94-0.68
				c-0.3-0.47-0.33-0.94-0.09-1.43s0.72-0.96,1.46-1.43c0.08-0.05,0.17-0.1,0.25-0.15c0.08-0.05,0.17-0.1,0.25-0.15l-0.04-0.07
				c-0.28-0.44-0.56-0.71-0.83-0.78c-0.27-0.08-0.59,0-0.97,0.24c-0.21,0.14-0.41,0.3-0.58,0.5c-0.17,0.2-0.3,0.41-0.4,0.64
				l-0.35-0.56c0.14-0.23,0.3-0.44,0.5-0.64c0.19-0.19,0.4-0.36,0.64-0.51c0.46-0.29,0.89-0.4,1.29-0.32
				c0.4,0.08,0.74,0.34,1.03,0.79l1.39,2.2c0.08,0.13,0.17,0.26,0.26,0.38s0.18,0.25,0.28,0.37L70.8,82.24z M69.39,80.09
				c-0.05,0.03-0.1,0.06-0.16,0.09c-0.05,0.03-0.11,0.06-0.16,0.1c-0.17,0.11-0.36,0.24-0.56,0.39c-0.21,0.15-0.38,0.33-0.53,0.51
				c-0.15,0.19-0.25,0.39-0.3,0.61c-0.05,0.22,0,0.44,0.15,0.67c0.15,0.24,0.35,0.38,0.61,0.42s0.52-0.03,0.81-0.21
				c0.18-0.11,0.33-0.26,0.45-0.43c0.12-0.17,0.2-0.35,0.23-0.54c0.03-0.15,0.04-0.29,0.01-0.43c-0.03-0.14-0.07-0.28-0.12-0.41
				s-0.12-0.26-0.2-0.4C69.52,80.35,69.45,80.22,69.39,80.09z"/>
			<path class="st50" d="M72.95,80.71l-3.27-3.91l0.48-0.4l1.51,1.8l0.36-3.36l0.62-0.52l-0.41,3.43l3.91,0.29l-0.67,0.56
				l-3.72-0.29l1.67,2L72.95,80.71z"/>
			<path class="st50" d="M78.17,72.08c0.3,0.27,0.53,0.56,0.7,0.87s0.27,0.62,0.3,0.93c0.03,0.31,0,0.62-0.11,0.93
				s-0.28,0.59-0.52,0.86c-0.24,0.26-0.5,0.46-0.79,0.58c-0.29,0.13-0.59,0.19-0.9,0.18c-0.31,0-0.63-0.07-0.94-0.21
				c-0.32-0.14-0.62-0.34-0.91-0.6c-0.31-0.28-0.54-0.57-0.72-0.88s-0.27-0.61-0.31-0.93c-0.03-0.31,0.01-0.62,0.12-0.92
				c0.11-0.3,0.29-0.59,0.54-0.87c0.26-0.29,0.55-0.5,0.84-0.62c0.3-0.12,0.6-0.18,0.91-0.17c0.31,0.01,0.61,0.09,0.92,0.24
				C77.6,71.63,77.89,71.83,78.17,72.08z M75.43,75.14c0.23,0.21,0.46,0.36,0.71,0.48c0.25,0.11,0.49,0.18,0.74,0.19
				s0.47-0.02,0.69-0.1c0.22-0.08,0.41-0.22,0.58-0.4c0.17-0.19,0.29-0.4,0.35-0.62c0.06-0.23,0.08-0.46,0.04-0.7
				s-0.13-0.48-0.27-0.71c-0.14-0.24-0.33-0.46-0.56-0.68c-0.24-0.22-0.48-0.39-0.73-0.5c-0.25-0.11-0.48-0.18-0.71-0.2
				c-0.23-0.02-0.45,0.02-0.67,0.11s-0.41,0.23-0.58,0.42c-0.36,0.4-0.51,0.84-0.43,1.33S74.95,74.69,75.43,75.14z"/>
			<path class="st50" d="M78.79,66.77l0.35-0.52l4.23,2.85l-0.35,0.52L81,68.26l-1.52,2.26l2.02,1.36l-0.35,0.52l-4.23-2.85
				l0.35-0.52l1.77,1.19l1.52-2.26L78.79,66.77z"/>
			<path class="st50" d="M77.86,63.93l0.34-0.64l0.76,0.41l-0.34,0.64L77.86,63.93z M79.83,64.92l0.3-0.56l4.5,2.4l-0.3,0.56
				L79.83,64.92z"/>
			<path class="st50" d="M79.2,60.99l3.72,1.66L82.76,63l-3.29-1.47l0.25,0.84l-0.32,0.1l-0.34-1.16L79.2,60.99z"/>
		</g>
		<g>
			<path class="st50" d="M7.61,55.75c-0.05-0.23-0.05-0.47-0.01-0.69c0.05-0.23,0.13-0.44,0.25-0.62s0.28-0.35,0.47-0.49
				c0.19-0.14,0.4-0.23,0.63-0.28s0.46-0.05,0.69-0.01c0.22,0.05,0.43,0.13,0.62,0.25s0.35,0.27,0.48,0.46
				c0.13,0.19,0.22,0.4,0.28,0.64s0.06,0.47,0.01,0.69s-0.13,0.44-0.25,0.63c-0.12,0.19-0.28,0.35-0.46,0.48
				c-0.19,0.13-0.4,0.22-0.63,0.27s-0.47,0.06-0.69,0.01s-0.44-0.13-0.63-0.25c-0.19-0.12-0.35-0.28-0.49-0.47
				C7.76,56.2,7.66,55.98,7.61,55.75z"/>
			<path class="st50" d="M6.8,50.15c-0.02-0.24,0.01-0.47,0.09-0.69c0.08-0.22,0.19-0.41,0.34-0.58c0.15-0.17,0.33-0.31,0.53-0.42
				c0.21-0.11,0.43-0.17,0.67-0.19s0.47,0.01,0.68,0.09c0.22,0.08,0.41,0.19,0.58,0.33s0.31,0.32,0.42,0.53s0.17,0.43,0.18,0.67
				s-0.01,0.47-0.08,0.69c-0.07,0.22-0.18,0.42-0.33,0.59c-0.15,0.17-0.32,0.31-0.53,0.41c-0.2,0.11-0.42,0.17-0.66,0.18
				C8.45,51.79,8.22,51.76,8,51.68c-0.22-0.07-0.42-0.19-0.59-0.33c-0.17-0.15-0.31-0.32-0.42-0.53C6.88,50.61,6.82,50.39,6.8,50.15
				z"/>
			<path class="st50" d="M6.78,44.48c0.01-0.24,0.08-0.46,0.18-0.67c0.11-0.21,0.25-0.38,0.42-0.53s0.36-0.26,0.58-0.34
				c0.22-0.08,0.45-0.11,0.69-0.1s0.46,0.08,0.67,0.18c0.2,0.11,0.38,0.24,0.53,0.41s0.26,0.36,0.34,0.58s0.11,0.45,0.09,0.69
				c-0.02,0.24-0.08,0.46-0.18,0.67s-0.24,0.39-0.41,0.53c-0.17,0.15-0.36,0.26-0.58,0.34c-0.22,0.08-0.44,0.11-0.68,0.09
				s-0.46-0.08-0.67-0.18c-0.21-0.1-0.39-0.24-0.53-0.41c-0.15-0.17-0.26-0.36-0.34-0.58C6.8,44.95,6.76,44.72,6.78,44.48z"/>
			<path class="st50" d="M7.54,38.87c0.05-0.23,0.14-0.45,0.28-0.64c0.14-0.19,0.3-0.35,0.49-0.47c0.19-0.12,0.4-0.21,0.62-0.25
				c0.23-0.05,0.46-0.05,0.69,0c0.23,0.05,0.45,0.14,0.63,0.27c0.19,0.13,0.34,0.29,0.47,0.48c0.12,0.19,0.21,0.39,0.25,0.62
				c0.04,0.23,0.04,0.46-0.01,0.69c-0.05,0.23-0.14,0.45-0.27,0.64c-0.13,0.19-0.29,0.35-0.48,0.47c-0.19,0.12-0.4,0.21-0.62,0.25
				s-0.45,0.04-0.69-0.01s-0.45-0.14-0.64-0.27c-0.19-0.13-0.35-0.29-0.47-0.48c-0.12-0.19-0.21-0.4-0.26-0.63S7.49,39.1,7.54,38.87
				z"/>
			<path class="st50" d="M10.88,28.69l-1.14,0.18l-0.4-2.59l0.59-1.07l6.1,3.39l-0.69,1.24l-4.74-2.63L10.88,28.69z"/>
			<path class="st50" d="M22.1,20.92l-3.22-3.01l-0.01,0.01l2.06,4.26l-0.49,0.52l-4.39-1.76l-0.01,0.01l3.22,3.01l-0.43,0.46
				l-3.73-3.48l0.69-0.74l4.44,1.82l0.01-0.01l-2.12-4.31l0.69-0.74l3.73,3.48L22.1,20.92z"/>
			<path class="st50" d="M26.75,17.16l-0.5,0.38l-2.77-3.62l-1.57,1.2l0.78,1.02c0.13,0.17,0.27,0.36,0.41,0.56
				c0.15,0.2,0.28,0.41,0.41,0.63c0.13,0.21,0.23,0.43,0.33,0.65c0.09,0.22,0.14,0.43,0.16,0.64c0.02,0.21-0.01,0.41-0.08,0.59
				c-0.07,0.19-0.21,0.35-0.4,0.5c-0.13,0.1-0.27,0.18-0.41,0.24l-0.31-0.48c0.1-0.03,0.22-0.09,0.34-0.18
				c0.14-0.1,0.23-0.23,0.26-0.38c0.04-0.15,0.01-0.34-0.08-0.58c-0.09-0.24-0.24-0.52-0.46-0.87s-0.52-0.76-0.89-1.24l-0.87-1.14
				l2.58-1.97L26.75,17.16z"/>
			<path class="st50" d="M32.99,10.52l0.23,0.49l-4.54,2.1l-0.23-0.49L32.99,10.52z"/>
			<path class="st50" d="M36.98,10.92c0.29,0.05,0.57,0.07,0.85,0.07c0.28,0,0.53-0.03,0.77-0.08c0.43-0.09,0.75-0.26,0.96-0.49
				c0.21-0.23,0.28-0.51,0.21-0.82c-0.07-0.34-0.27-0.56-0.58-0.65C38.87,8.85,38.41,8.87,37.8,9c-0.07,0.02-0.14,0.03-0.2,0.05
				c-0.06,0.02-0.12,0.04-0.18,0.05l-0.24-1.11c0.05,0,0.11-0.01,0.17-0.02c0.06-0.01,0.13-0.02,0.19-0.04
				c0.16-0.04,0.34-0.08,0.54-0.15c0.2-0.06,0.38-0.15,0.55-0.26c0.17-0.11,0.3-0.24,0.4-0.4c0.1-0.16,0.12-0.34,0.07-0.56
				c-0.05-0.25-0.2-0.42-0.45-0.52s-0.56-0.1-0.96-0.02c-0.12,0.03-0.25,0.06-0.39,0.11c-0.13,0.05-0.26,0.1-0.38,0.16
				c-0.12,0.06-0.24,0.13-0.35,0.19s-0.2,0.14-0.28,0.21l-0.32-1.1c0.27-0.17,0.55-0.32,0.86-0.45c0.3-0.12,0.6-0.22,0.9-0.28
				c0.29-0.06,0.59-0.1,0.88-0.1c0.29,0,0.56,0.04,0.82,0.13c0.25,0.09,0.47,0.23,0.65,0.43s0.31,0.46,0.39,0.79
				c0.09,0.42,0.06,0.8-0.1,1.14c-0.16,0.33-0.44,0.59-0.83,0.75c0.22-0.03,0.42-0.01,0.61,0.06c0.19,0.07,0.35,0.16,0.5,0.29
				c0.15,0.13,0.27,0.28,0.37,0.46s0.17,0.37,0.22,0.57c0.08,0.37,0.07,0.7-0.04,0.99c-0.11,0.29-0.27,0.53-0.49,0.74
				c-0.22,0.21-0.48,0.38-0.79,0.52s-0.63,0.24-0.95,0.31c-0.31,0.07-0.61,0.11-0.9,0.13c-0.29,0.02-0.59,0.03-0.9,0.02L36.98,10.92
				z"/>
			<path class="st50" d="M42.7,9.75c0.3,0.11,0.56,0.18,0.79,0.22c0.22,0.04,0.44,0.05,0.66,0.04c0.45-0.03,0.8-0.16,1.05-0.39
				s0.36-0.52,0.33-0.88c-0.02-0.37-0.18-0.65-0.48-0.85c-0.3-0.19-0.69-0.27-1.18-0.24c-0.21,0.01-0.42,0.04-0.61,0.08
				s-0.4,0.1-0.6,0.18L42.5,4.18l4.02-0.25L46.59,5l-2.71,0.17l0.06,1.43c0.07-0.02,0.15-0.04,0.22-0.05
				c0.08-0.01,0.17-0.02,0.28-0.03c0.35-0.02,0.67,0,0.97,0.08c0.3,0.07,0.57,0.2,0.79,0.37c0.23,0.17,0.41,0.4,0.55,0.67
				s0.22,0.6,0.25,0.98c0.02,0.37-0.02,0.7-0.12,1c-0.1,0.3-0.27,0.55-0.49,0.77c-0.22,0.21-0.5,0.39-0.82,0.51
				c-0.33,0.13-0.7,0.2-1.12,0.23c-0.28,0.02-0.57,0.02-0.86,0s-0.58-0.05-0.85-0.11L42.7,9.75z"/>
			<path class="st50" d="M51.04,11.11l0.78-5.04l0.62,0.1l-0.36,2.32l2.76-1.95l0.8,0.12L52.8,8.62l2.36,3.13l-0.86-0.13l-2.24-2.99
				l-0.4,2.58L51.04,11.11z"/>
			<path class="st50" d="M55.14,13.92l2.1-6.89l0.58,0.18l-0.3,0.91c0.28-0.27,0.57-0.45,0.87-0.53c0.29-0.09,0.64-0.07,1.04,0.05
				c0.35,0.11,0.63,0.27,0.84,0.49s0.36,0.46,0.45,0.74c0.09,0.28,0.13,0.58,0.11,0.9c-0.01,0.32-0.07,0.64-0.16,0.95
				c-0.1,0.33-0.23,0.64-0.4,0.92c-0.16,0.28-0.36,0.52-0.59,0.71c-0.23,0.19-0.49,0.32-0.78,0.38c-0.29,0.07-0.61,0.05-0.96-0.06
				c-0.36-0.11-0.65-0.29-0.88-0.53c-0.23-0.25-0.38-0.55-0.43-0.93l-0.88,2.89L55.14,13.92z M59.23,8.14
				c-0.48-0.15-0.91-0.08-1.29,0.2c-0.38,0.28-0.67,0.73-0.86,1.37c-0.07,0.24-0.11,0.48-0.12,0.73c-0.01,0.25,0.02,0.49,0.08,0.71
				s0.18,0.42,0.34,0.6c0.16,0.17,0.37,0.3,0.64,0.38c0.44,0.13,0.83,0.06,1.19-0.22s0.62-0.74,0.81-1.36
				c0.2-0.65,0.23-1.17,0.1-1.58C59.98,8.56,59.69,8.28,59.23,8.14z"/>
			<path class="st50" d="M63.63,14.89l0.38-0.81c-0.14,0.11-0.29,0.19-0.46,0.25s-0.34,0.08-0.51,0.09
				c-0.18,0.01-0.35-0.01-0.53-0.05s-0.34-0.09-0.5-0.17c-0.43-0.2-0.72-0.49-0.87-0.85c-0.15-0.36-0.12-0.75,0.07-1.16
				c0.24-0.5,0.62-0.78,1.15-0.84c0.53-0.06,1.2,0.09,2,0.47c0.09,0.04,0.18,0.09,0.26,0.13c0.09,0.04,0.17,0.09,0.26,0.13
				l0.03-0.07c0.22-0.48,0.3-0.85,0.22-1.12c-0.08-0.27-0.32-0.5-0.73-0.69c-0.23-0.11-0.47-0.18-0.73-0.22s-0.51-0.04-0.76,0
				l0.28-0.6c0.27-0.01,0.54,0.02,0.8,0.08s0.52,0.15,0.77,0.26c0.49,0.23,0.82,0.54,0.97,0.92c0.15,0.38,0.11,0.81-0.12,1.29
				l-1.11,2.35c-0.06,0.14-0.13,0.28-0.18,0.42c-0.06,0.14-0.11,0.29-0.16,0.43L63.63,14.89z M64.68,12.54
				c-0.05-0.03-0.11-0.05-0.16-0.08c-0.05-0.03-0.11-0.06-0.17-0.09c-0.18-0.08-0.39-0.17-0.63-0.26c-0.24-0.09-0.48-0.15-0.72-0.17
				c-0.24-0.02-0.46,0-0.67,0.07s-0.37,0.23-0.49,0.48c-0.12,0.26-0.13,0.5-0.03,0.74c0.1,0.23,0.3,0.42,0.61,0.57
				c0.19,0.09,0.39,0.14,0.6,0.15c0.21,0.01,0.4-0.02,0.58-0.09c0.14-0.05,0.26-0.12,0.37-0.22c0.1-0.1,0.2-0.21,0.28-0.32
				s0.16-0.25,0.23-0.38C64.54,12.79,64.61,12.66,64.68,12.54z"/>
			<path class="st50" d="M68.39,12.33l-2.51,3.81l-0.53-0.35l2.8-4.26l3.32,2.19l-2.8,4.26l-0.53-0.35l2.51-3.81L68.39,12.33z"/>
			<path class="st50" d="M71.64,17.25c-0.17,0.2-0.31,0.41-0.41,0.64c-0.1,0.23-0.15,0.46-0.16,0.7c-0.01,0.24,0.04,0.46,0.13,0.69
				c0.1,0.22,0.25,0.43,0.47,0.62c0.08,0.07,0.17,0.14,0.28,0.21c0.11,0.07,0.22,0.13,0.34,0.19c0.12,0.06,0.23,0.1,0.34,0.15
				c0.11,0.04,0.22,0.07,0.32,0.08l-0.37,0.52c-0.24-0.1-0.49-0.22-0.74-0.38c-0.25-0.15-0.46-0.3-0.63-0.45
				c-0.27-0.23-0.46-0.49-0.59-0.77c-0.13-0.28-0.2-0.57-0.19-0.88c0-0.31,0.07-0.62,0.21-0.93c0.14-0.32,0.34-0.63,0.61-0.93
				c0.26-0.29,0.54-0.53,0.83-0.69c0.29-0.17,0.59-0.27,0.89-0.31c0.3-0.04,0.6-0.02,0.89,0.07c0.29,0.09,0.57,0.25,0.82,0.47
				c0.47,0.42,0.69,0.9,0.66,1.45s-0.3,1.12-0.81,1.7l-0.21,0.23L71.64,17.25z M74.18,18.85c0.17-0.2,0.31-0.4,0.4-0.6
				s0.14-0.4,0.15-0.6c0.01-0.19-0.02-0.38-0.09-0.55c-0.07-0.17-0.18-0.33-0.33-0.46c-0.33-0.29-0.71-0.41-1.13-0.36
				c-0.42,0.05-0.82,0.26-1.19,0.63L74.18,18.85z"/>
			<path class="st50" d="M75.97,25.16l-0.41-0.48l3.47-2.96l-1.28-1.51l-0.98,0.83c-0.16,0.14-0.34,0.29-0.54,0.44
				c-0.2,0.16-0.4,0.3-0.6,0.44c-0.21,0.14-0.42,0.26-0.63,0.36s-0.42,0.17-0.63,0.2c-0.21,0.03-0.41,0.01-0.6-0.05
				c-0.19-0.06-0.36-0.19-0.52-0.38c-0.11-0.13-0.19-0.26-0.26-0.4l0.46-0.34c0.03,0.1,0.1,0.21,0.2,0.33
				c0.11,0.13,0.25,0.21,0.4,0.24s0.34-0.01,0.57-0.11c0.23-0.1,0.51-0.27,0.84-0.51c0.33-0.24,0.73-0.56,1.19-0.96l1.1-0.93
				l2.1,2.47L75.97,25.16z"/>
			<path class="st50" d="M80.25,28.67c-0.24,0.15-0.47,0.25-0.7,0.28c-0.22,0.04-0.44,0.02-0.63-0.04c-0.2-0.06-0.38-0.17-0.56-0.33
				c-0.18-0.15-0.34-0.34-0.48-0.57l-1.05-1.65l4.31-2.73l0.34,0.53l-1.64,1.04l0.75,1.17c0.13,0.2,0.23,0.41,0.29,0.62
				s0.09,0.42,0.07,0.62c-0.02,0.2-0.08,0.39-0.19,0.57C80.65,28.36,80.48,28.52,80.25,28.67z M79.87,28.12
				c0.27-0.17,0.42-0.39,0.46-0.66c0.03-0.27-0.07-0.58-0.3-0.96l-0.64-1.01l-1.76,1.11l0.68,1.07c0.23,0.35,0.47,0.56,0.74,0.62
				S79.59,28.3,79.87,28.12z"/>
			<path class="st50" d="M86.03,35.98c0.07,0.23,0.08,0.46,0.05,0.69s-0.1,0.44-0.21,0.64c-0.11,0.19-0.26,0.37-0.44,0.51
				s-0.38,0.26-0.62,0.32c-0.23,0.07-0.46,0.08-0.69,0.05c-0.23-0.03-0.44-0.1-0.64-0.21s-0.37-0.25-0.51-0.43
				c-0.15-0.18-0.25-0.39-0.32-0.62c-0.07-0.23-0.09-0.46-0.06-0.69c0.03-0.23,0.1-0.44,0.21-0.64c0.11-0.2,0.25-0.37,0.43-0.51
				c0.18-0.14,0.38-0.25,0.61-0.32c0.23-0.07,0.46-0.09,0.69-0.06c0.23,0.03,0.44,0.1,0.64,0.21c0.2,0.11,0.37,0.25,0.52,0.43
				C85.85,35.54,85.96,35.75,86.03,35.98z"/>
			<path class="st50" d="M87.2,41.52c0.03,0.24,0.02,0.47-0.04,0.69c-0.06,0.22-0.16,0.42-0.3,0.6c-0.14,0.18-0.3,0.33-0.5,0.45
				s-0.42,0.2-0.65,0.23c-0.24,0.03-0.47,0.02-0.69-0.05c-0.22-0.06-0.42-0.16-0.6-0.29c-0.18-0.13-0.33-0.3-0.45-0.5
				c-0.12-0.2-0.19-0.42-0.23-0.66s-0.02-0.47,0.04-0.69c0.06-0.22,0.16-0.43,0.29-0.61s0.3-0.33,0.5-0.45s0.41-0.19,0.65-0.23
				c0.24-0.03,0.47-0.02,0.69,0.04c0.22,0.06,0.43,0.16,0.61,0.29s0.33,0.3,0.45,0.5C87.09,41.07,87.17,41.28,87.2,41.52z"/>
			<path class="st50" d="M87.59,47.21c0,0.24-0.05,0.47-0.15,0.68s-0.23,0.39-0.39,0.55c-0.16,0.15-0.35,0.28-0.57,0.37
				s-0.44,0.13-0.68,0.13c-0.24,0-0.46-0.05-0.67-0.15c-0.21-0.1-0.39-0.22-0.55-0.38s-0.28-0.35-0.37-0.56
				c-0.09-0.21-0.13-0.44-0.12-0.68c0-0.24,0.05-0.47,0.15-0.68s0.22-0.4,0.38-0.55c0.16-0.16,0.35-0.28,0.56-0.37
				c0.21-0.09,0.44-0.13,0.68-0.12s0.47,0.05,0.68,0.15c0.21,0.09,0.4,0.22,0.55,0.38s0.28,0.35,0.37,0.57S87.59,46.97,87.59,47.21z
				"/>
			<path class="st50" d="M87.19,52.82c-0.03,0.24-0.11,0.46-0.23,0.65s-0.27,0.36-0.45,0.5c-0.18,0.13-0.38,0.23-0.61,0.29
				s-0.46,0.08-0.69,0.04c-0.24-0.03-0.45-0.11-0.65-0.23c-0.2-0.12-0.36-0.27-0.5-0.45c-0.14-0.18-0.24-0.38-0.29-0.6
				c-0.06-0.22-0.07-0.45-0.04-0.69c0.03-0.24,0.11-0.46,0.23-0.65c0.12-0.2,0.27-0.37,0.45-0.5s0.38-0.23,0.6-0.29
				c0.22-0.06,0.45-0.07,0.69-0.04c0.24,0.03,0.46,0.11,0.65,0.23c0.2,0.12,0.37,0.27,0.5,0.45c0.14,0.18,0.24,0.38,0.3,0.61
				S87.22,52.59,87.19,52.82z"/>
		</g>
		<g>
			<path class="st0" d="M55.71,45.14l-2.14-2.54c-0.17-0.2-0.03-0.51,0.24-0.51c0.17,0,0.31-0.14,0.31-0.31v-3.72
				c0-0.16,0.12-0.29,0.27-0.31l0.37-0.04c0.16-0.02,0.27-0.15,0.27-0.31v-7.92c0-0.17-0.14-0.31-0.31-0.31h-2.3
				c-0.15,0-0.28-0.11-0.3-0.26l-1.86-10.56c-0.03-0.15-0.15-0.26-0.3-0.26h-2.41h-0.82h-2.41c-0.15,0-0.28,0.11-0.3,0.26
				l-1.86,10.56c-0.03,0.15-0.15,0.26-0.3,0.26h-2.3c-0.17,0-0.31,0.14-0.31,0.31v7.92c0,0.16,0.12,0.29,0.27,0.31l0.37,0.04
				c0.16,0.02,0.27,0.15,0.27,0.31v3.72c0,0.17,0.14,0.31,0.31,0.31c0.26,0,0.41,0.31,0.24,0.51l-2.14,2.54
				c-0.69,0.81-1.07,1.84-1.07,2.91v24.31c0,0.83,0.68,1.51,1.51,1.51h7.72h0.82h7.72c0.83,0,1.51-0.68,1.51-1.51V48.05
				C56.77,46.98,56.4,45.95,55.71,45.14z"/>
		</g>
		<g>
			<g>
				<g>
					<path class="st50" d="M34.96,44.32c0,0.5-0.08,0.94-0.24,1.31c-0.16,0.38-0.38,0.7-0.67,0.96s-0.62,0.46-1.01,0.6
						c-0.39,0.14-0.81,0.22-1.28,0.24v1.01h-1.54v-1.01c-0.46-0.02-0.89-0.1-1.28-0.24c-0.39-0.14-0.73-0.34-1.01-0.6
						s-0.51-0.58-0.67-0.96c-0.16-0.38-0.24-0.82-0.24-1.31c0-0.51,0.08-0.96,0.24-1.34c0.16-0.38,0.38-0.69,0.67-0.94
						s0.62-0.43,1.01-0.56s0.81-0.2,1.28-0.23V40.5h1.54v0.76c0.46,0.02,0.89,0.1,1.28,0.23s0.72,0.32,1.01,0.56s0.5,0.56,0.67,0.94
						C34.88,43.36,34.96,43.81,34.96,44.32z M30.23,42.49c-0.5,0.06-0.88,0.23-1.14,0.5c-0.26,0.27-0.4,0.71-0.4,1.29
						c0,0.56,0.13,1.01,0.38,1.34c0.25,0.33,0.64,0.52,1.16,0.59V42.49z M33.31,44.29c0-0.59-0.13-1.02-0.4-1.29
						s-0.65-0.44-1.14-0.5v3.72c0.52-0.07,0.91-0.26,1.16-0.59C33.19,45.3,33.31,44.85,33.31,44.29z"/>
					<path class="st50" d="M39.7,48.32v-4.54h-1.46v1.61c0,0.34-0.02,0.7-0.07,1.06s-0.14,0.68-0.27,0.97
						c-0.13,0.29-0.32,0.53-0.56,0.71c-0.24,0.18-0.55,0.28-0.93,0.28c-0.11,0-0.25-0.01-0.41-0.03c-0.17-0.02-0.3-0.04-0.41-0.06
						l0.06-1.08c0.03,0.01,0.09,0.01,0.18,0.02s0.15,0.01,0.18,0.01c0.18,0,0.33-0.06,0.43-0.18c0.1-0.12,0.18-0.27,0.24-0.46
						c0.05-0.18,0.09-0.39,0.1-0.6c0.01-0.22,0.02-0.43,0.02-0.64v-2.73h4.39v5.67H39.7z"/>
					<path class="st50" d="M46.14,48.32l-0.03-0.84c-0.18,0.33-0.42,0.57-0.75,0.71c-0.32,0.14-0.67,0.21-1.05,0.21
						c-0.59,0-1.06-0.16-1.4-0.47c-0.34-0.32-0.51-0.74-0.51-1.29c0-1.22,0.95-1.83,2.84-1.83c0.12,0,0.24,0,0.35,0.01
						c0.11,0,0.26,0.01,0.47,0.03v-0.03c0-0.81-0.42-1.22-1.25-1.22c-0.3,0-0.6,0.06-0.91,0.17c-0.31,0.11-0.59,0.26-0.85,0.45
						L43,42.97c0.27-0.14,0.59-0.24,0.95-0.3c0.36-0.06,0.7-0.09,1-0.09c0.21,0,0.43,0.02,0.66,0.05c0.23,0.04,0.44,0.1,0.64,0.18
						c0.2,0.08,0.38,0.2,0.55,0.34c0.17,0.14,0.29,0.32,0.38,0.54c0.04,0.1,0.07,0.19,0.09,0.29c0.03,0.1,0.05,0.21,0.06,0.35
						c0.01,0.13,0.03,0.29,0.03,0.47c0.01,0.18,0.01,0.4,0.01,0.65v0.81c0,0.22,0,0.42,0.01,0.59c0,0.18,0.01,0.34,0.01,0.51
						c0,0.16,0.01,0.32,0.02,0.47c0.01,0.15,0.01,0.32,0.02,0.48H46.14z M46.07,45.75c-0.1-0.01-0.18-0.01-0.23-0.01
						c-0.05,0-0.11,0-0.18,0c-1.22,0-1.83,0.32-1.83,0.96c0,0.21,0.08,0.39,0.25,0.52c0.16,0.14,0.38,0.2,0.63,0.2
						s0.49-0.07,0.71-0.21c0.22-0.14,0.38-0.34,0.49-0.58c0.06-0.12,0.1-0.24,0.12-0.36C46.05,46.14,46.06,45.97,46.07,45.75z"/>
					<path class="st50" d="M53.93,42.66l-2.1,2.69l2.37,2.97h-1.88l-1.95-2.74v2.74h-1.47v-5.67h1.47v2.6l1.86-2.6H53.93z"/>
					<path class="st50" d="M60.54,45.53c0,0.44-0.07,0.84-0.21,1.2c-0.14,0.36-0.34,0.67-0.6,0.93s-0.57,0.46-0.93,0.6
						s-0.76,0.21-1.2,0.21c-0.43,0-0.83-0.07-1.19-0.22c-0.36-0.15-0.67-0.35-0.93-0.61c-0.26-0.26-0.46-0.57-0.61-0.94
						c-0.14-0.37-0.21-0.77-0.21-1.21c0-0.45,0.07-0.85,0.21-1.22c0.14-0.37,0.34-0.68,0.61-0.95c0.26-0.26,0.57-0.47,0.93-0.62
						c0.36-0.15,0.76-0.22,1.21-0.22c0.44,0,0.84,0.07,1.2,0.22c0.36,0.15,0.67,0.35,0.92,0.62c0.26,0.26,0.46,0.58,0.6,0.96
						C60.47,44.66,60.54,45.08,60.54,45.53z M56.18,45.5c0,0.22,0.02,0.44,0.07,0.66s0.13,0.42,0.24,0.59
						c0.11,0.18,0.25,0.32,0.43,0.43c0.18,0.11,0.39,0.17,0.65,0.17c0.44,0,0.79-0.17,1.04-0.51c0.26-0.34,0.38-0.8,0.38-1.39
						c0-0.58-0.12-1.03-0.37-1.36c-0.25-0.33-0.59-0.5-1.02-0.5c-0.27,0-0.5,0.06-0.68,0.17c-0.18,0.11-0.32,0.25-0.43,0.43
						s-0.19,0.38-0.24,0.61C56.21,45.04,56.18,45.27,56.18,45.5z"/>
					<path class="st50" d="M65.44,48.32v-2.39h-2.25v2.39h-1.47v-5.67h1.47v2.13h2.25v-2.13h1.47v5.67H65.44z"/>
					<path class="st50" d="M32.63,57.46c0.3,0.12,0.6,0.21,0.9,0.27c0.3,0.06,0.58,0.09,0.84,0.09c0.48,0,0.87-0.1,1.14-0.3
						s0.42-0.48,0.42-0.83c0-0.38-0.16-0.66-0.47-0.84c-0.32-0.18-0.81-0.26-1.5-0.26c-0.08,0-0.16,0-0.23,0.01
						c-0.07,0-0.14,0.01-0.21,0.02v-1.25c0.06,0.01,0.12,0.01,0.19,0.02c0.07,0,0.14,0.01,0.21,0.01c0.18,0,0.39-0.01,0.62-0.03
						s0.44-0.07,0.65-0.15c0.21-0.08,0.38-0.19,0.52-0.34c0.14-0.15,0.21-0.34,0.21-0.58c0-0.28-0.12-0.5-0.36-0.66
						c-0.24-0.16-0.58-0.24-1.02-0.24c-0.14,0-0.29,0.01-0.44,0.03c-0.15,0.02-0.3,0.05-0.45,0.08s-0.29,0.08-0.42,0.13
						c-0.14,0.05-0.25,0.1-0.35,0.16l-0.09-1.25c0.33-0.12,0.67-0.22,1.02-0.28c0.35-0.06,0.7-0.09,1.03-0.09
						c0.33,0,0.65,0.03,0.97,0.09c0.32,0.06,0.6,0.17,0.85,0.32c0.25,0.15,0.45,0.36,0.6,0.61s0.23,0.57,0.23,0.94
						c0,0.48-0.12,0.88-0.37,1.2c-0.25,0.32-0.61,0.53-1.07,0.62c0.24,0.02,0.46,0.09,0.64,0.2c0.18,0.11,0.34,0.26,0.47,0.43
						s0.23,0.37,0.29,0.58c0.07,0.22,0.1,0.44,0.1,0.67c0,0.42-0.09,0.77-0.27,1.05s-0.41,0.51-0.7,0.69s-0.61,0.3-0.97,0.37
						s-0.73,0.11-1.09,0.11c-0.34,0-0.68-0.02-1-0.07c-0.32-0.04-0.64-0.11-0.97-0.19L32.63,57.46z"/>
					<path class="st50" d="M38.53,55.02c0-0.45,0.04-0.9,0.11-1.36c0.07-0.46,0.21-0.88,0.41-1.25c0.2-0.37,0.48-0.68,0.83-0.92
						c0.35-0.24,0.8-0.36,1.35-0.36c0.57,0,1.03,0.12,1.39,0.37c0.35,0.25,0.62,0.57,0.81,0.96c0.19,0.39,0.32,0.82,0.39,1.3
						c0.07,0.48,0.1,0.94,0.1,1.4c0,0.46-0.04,0.92-0.1,1.39c-0.07,0.46-0.2,0.88-0.4,1.25s-0.47,0.68-0.83,0.91
						c-0.35,0.23-0.81,0.35-1.36,0.35c-0.57,0-1.03-0.12-1.39-0.37c-0.35-0.25-0.62-0.56-0.82-0.96c-0.19-0.39-0.32-0.83-0.38-1.3
						C38.56,55.95,38.53,55.48,38.53,55.02z M40.11,55.16c0,0.12,0,0.27,0,0.45s0.02,0.37,0.04,0.57c0.02,0.2,0.05,0.4,0.1,0.6
						s0.11,0.39,0.19,0.55c0.08,0.17,0.19,0.3,0.31,0.4s0.27,0.15,0.46,0.15c0.75,0,1.13-0.92,1.13-2.77c0-0.12,0-0.28,0-0.47
						s-0.01-0.39-0.03-0.59s-0.05-0.42-0.09-0.63s-0.11-0.4-0.19-0.57c-0.08-0.17-0.19-0.31-0.31-0.41
						c-0.13-0.11-0.29-0.16-0.48-0.16s-0.35,0.05-0.48,0.16c-0.13,0.11-0.23,0.25-0.32,0.42c-0.08,0.17-0.15,0.37-0.2,0.58
						c-0.05,0.21-0.08,0.43-0.1,0.64c-0.02,0.21-0.03,0.41-0.03,0.6C40.11,54.88,40.11,55.03,40.11,55.16z"/>
					<path class="st50" d="M53.54,58.94v-4.39H53.5l-1.19,4.39h-1.65l-1.19-4.39h-0.03v4.39h-1.36v-5.67h2.21l1.2,4.49h0.02
						l1.27-4.49h2.12v5.67H53.54z"/>
					<path class="st50" d="M59.94,58.94V54.4h-1.46v1.61c0,0.34-0.02,0.7-0.07,1.06s-0.14,0.68-0.27,0.97
						c-0.13,0.29-0.32,0.53-0.56,0.71c-0.24,0.18-0.55,0.28-0.93,0.28c-0.11,0-0.25-0.01-0.41-0.03c-0.17-0.02-0.3-0.04-0.41-0.06
						l0.06-1.08c0.03,0.01,0.09,0.01,0.18,0.02s0.15,0.01,0.18,0.01c0.18,0,0.33-0.06,0.43-0.18c0.1-0.12,0.18-0.27,0.24-0.46
						c0.05-0.18,0.09-0.39,0.1-0.6c0.01-0.22,0.02-0.43,0.02-0.64v-2.73h4.39v5.67H59.94z"/>
				</g>
			</g>
		</g>
	</g>
</g>
</svg>
