<?xml version="1.0" encoding="utf-8"?>
<!-- Generator: Adobe Illustrator 26.3.1, SVG Export Plug-In . SVG Version: 6.00 Build 0)  -->
<svg version="1.1" xmlns="http://www.w3.org/2000/svg" xmlns:xlink="http://www.w3.org/1999/xlink" x="0px" y="0px"
	 viewBox="0 0 7.4 6.99" style="enable-background:new 0 0 7.4 6.99;" xml:space="preserve">
<style type="text/css">
	.st0{fill:#859FBB;}
</style>
<g id="Layer_1">
</g>
<g id="Isolation_Mode">
	<path class="st0" d="M0,3.46l2.22,1.33c0.22-0.29,0.45-0.57,0.69-0.85c0.24-0.28,0.5-0.57,0.79-0.88l0.76-0.79
		c0.3-0.3,0.63-0.6,0.98-0.91l0.82-0.72c0.26-0.22,0.52-0.42,0.78-0.62L7.4,0L6.66,0.75L5.91,1.56C5.39,2.17,4.96,2.73,4.6,3.25
		c-0.31,0.42-0.7,1-1.18,1.74L2.83,5.92L2.52,6.45L2.19,6.99C1.88,6.32,1.15,5.27,0,3.83V3.46z"/>
</g>
</svg>
