<?xml version="1.0" encoding="utf-8"?>
<!-- Generator: Adobe Illustrator 26.3.1, SVG Export Plug-In . SVG Version: 6.00 Build 0)  -->
<svg version="1.1" xmlns="http://www.w3.org/2000/svg" xmlns:xlink="http://www.w3.org/1999/xlink" x="0px" y="0px"
	 viewBox="0 0 23.42 25.94" style="enable-background:new 0 0 23.42 25.94;" xml:space="preserve">
<style type="text/css">
	.st0{fill:#859FBB;}
	.st1{fill:#FFFFFF;}
</style>
<g id="Layer_1">
</g>
<g id="Слой_1">
	<g>
		<g>
			<path class="st0" d="M11.63,20.94c-4.36-0.01-7.27-1.96-8.94-6.03c-0.17-0.42-0.42-0.63-0.84-0.8c-1.11-0.45-1.72-1.33-1.74-2.51
				C0.1,10.4,0.69,9.51,1.79,9.04c0.47-0.2,0.67-0.47,0.79-0.94C2.73,7.52,2.92,6.9,3.26,6.42c0.55-0.77,0.22-1.04-0.46-1.37
				C2,4.66,1.26,4.15,0.5,3.67C-0.1,3.29-0.21,2.86,0.44,2.43C1.69,1.6,2.95,0.79,4.36,0.26c1.47-0.55,2.69-0.22,3.63,1.05
				c0.3,0.41,0.53,0.48,1,0.33c1.78-0.56,3.58-0.56,5.36-0.01c0.49,0.15,0.75,0.13,1.09-0.34c0.89-1.24,2.12-1.56,3.54-1.05
				c1.45,0.52,2.74,1.35,4.01,2.21c0.58,0.39,0.55,0.83-0.03,1.19c-0.86,0.54-1.73,1.08-2.62,1.57c-0.45,0.25-0.64,0.46-0.31,0.94
				C20.22,6.4,20.36,6.7,20.47,7c0.34,1.01,0.72,1.82,1.77,2.48c1.74,1.08,1.3,3.72-0.6,4.6c-0.38,0.17-0.69,0.31-0.87,0.77
				C19.11,19.05,16.23,20.95,11.63,20.94z M4.58,10.01c-0.29,0-0.57,0.01-0.86,0C3.43,10,3.15,9.95,2.86,9.96
				c-0.85,0.02-1.46,0.58-1.56,1.39c-0.1,0.82,0.33,1.61,1.14,1.74c0.77,0.12,1.02,0.56,1.25,1.21c1.1,3.08,3.22,5.02,6.53,5.41
				c4.34,0.5,8.34-0.87,9.7-5.84c0.13-0.48,0.43-0.67,0.88-0.72c0.55-0.07,0.94-0.38,1.18-0.86c0.57-1.13-0.2-2.32-1.58-2.33
				c-2.66-0.03-4.95-0.81-6.61-3.01c-0.26-0.34-0.41-0.26-0.66-0.02C10.76,9.25,7.82,10.07,4.58,10.01z M11.69,2.37
				C8.11,2.39,4.82,4.77,3.78,8.09C3.65,8.51,3.48,8.88,4.2,8.9c3.37,0.1,6.38-0.71,8.68-3.36c0.65-0.74,0.88-0.71,1.4,0.14
				c1.01,1.64,2.49,2.61,4.36,2.97c0.33,0.06,0.76,0.25,1.01-0.02c0.27-0.29-0.04-0.66-0.15-0.97C18.31,4.5,15.14,2.36,11.69,2.37z
				 M21.75,3.01c-1.04-0.73-2.04-1.29-3.1-1.7c-0.81-0.32-1.56-0.19-2.18,0.47c-0.29,0.31-0.36,0.56,0.1,0.8
				c0.79,0.42,1.47,0.99,2.07,1.66c0.25,0.28,0.5,0.34,0.83,0.16C20.22,3.99,21,3.63,21.75,3.01z M1.62,3.07
				C2.36,3.5,2.99,3.82,3.56,4.22C4.17,4.65,4.6,4.53,5.08,3.98C5.47,3.53,6,3.21,6.46,2.82C6.71,2.61,7.22,2.6,7.15,2.15
				C7.09,1.72,6.69,1.48,6.31,1.31C5.86,1.1,5.38,1.09,4.92,1.27C3.79,1.69,2.74,2.27,1.62,3.07z"/>
			<path class="st0" d="M11.7,17.23c-0.82-0.04-1.57-0.34-2.13-1.02c-0.24-0.29-0.38-0.63-0.04-0.93c0.29-0.26,0.57-0.11,0.85,0.11
				c1.19,0.94,1.54,0.94,2.71-0.01c0.3-0.25,0.59-0.42,0.91-0.07c0.28,0.3,0.14,0.59-0.09,0.85C13.33,16.81,12.62,17.18,11.7,17.23z
				"/>
			<path class="st0" d="M7.43,11.52c0.17-0.46-0.28-1.29,0.55-1.3c0.89-0.01,0.58,0.83,0.58,1.33c0,0.5,0.3,1.36-0.57,1.34
				C7.1,12.87,7.61,11.99,7.43,11.52z"/>
			<path class="st0" d="M14.87,11.51c0.14-0.48-0.26-1.28,0.55-1.3c0.83-0.02,0.56,0.79,0.53,1.25c-0.03,0.51,0.41,1.42-0.54,1.41
				C14.54,12.87,15.04,11.98,14.87,11.51z"/>
		</g>
		<path class="st0" d="M9.31,20.91c0.08-0.28,0.31-0.19,0.49-0.15c1.3,0.31,2.59,0.3,3.88-0.04c0.19-0.05,0.41-0.13,0.51,0.13
			c0.09,0.24-0.09,0.37-0.27,0.48c-0.67,0.43-1.39,0.65-2.15,0.61c-0.84,0.02-1.57-0.2-2.23-0.64C9.41,21.21,9.26,21.1,9.31,20.91z
			 M21.11,25.94c1.02,0,1.21-0.28,0.91-1.24c-0.46-1.43-1.43-2.33-2.85-2.77c-1-0.31-2.01-0.57-3.01-0.87
			c-0.35-0.1-0.72-0.16-0.8-0.64l-7.21,0.03c-0.07,0.37-0.35,0.46-0.65,0.54c-1.07,0.31-2.14,0.59-3.2,0.92
			c-1.34,0.41-2.29,1.26-2.77,2.59c-0.4,1.11-0.19,1.42,0.97,1.42l0.3-1.24c0.35-0.85,0.94-1.3,1.69-1.56
			c0.6-0.21,1.23-0.34,1.84-0.55c1.19-0.4,2.26-0.57,3.52,0.14c1.49,0.84,3.15,0.54,4.62-0.35c0.44-0.27,0.83-0.33,1.33-0.17
			c1.02,0.33,2.07,0.59,3.1,0.91c0.79,0.24,1.41,0.71,1.81,1.58L21.11,25.94z"/>
	</g>
</g>
</svg>
