<?xml version="1.0" encoding="utf-8"?>
<!-- Generator: Adobe Illustrator 26.3.1, SVG Export Plug-In . SVG Version: 6.00 Build 0)  -->
<svg version="1.1" xmlns="http://www.w3.org/2000/svg" xmlns:xlink="http://www.w3.org/1999/xlink" x="0px" y="0px"
	 viewBox="0 0 24.05 26.11" style="enable-background:new 0 0 24.05 26.11;" xml:space="preserve">
<style type="text/css">
	.st0{fill:#859FBB;}
	.st1{fill:#FFFFFF;}
</style>
<g id="Layer_1">
</g>
<g id="Слой_1">
	<g>
		<path class="st0" d="M22.59,8.25c-0.66-0.41-1-0.84-1.23-1.54C20.02,2.7,16.27,0,12.02,0c0,0,0,0,0,0C7.86,0,4.13,2.65,2.75,6.6
			c-0.27,0.78-0.65,1.26-1.3,1.67C0.52,8.85-0.01,9.75,0,10.73c0.01,1.02,0.63,1.99,1.65,2.59c0.07,0.04,0.15,0.08,0.23,0.11
			c0.27,0.12,0.6,0.28,0.76,0.71c0.67,1.8,1.74,3.29,3.28,4.54l0.26,0.21l-0.26,0.2c-1.86,1.39-3.16,3.22-3.97,5.61l-0.03,0.08
			c-0.24,0.71-0.3,1.05,0.18,1.26c0.21,0.09,0.37,0.11,0.5,0.05c0.24-0.1,0.39-0.5,0.52-0.85l0.04-0.11
			c0.71-1.86,1.73-3.34,3.12-4.52c0.81-0.69,1.59-0.87,2.52-0.59c2.15,0.63,4.29,0.64,6.36,0.03c0.98-0.29,1.83-0.1,2.66,0.62
			c1.37,1.17,2.38,2.66,3.09,4.54c0.14,0.38,0.29,0.77,0.53,0.88c0.12,0.05,0.27,0.04,0.45-0.03c0.52-0.2,0.47-0.55,0.22-1.31
			c-0.81-2.41-2.08-4.24-3.9-5.61l-0.26-0.2l0.25-0.21c1.57-1.27,2.61-2.72,3.18-4.43c0.18-0.53,0.56-0.73,0.9-0.92
			c0.09-0.05,0.17-0.09,0.26-0.14c0.96-0.6,1.52-1.52,1.52-2.53C24.05,9.73,23.52,8.83,22.59,8.25z M21.57,12.27
			c-0.72,0.11-0.97,0.49-1.23,1.25c-1.28,3.77-3.94,5.64-8.12,5.73c-0.09,0-0.18,0-0.26,0c-3.91,0-6.71-1.88-8.1-5.44l-0.03-0.07
			c-0.32-0.81-0.55-1.4-1.46-1.52c-0.73-0.1-1.08-0.8-1.11-1.46C1.24,9.92,1.71,9.29,2.44,9.18c0.85-0.13,1.01-0.62,1.26-1.53
			c1.02-3.84,4.37-6.42,8.33-6.43c0,0,0,0,0.01,0c3.94,0,7.27,2.59,8.3,6.44c0.24,0.91,0.41,1.4,1.27,1.52
			c0.72,0.1,1.21,0.74,1.18,1.56C22.75,11.57,22.29,12.16,21.57,12.27z"/>
		<path class="st0" d="M12.05,16.72c-0.65,0-1.19-0.26-1.62-0.72c-0.28-0.31-0.41-0.67-0.11-1.03c0.31-0.36,0.68-0.3,0.99,0.01
			c0.47,0.46,0.92,0.47,1.39,0.01c0.31-0.3,0.67-0.43,1-0.07c0.36,0.39,0.19,0.79-0.12,1.11C13.16,16.45,12.65,16.7,12.05,16.72z"/>
		<path class="st0" d="M9.29,11.01c-0.01,0.24,0.12,0.88-0.56,0.9c-0.76,0.02-0.65-0.65-0.67-1.16c-0.01-0.21-0.01-0.42,0.02-0.62
			c0.04-0.4,0.25-0.65,0.68-0.62c0.38,0.03,0.52,0.3,0.53,0.65C9.29,10.36,9.29,10.57,9.29,11.01z"/>
		<path class="st0" d="M14.73,10.66c0.07-0.47-0.18-1.19,0.65-1.13c0.76,0.05,0.57,0.74,0.58,1.23c0.01,0.51,0.09,1.2-0.66,1.15
			C14.54,11.87,14.78,11.16,14.73,10.66z"/>
		<path class="st0" d="M6.57,6.27c-0.27,0-0.49-0.21-0.51-0.48C6.05,5.5,6.26,5.26,6.54,5.24c3.34-0.19,4.93-2.71,4.99-2.81
			c0.15-0.24,0.46-0.31,0.7-0.17c0.24,0.15,0.32,0.46,0.17,0.7c-0.08,0.13-1.92,3.09-5.81,3.3C6.59,6.27,6.58,6.27,6.57,6.27z"/>
		<path class="st0" d="M8.49,7.51C8.23,7.51,8,7.3,7.98,7.03C7.97,6.75,8.18,6.5,8.47,6.49c4.02-0.22,5.99-3.36,6.01-3.39
			c0.15-0.24,0.46-0.32,0.7-0.17c0.24,0.15,0.32,0.46,0.17,0.7c-0.09,0.15-2.25,3.62-6.83,3.88C8.51,7.51,8.5,7.51,8.49,7.51z"/>
	</g>
</g>
</svg>
