<?xml version="1.0" encoding="utf-8"?>
<!-- Generator: Adobe Illustrator 26.3.1, SVG Export Plug-In . SVG Version: 6.00 Build 0)  -->
<svg version="1.1" xmlns="http://www.w3.org/2000/svg" xmlns:xlink="http://www.w3.org/1999/xlink" x="0px" y="0px"
	 viewBox="0 0 21.42 27.89" style="enable-background:new 0 0 21.42 27.89;" xml:space="preserve">
<style type="text/css">
	.st0{fill:#859FBB;}
	.st1{fill:#FFFFFF;}
</style>
<g id="Layer_1">
</g>
<g id="Слой_1">
	<g>
		<g>
			<path class="st0" d="M19.85,16.51c0.08-0.04,0.15-0.08,0.23-0.13c0.85-0.53,1.34-1.34,1.34-2.22c0-0.86-0.47-1.64-1.29-2.16
				c-0.59-0.37-0.91-0.77-1.12-1.4c-1.19-3.57-4.52-5.97-8.3-5.97c0,0,0,0,0,0c-3.7,0-7.01,2.36-8.24,5.87
				c-0.25,0.7-0.59,1.14-1.18,1.51c-0.82,0.52-1.29,1.3-1.28,2.16c0.01,0.9,0.56,1.75,1.45,2.28c0.06,0.04,0.13,0.07,0.2,0.1
				c0.25,0.11,0.56,0.26,0.71,0.66c0.59,1.61,1.55,2.93,2.92,4.04l0.27,0.22l-0.28,0.21c-1.66,1.23-2.81,2.87-3.53,4.99l-0.03,0.07
				c-0.23,0.67-0.24,0.9,0.14,1.07c0.17,0.07,0.31,0.09,0.41,0.05c0.2-0.09,0.33-0.43,0.44-0.74l0.04-0.1c0.63-1.67,1.55-3,2.8-4.06
				c0.74-0.62,1.45-0.79,2.29-0.54c1.91,0.56,3.82,0.57,5.66,0.03c0.9-0.26,1.67-0.09,2.42,0.56c1.23,1.05,2.14,2.39,2.77,4.08
				c0.12,0.33,0.25,0.67,0.45,0.76c0.09,0.04,0.21,0.03,0.37-0.03c0.41-0.16,0.4-0.4,0.17-1.11c-0.72-2.14-1.85-3.77-3.48-4.99
				l-0.28-0.21l0.27-0.22c1.4-1.13,2.32-2.42,2.83-3.94C19.19,16.87,19.54,16.68,19.85,16.51z M18.19,16.68
				c-1.16,3.39-3.54,5.07-7.3,5.15c-0.08,0-0.16,0-0.24,0c-3.52,0-6.04-1.69-7.29-4.89l-0.03-0.07c-0.28-0.71-0.48-1.23-1.27-1.33
				c-0.68-0.09-1.01-0.74-1.03-1.35c-0.03-0.76,0.41-1.34,1.08-1.45c0.73-0.12,0.87-0.51,1.09-1.33c0.92-3.45,3.93-5.78,7.49-5.78
				c0,0,0,0,0.01,0c3.54,0,6.54,2.32,7.46,5.79c0.21,0.8,0.36,1.22,1.1,1.32c0.67,0.09,1.12,0.69,1.1,1.44
				c-0.02,0.77-0.45,1.31-1.12,1.41C18.63,15.69,18.41,16.02,18.19,16.68z"/>
			<path class="st0" d="M8.38,14.54c-0.01,0.29,0.15,1.1-0.7,1.13c-0.95,0.03-0.82-0.81-0.83-1.45c-0.01-0.26-0.01-0.52,0.02-0.78
				c0.05-0.5,0.32-0.81,0.85-0.78c0.48,0.03,0.65,0.37,0.67,0.81C8.39,13.73,8.38,13.99,8.38,14.54z"/>
			<path class="st0" d="M13,14.1c0.08-0.58-0.22-1.48,0.81-1.41c0.95,0.06,0.72,0.92,0.73,1.53c0.01,0.64,0.12,1.49-0.83,1.44
				C12.77,15.61,13.07,14.72,13,14.1z"/>
			<path class="st0" d="M11.24,5.48c-0.06,0-0.12-0.01-0.17-0.03c-2.09-0.7-2.8-2.44-2.42-3.8c0.34-1.21,1.42-1.86,2.62-1.6
				c1.33,0.3,1.54,1.18,1.56,1.54c0.05,0.68-0.36,1.35-0.94,1.57c-0.45,0.17-0.93,0.02-1.24-0.39c-0.18-0.24-0.14-0.58,0.11-0.77
				c0.24-0.18,0.58-0.14,0.77,0.11c0.11,0,0.22-0.19,0.22-0.42c-0.01-0.34-0.39-0.5-0.71-0.57C10.26,0.95,9.84,1.44,9.7,1.95
				c-0.23,0.84,0.2,1.96,1.71,2.47c0.29,0.1,0.44,0.4,0.35,0.69C11.68,5.34,11.47,5.48,11.24,5.48z"/>
		</g>
		<path class="st0" d="M14.11,18.68c-0.19-0.87-0.81-1.58-1.58-1.8c-0.42-0.12-0.84-0.1-1.24,0.04c-0.39,0.15-0.78,0.15-1.17,0
			c-0.4-0.15-0.82-0.16-1.24-0.04c-0.77,0.22-1.39,0.93-1.58,1.8c-0.18,0.85,0.01,1.73,0.51,2.35c0.42,0.52,1.01,0.81,1.62,0.81
			h2.53c0.61,0,1.21-0.3,1.62-0.81C14.1,20.4,14.29,19.52,14.11,18.68z"/>
		<path class="st1" d="M10.71,23.62c-1.45,0-2.62-1.18-2.62-2.62c0-1.45,1.18-2.62,2.62-2.62s2.62,1.18,2.62,2.62
			C13.33,22.44,12.15,23.62,10.71,23.62z M10.71,19.31c-0.93,0-1.69,0.76-1.69,1.69s0.76,1.69,1.69,1.69S12.4,21.93,12.4,21
			S11.64,19.31,10.71,19.31z"/>
	</g>
</g>
</svg>
