<?xml version="1.0" encoding="utf-8"?>
<!-- Generator: Adobe Illustrator 26.3.1, SVG Export Plug-In . SVG Version: 6.00 Build 0)  -->
<svg version="1.1" xmlns="http://www.w3.org/2000/svg" xmlns:xlink="http://www.w3.org/1999/xlink" x="0px" y="0px"
	 viewBox="0 0 64.2 90.2" style="enable-background:new 0 0 64.2 90.2;" xml:space="preserve">
<style type="text/css">
	.st0{clip-path:url(#SVGID_00000116202927088597724280000017059575618328175503_);}
	.st1{clip-path:url(#SVGID_00000026853669988935206080000010743637775802341533_);}
	.st2{fill:none;stroke:#FFFFFF;stroke-width:2;stroke-miterlimit:10;}
	
		.st3{clip-path:url(#SVGID_00000178182188619705210360000004110885669754000827_);fill:url(#SVGID_00000006692008262070349950000002252712953394777495_);stroke:#000000;stroke-miterlimit:10;}
</style>
<g id="Layer_1">
	<g>
		<g>
			<g>
				<g>
					<defs>
						<path id="SVGID_1_" d="M-51.9,1L-51.9,1c-2.9,0-6.5,8.5-7.3,10C-65.3,23-72.1,31-76,36.6c-4.7,6.3-7.2,14-7.2,21.5
							c0,17.2,13.9,31.1,31.1,31.1S-21,75.3-21,58.1c0-7.2-3.2-14.5-8-21.5c-4.4-7.3-8-13.1-15.6-25.4C-47,7.3-49.2,1-51.9,1
							L-51.9,1"/>
					</defs>
					<clipPath id="SVGID_00000024692761707086629020000008485472707863887768_">
						<use xlink:href="#SVGID_1_"  style="overflow:visible;"/>
					</clipPath>
					<g style="clip-path:url(#SVGID_00000024692761707086629020000008485472707863887768_);">
						<g>
							<g>
								<g>
									<defs>
										<rect id="SVGID_00000125578753508107117480000011780277279398002078_" x="-83.2" y="1" width="62.2" height="88.2"/>
									</defs>
									<clipPath id="SVGID_00000071527140836575368550000008871865838703580560_">
										<use xlink:href="#SVGID_00000125578753508107117480000011780277279398002078_"  style="overflow:visible;"/>
									</clipPath>
									
										<g transform="matrix(1 0 0 1 0 9.536743e-07)" style="clip-path:url(#SVGID_00000071527140836575368550000008871865838703580560_);">
										
											<image style="overflow:visible;enable-background:new    ;" width="133" height="188" xlink:href="DB9182BF.jpeg"  transform="matrix(0.4723 0 0 0.4723 -83.5701 0.6306)">
										</image>
									</g>
								</g>
							</g>
						</g>
					</g>
				</g>
			</g>
		</g>
		<path class="st2" d="M-29,36.6c-4.4-7.3-8-13.1-15.6-25.4C-47,7.3-49.2,1-51.9,1c-2.9,0-6.5,8.5-7.3,10C-65.3,23-72.1,31-76,36.6
			c-4.7,6.3-7.2,14-7.2,21.5c0,17.2,13.9,31.1,31.1,31.1S-21,75.3-21,58.1C-21,50.9-24.1,43.6-29,36.6z"/>
	</g>
</g>
<g id="Layer_2">
	<path class="st2" d="M-29,36.6c-4.4-7.3-8-13.1-15.6-25.4C-47,7.3-49.2,1-51.9,1c-2.9,0-6.5,8.5-7.3,10C-65.3,23-72.1,31-76,36.6
		c-4.7,6.3-7.2,14-7.2,21.5c0,17.2,13.9,31.1,31.1,31.1S-21,75.3-21,58.1C-21,50.9-24.1,43.6-29,36.6z"/>
	<g>
		<defs>
			<path id="SVGID_00000130627557640258658340000005006335813523028924_" d="M55.2,36.6c-4.4-7.3-8-13.1-15.6-25.4
				C37.2,7.3,35,1,32.3,1c-2.9,0-6.5,8.5-7.3,10C18.9,23,12.1,31,8.2,36.6C3.5,42.9,1,50.6,1,58.1c0,17.2,13.9,31.1,31.1,31.1
				s31.1-13.9,31.1-31.1C63.2,50.9,60.1,43.6,55.2,36.6z"/>
		</defs>
		<clipPath id="SVGID_00000074408286897080975480000005701247109649403547_">
			<use xlink:href="#SVGID_00000130627557640258658340000005006335813523028924_"  style="overflow:visible;"/>
		</clipPath>
		
			<linearGradient id="SVGID_00000094594748646933105160000015931496114717436818_" gradientUnits="userSpaceOnUse" x1="32.5444" y1="93.2111" x2="32.5444" y2="-2.3444">
			<stop  offset="0" style="stop-color:#D6EAFD"/>
			<stop  offset="1" style="stop-color:#9CB2DE"/>
		</linearGradient>
		
			<rect x="-1.9" y="-2.3" style="clip-path:url(#SVGID_00000074408286897080975480000005701247109649403547_);fill:url(#SVGID_00000094594748646933105160000015931496114717436818_);stroke:#000000;stroke-miterlimit:10;" width="68.9" height="95.6"/>
	</g>
</g>
</svg>
