<?xml version="1.0" encoding="utf-8"?>
<!-- Generator: Adobe Illustrator 26.3.1, SVG Export Plug-In . SVG Version: 6.00 Build 0)  -->
<svg version="1.1" id="Layer_1" xmlns="http://www.w3.org/2000/svg" xmlns:xlink="http://www.w3.org/1999/xlink" x="0px" y="0px"
	 viewBox="0 0 77.01 111.38" style="enable-background:new 0 0 77.01 111.38;" xml:space="preserve">
<style type="text/css">
	.st0{fill:#FFFFFF;}
	.st1{fill:none;stroke:#0075BF;}
	.st2{fill:#0075BF;}
	
		.st3{clip-path:url(#SVGID_00000162316519654760135090000017082195041236658562_);fill:url(#SVGID_00000137098578358672544560000001212489044238474412_);}
	
		.st4{clip-path:url(#SVGID_00000055680411386745627670000002435836357958442395_);fill:url(#SVGID_00000064329604235711368710000016688428459634603929_);}
</style>
<g>
	<rect x="30.53" y="9.87" class="st0" width="45.98" height="27.89"/>
	<rect x="30.53" y="9.87" class="st1" width="45.98" height="27.89"/>
	<rect x="30.6" y="19.99" class="st2" width="45.85" height="7.31"/>
	<rect x="43.13" y="9.86" class="st2" width="7.47" height="27.89"/>
	<g>
		<defs>
			<path id="SVGID_1_" d="M33.9,84.63c6.27,0,11.35,4.91,11.35,10.96c0,6.06-5.08,10.96-11.35,10.96c-2.49,0-4.78-0.78-6.65-2.1
				c-1.87,1.31-4.17,2.1-6.66,2.1c-6.27,0-11.35-4.9-11.35-10.96c0-6.05,5.08-10.96,11.35-10.96c2.49,0,4.79,0.78,6.66,2.1
				C29.12,85.41,31.41,84.63,33.9,84.63 M0,95.83c0,8.59,12.1,15.55,27.03,15.55c14.93,0,27.02-6.97,27.02-15.55
				c0-8.59-12.1-15.55-27.02-15.55C12.1,80.28,0,87.24,0,95.83"/>
		</defs>
		<clipPath id="SVGID_00000166661237219543876720000015765490296398105272_">
			<use xlink:href="#SVGID_1_"  style="overflow:visible;"/>
		</clipPath>
		
			<radialGradient id="SVGID_00000034069370917052995830000007433008863852221832_" cx="-280.9807" cy="497.2982" r="1" gradientTransform="matrix(26.8127 0 0 -23.3308 7560.8633 11698.0049)" gradientUnits="userSpaceOnUse">
			<stop  offset="0" style="stop-color:#0097D6"/>
			<stop  offset="0.0895" style="stop-color:#0095D4"/>
			<stop  offset="0.1672" style="stop-color:#008ED0"/>
			<stop  offset="0.2403" style="stop-color:#0083C8"/>
			<stop  offset="0.309" style="stop-color:#0075BF"/>
			<stop  offset="0.6798" style="stop-color:#0075BF"/>
			<stop  offset="1" style="stop-color:#0097D6"/>
		</radialGradient>
		
			<rect y="80.28" style="clip-path:url(#SVGID_00000166661237219543876720000015765490296398105272_);fill:url(#SVGID_00000034069370917052995830000007433008863852221832_);" width="54.05" height="31.11"/>
	</g>
	<g>
		<defs>
			<path id="SVGID_00000050658163228119085910000012114667232088409010_" d="M24.4,6.83c-0.4,0.16-1.12,0.64-1.12,0.64v71.44
				l0.96,1.47h5.44l1.02-1.47V7.51c0,0-0.53-0.44-1.05-0.72c-0.53-0.28-1.71-0.42-2.56-0.42C26.23,6.37,24.81,6.66,24.4,6.83"/>
		</defs>
		<clipPath id="SVGID_00000171683344914244275990000011287356166925218958_">
			<use xlink:href="#SVGID_00000050658163228119085910000012114667232088409010_"  style="overflow:visible;"/>
		</clipPath>
		
			<linearGradient id="SVGID_00000155837407929668562370000016783800148466924423_" gradientUnits="userSpaceOnUse" x1="-302.2144" y1="511.8919" x2="-301.2143" y2="511.8919" gradientTransform="matrix(7.4119 0 0 -7.4119 2263.2583 3837.4629)">
			<stop  offset="0" style="stop-color:#0097D6"/>
			<stop  offset="0.1011" style="stop-color:#008CCE"/>
			<stop  offset="0.2586" style="stop-color:#007FC5"/>
			<stop  offset="0.4122" style="stop-color:#0077C0"/>
			<stop  offset="0.5562" style="stop-color:#0075BF"/>
			<stop  offset="0.6652" style="stop-color:#0078C1"/>
			<stop  offset="0.8" style="stop-color:#0081C7"/>
			<stop  offset="0.9478" style="stop-color:#0090D1"/>
			<stop  offset="1" style="stop-color:#0097D6"/>
		</linearGradient>
		
			<rect x="23.28" y="6.37" style="clip-path:url(#SVGID_00000171683344914244275990000011287356166925218958_);fill:url(#SVGID_00000155837407929668562370000016783800148466924423_);" width="7.41" height="74.01"/>
	</g>
	<path d="M14.55,53c-0.07-0.35-0.13-0.89-0.13-1.45c0-0.79,0.14-1.3,0.45-1.68c0.24-0.32,0.6-0.51,1.08-0.51
		c0.59,0,1.11,0.39,1.35,1.04h0.02c0.15-0.58,0.63-1.26,1.54-1.26c0.53,0,0.93,0.21,1.23,0.52c0.39,0.43,0.57,1.12,0.57,2.12
		c0,0.54-0.04,0.96-0.07,1.23H14.55z M17.06,52.21v-0.72c0-0.84-0.44-1.33-1.03-1.33c-0.72,0-1,0.54-1,1.34
		c0,0.36,0.03,0.57,0.05,0.7H17.06z M19.99,52.21c0.03-0.15,0.04-0.38,0.04-0.66c0-0.82-0.3-1.57-1.19-1.57
		c-0.84,0-1.18,0.72-1.18,1.58v0.65H19.99z"/>
	<path d="M16.19,47.36h1.85c0.7,0,1.14,0.01,1.76,0.05l0.01-0.03c-0.54-0.26-0.85-0.42-1.35-0.71l-2.27-1.37v-0.94h4.4v0.76h-1.86
		c-0.72,0-1.09-0.02-1.8-0.05v0.03c0.56,0.28,0.92,0.47,1.36,0.73c0.68,0.42,1.53,0.9,2.3,1.37v0.92h-4.4V47.36z"/>
	<path d="M17.63,43.07c-0.56,0-1.02,0.02-1.44,0.04v-0.72l0.75-0.04v-0.02c-0.54-0.33-0.85-0.85-0.85-1.56
		c0-1.06,0.9-1.86,2.24-1.86c1.58,0,2.36,0.96,2.36,2c0,0.58-0.26,1.09-0.69,1.35v0.02h2.39v0.79H17.63z M18.8,42.27
		c0.12,0,0.23-0.02,0.33-0.04c0.55-0.15,0.94-0.63,0.94-1.2c0-0.85-0.69-1.34-1.7-1.34c-0.88,0-1.64,0.46-1.64,1.31
		c0,0.54,0.39,1.05,0.99,1.21c0.1,0.03,0.22,0.05,0.33,0.05H18.8z"/>
	<path d="M18.36,33.91c1.63,0,2.34,1.13,2.34,2.19c0,1.19-0.87,2.11-2.26,2.11c-1.47,0-2.34-0.96-2.34-2.18
		C16.09,34.77,17.01,33.91,18.36,33.91 M18.4,37.4c0.96,0,1.69-0.55,1.69-1.33c0-0.76-0.72-1.34-1.71-1.34
		c-0.74,0-1.69,0.37-1.69,1.32C16.69,36.99,17.57,37.4,18.4,37.4"/>
	<path d="M14.7,29.58c0.08,0.23,0.15,0.63,0.2,0.92c0.11,0.71,0.35,1.23,0.83,1.56c0.4,0.28,0.99,0.44,1.45,0.48v-0.03
		c-0.64-0.28-0.99-0.9-0.99-1.53c0-1.08,0.77-1.87,2.17-1.87c1.44,0,2.33,0.74,2.33,2.04c0,1.55-1.48,2.05-2.95,2.05
		c-1,0-1.82-0.21-2.44-0.68c-0.61-0.43-0.89-1.04-1.04-1.89c-0.05-0.35-0.13-0.79-0.24-1.09L14.7,29.58z M16.78,31.15
		c0,0.47,0.24,0.81,0.6,0.99c0.26,0.14,0.58,0.22,0.94,0.22c0.73,0,1.77-0.36,1.77-1.23c0-0.88-0.85-1.21-1.66-1.21
		C17.71,29.92,16.78,30.21,16.78,31.15"/>
	<path d="M16.19,24.77h4.4v0.79h-3.77v1.51h1.14c1.24,0,2.06,0.12,2.44,0.69c0.17,0.22,0.27,0.46,0.27,0.87l-0.63,0.08
		c-0.03-0.15-0.09-0.33-0.18-0.44c-0.3-0.41-0.92-0.45-1.9-0.45h-1.77V24.77z"/>
	<path d="M18.54,23.02c1.08-0.02,1.53-0.71,1.53-1.51c0-0.57-0.1-0.92-0.23-1.22l0.57-0.14c0.13,0.28,0.27,0.76,0.27,1.46
		c0,1.35-0.89,2.16-2.22,2.16c-1.33,0-2.37-0.78-2.37-2.06c0-1.44,1.26-1.82,2.07-1.82c0.16,0,0.29,0.02,0.37,0.03V23.02z
		 M17.97,20.67c-0.51-0.01-1.3,0.21-1.3,1.11c0,0.81,0.74,1.16,1.3,1.23V20.67z"/>
	<polygon points="16.19,18.14 17.97,18.14 17.97,16.05 16.19,16.05 16.19,15.26 20.59,15.26 20.59,16.05 18.6,16.05 18.6,18.14 
		20.59,18.14 20.59,18.93 16.19,18.93 	"/>
	<path d="M18.36,9.97c1.63,0,2.34,1.13,2.34,2.19c0,1.19-0.87,2.11-2.26,2.11c-1.47,0-2.34-0.96-2.34-2.18
		C16.09,10.82,17.01,9.97,18.36,9.97 M18.4,13.46c0.96,0,1.69-0.55,1.69-1.34c0-0.76-0.72-1.34-1.71-1.34
		c-0.74,0-1.69,0.37-1.69,1.32C16.69,13.05,17.57,13.46,18.4,13.46"/>
	<path d="M33.89,1.97l0.96,2.6c0.1,0.29,0.21,0.64,0.28,0.9h0.02c0.08-0.26,0.17-0.6,0.28-0.92l0.87-2.58h0.85l-1.2,3.14
		c-0.57,1.51-0.96,2.28-1.51,2.75c-0.39,0.35-0.78,0.48-0.98,0.52l-0.2-0.67c0.2-0.06,0.46-0.19,0.7-0.39
		c0.22-0.17,0.49-0.48,0.67-0.89c0.04-0.08,0.06-0.14,0.06-0.19c0-0.05-0.02-0.11-0.05-0.21l-1.63-4.05H33.89z"/>
	<path d="M42.82,0v0.54c1.29,0.06,2.58,0.84,2.58,2.76c0,1.93-1.29,2.66-2.59,2.74v0.57h-0.76V6.04c-1.28-0.08-2.58-0.76-2.58-2.7
		c0-2.01,1.42-2.73,2.6-2.8V0H42.82z M42.06,1.12c-0.8,0.05-1.77,0.6-1.77,2.19c0,1.46,0.87,2.08,1.77,2.17V1.12z M42.81,5.48
		c0.88-0.07,1.77-0.66,1.77-2.18c0-1.57-0.89-2.14-1.77-2.18V5.48z"/>
	<path d="M47.28,0.74c0.01,0.27-0.19,0.49-0.51,0.49c-0.28,0-0.48-0.22-0.48-0.49c0-0.28,0.21-0.5,0.5-0.5
		C47.09,0.24,47.28,0.45,47.28,0.74 M46.39,1.97h0.8v4.4h-0.8V1.97z"/>
	<polygon points="49.29,1.97 49.29,3.74 51.38,3.74 51.38,1.97 52.17,1.97 52.17,6.37 51.38,6.37 51.38,4.38 49.29,4.38 49.29,6.37 
		48.5,6.37 48.5,1.97 	"/>
	<path d="M56.81,1.97v4.4h-0.79V2.6h-1.51v1.14c0,1.24-0.12,2.06-0.69,2.44c-0.22,0.17-0.46,0.27-0.87,0.27l-0.08-0.63
		c0.15-0.03,0.33-0.09,0.44-0.18c0.41-0.3,0.45-0.92,0.45-1.9V1.97H56.81z"/>
	<path d="M61.37,6.37h-0.79V4.53h-0.59c-0.34,0-0.56,0.09-0.74,0.24c-0.33,0.26-0.45,0.81-0.62,1.24c-0.05,0.14-0.12,0.25-0.18,0.36
		H57.6c0.1-0.15,0.19-0.31,0.27-0.5c0.19-0.43,0.3-1,0.69-1.33c0.14-0.12,0.3-0.22,0.5-0.25V4.26C58.49,4.2,57.9,3.84,57.9,3.17
		c0-0.45,0.24-0.76,0.58-0.95c0.36-0.21,0.9-0.3,1.47-0.3c0.53,0,1.04,0.05,1.42,0.09V6.37z M60.58,2.5
		c-0.2-0.03-0.38-0.04-0.66-0.04c-0.54,0-1.19,0.15-1.19,0.76c0,0.56,0.7,0.76,1.17,0.76h0.68V2.5z"/>
	<polygon points="63.44,1.97 63.44,3.74 65.53,3.74 65.53,1.97 66.32,1.97 66.32,6.37 65.53,6.37 65.53,4.38 63.44,4.38 63.44,6.37 
		62.65,6.37 62.65,1.97 	"/>
	<path d="M71.04,1.97v3.8l0.45,0.01l-0.04,1.99h-0.63l-0.04-1.4h-3.04l-0.04,1.4h-0.63l-0.04-1.99l0.37-0.01
		c0.19-0.28,0.34-0.58,0.44-0.9c0.17-0.55,0.26-1.14,0.26-1.75V1.97H71.04z M68.81,3.31c0,0.58-0.08,1.15-0.23,1.64
		c-0.09,0.3-0.22,0.57-0.35,0.82h2.03V2.58h-1.44V3.31z"/>
	<path d="M73.33,0.74c0.01,0.27-0.19,0.49-0.51,0.49c-0.28,0-0.48-0.22-0.48-0.49c0-0.28,0.21-0.5,0.5-0.5
		C73.14,0.24,73.33,0.45,73.33,0.74 M72.45,1.97h0.8v4.4h-0.8V1.97z"/>
	<path d="M73.67,0.73c0-0.25,0.21-0.46,0.46-0.46c0.26,0,0.45,0.2,0.45,0.46c0,0.25-0.18,0.46-0.45,0.46
		C73.86,1.19,73.67,0.97,73.67,0.73 M74.57,1.97h0.8v4.4h-0.8V1.97z M75.36,0.73c0-0.25,0.2-0.46,0.46-0.46
		c0.24,0,0.44,0.2,0.44,0.46c0,0.25-0.17,0.46-0.45,0.46C75.54,1.19,75.36,0.97,75.36,0.73"/>
</g>
</svg>
