<?xml version="1.0" encoding="utf-8"?>
<!-- Generator: Adobe Illustrator 26.3.1, SVG Export Plug-In . SVG Version: 6.00 Build 0)  -->
<svg version="1.1" id="Layer_1" xmlns="http://www.w3.org/2000/svg" xmlns:xlink="http://www.w3.org/1999/xlink" x="0px" y="0px"
	 viewBox="0 0 261.52 71.77" style="enable-background:new 0 0 261.52 71.77;" xml:space="preserve">
<style type="text/css">
	.st0{fill:#000000;}
	.st1{fill-rule:evenodd;clip-rule:evenodd;fill:#000000;}
</style>
<g>
	<rect x="135.29" y="35.95" class="st0" width="12.16" height="33.02"/>
	<path class="st0" d="M103.99,60.43h-8.3l0.04,8.59H83.57V35.99h12.16c16.51,0,16.47,0.03,16.47,0.03h0.34
		c8.23,0,14.9,5.48,14.9,12.24c0,5.26-4.2,9.69-9.94,11.41l10.38,9.32L110.83,69L103.99,60.43z M95.7,51.69h14.96
		c2.04-0.21,3.61-1.58,3.61-3.25c0-1.67-1.49-3.11-3.51-3.32H95.7V51.69z"/>
	<polygon class="st0" points="247.03,36.04 259.2,36.04 259.2,69.06 247.03,69.06 226.57,51.21 226.57,69.06 214.41,69.06 
		214.41,36.04 226.57,36.04 247.03,53.66 	"/>
	<path class="st1" d="M169.03,52.59c0-3.58,5.24-6.49,11.7-6.49c6.47,0,11.7,2.91,11.7,6.49c0,3.58-5.24,6.5-11.7,6.5
		C174.27,59.08,169.03,56.17,169.03,52.59 M154.9,52.59c0-9.66,11.57-17.5,25.83-17.5c14.27,0,25.83,7.83,25.83,17.5
		c0,9.66-11.57,17.5-25.83,17.5C166.47,70.09,154.9,62.25,154.9,52.59"/>
	<path class="st1" d="M19.75,46.94c0-4.78,8.07-8.66,18.04-8.66c9.96,0,18.03,3.88,18.03,8.66c0,4.78-8.07,8.66-18.03,8.66
		C27.82,55.6,19.75,51.72,19.75,46.94 M1.38,41.26C5.43,31.1,17.47,23.67,25.66,20.14C43.34,12.5,61.94,8.01,80.52,4.87
		c19.98-3.37,30.76-3.78,50.54-4.47c24.43-0.84,38.29-0.49,62.64,2.02c25.2,2.59,45.76,7.3,65.63,13.22l2.19,6.53
		c-22.46-5.04-40.03-7.8-61.92-9.53c-23.52-1.85-35.75-1.79-58.17-0.72c-36.74,1.76-63.64,8.06-83.39,15.38
		c10.48,4.31,17.53,11.83,17.53,20.41c0,13.28-16.92,24.05-37.78,24.05C16.92,71.77,0,61,0,47.72C0,45.48,0.48,43.32,1.38,41.26"/>
</g>
</svg>
