<?xml version="1.0" encoding="utf-8"?>
<!-- Generator: Adobe Illustrator 26.3.1, SVG Export Plug-In . SVG Version: 6.00 Build 0)  -->
<svg version="1.1" id="Layer_1" xmlns="http://www.w3.org/2000/svg" xmlns:xlink="http://www.w3.org/1999/xlink" x="0px" y="0px"
	 viewBox="0 0 175.17 28.16" style="enable-background:new 0 0 175.17 28.16;" xml:space="preserve">
<style type="text/css">
	.st0{fill-rule:evenodd;clip-rule:evenodd;fill:#FFFFFF;}
	.st1{fill:#3B9C25;}
	.st2{fill:#FFFFFF;stroke:#707070;stroke-width:0.3147;stroke-miterlimit:10;}
	.st3{fill:none;stroke:#707070;stroke-width:0.6295;stroke-miterlimit:10;}
</style>
<g>
	<path class="st0" d="M51.1,10.33h-3.83V8.07H57.7v2.26h-3.83v9.71H51.1V10.33z M67.51,17.48h-5.56l-1.06,2.57h-2.84l5.34-11.97
		h2.74l5.36,11.97h-2.91L67.51,17.48z M66.64,15.37l-1.9-4.58l-1.9,4.58H66.64z M84.15,14.91c-0.39-0.51-0.92-0.88-1.61-1.09
		c0.5-0.26,0.89-0.62,1.16-1.08c0.29-0.46,0.43-0.97,0.43-1.56c0-0.96-0.39-1.72-1.18-2.27c-0.78-0.56-1.89-0.84-3.35-0.84h-5.85
		v11.97h6.19c1.56,0,2.75-0.28,3.56-0.84c0.82-0.57,1.23-1.38,1.23-2.43C84.73,16.03,84.54,15.41,84.15,14.91z M76.5,12.98v-2.82
		h2.75c0.68,0,1.2,0.12,1.56,0.36c0.35,0.23,0.53,0.58,0.53,1.04c0,0.47-0.18,0.82-0.53,1.06c-0.35,0.24-0.87,0.36-1.56,0.36H76.5z
		 M81.38,17.59c-0.37,0.24-0.91,0.36-1.64,0.36H76.5V15h3.23c1.47,0,2.21,0.5,2.21,1.49C81.94,16.98,81.76,17.36,81.38,17.59z
		 M87.86,8.07h2.77v9.71h6.01v2.26h-8.78V8.07z M108.49,20.04v-2.22h-6.52v-2.77h5.56v-2.15h-5.56v-2.6h6.3V8.07h-9.05v11.97H108.49
		z M114.2,10.33h-3.83V8.07h10.44v2.26h-3.83v9.71h-2.77V10.33z M126.08,17.01l1.61-1.68l3.83,4.7h3.23l-5.25-6.64l4.96-5.34h-3.08
		l-5.3,5.59V8.07h-2.75v11.97h2.75V17.01z M137.02,8.07h2.77v11.97h-2.77V8.07z M143.3,19.7c0.32,0.32,0.71,0.48,1.18,0.48
		c0.47,0,0.86-0.16,1.18-0.48c0.32-0.32,0.48-0.72,0.48-1.2c0-0.49-0.16-0.88-0.48-1.18c-0.32-0.31-0.71-0.46-1.18-0.46
		c-0.47,0-0.86,0.15-1.18,0.46c-0.32,0.3-0.48,0.69-0.48,1.18C142.82,18.98,142.98,19.38,143.3,19.7z M154.37,20.25
		c-1.71,0-3.04-0.47-4-1.42c-0.95-0.95-1.42-2.3-1.42-4.05v-6.7h2.77v6.6c0,2.14,0.89,3.22,2.67,3.22c0.87,0,1.53-0.26,1.99-0.77
		c0.46-0.52,0.68-1.34,0.68-2.45v-6.6h2.74v6.7c0,1.76-0.48,3.11-1.44,4.05C157.41,19.77,156.08,20.25,154.37,20.25z M165.64,17.48
		h5.56l1.06,2.57h2.91l-5.36-11.97h-2.74l-5.34,11.97h2.84L165.64,17.48z M168.43,10.79l1.9,4.58h-3.8L168.43,10.79z"/>
	<g>
		<path class="st1" d="M13.65,28.02c7.54,0,13.65-6.11,13.65-13.64c0-7.54-6.11-13.64-13.65-13.64C6.11,0.73,0,6.84,0,14.38
			C0,21.91,6.11,28.02,13.65,28.02z"/>
		<path class="st2" d="M13.89,26.75c7.35,0,13.3-5.95,13.3-13.3c0-7.34-5.96-13.3-13.3-13.3c-7.35,0-13.3,5.95-13.3,13.3
			C0.58,20.8,6.54,26.75,13.89,26.75z"/>
		<path class="st3" d="M3.32,5.38l21.14,16.11"/>
		<path class="st1" d="M31.93,28.16c7.35,0,13.3-5.95,13.3-13.3c0-7.34-5.96-13.3-13.3-13.3c-7.35,0-13.3,5.95-13.3,13.3
			C18.63,22.2,24.58,28.16,31.93,28.16z"/>
		<path class="st2" d="M31.93,27.45c7.35,0,13.3-5.95,13.3-13.3c0-7.34-5.96-13.3-13.3-13.3c-7.35,0-13.3,5.95-13.3,13.3
			C18.63,21.49,24.58,27.45,31.93,27.45z"/>
		<path class="st3" d="M31.93,0.87v26.56"/>
	</g>
</g>
</svg>
