<?xml version="1.0" encoding="utf-8"?>
<!-- Generator: Adobe Illustrator 26.3.1, SVG Export Plug-In . SVG Version: 6.00 Build 0)  -->
<svg version="1.1" id="Layer_1" xmlns="http://www.w3.org/2000/svg" xmlns:xlink="http://www.w3.org/1999/xlink" x="0px" y="0px"
	 viewBox="0 0 195 36" style="enable-background:new 0 0 195 36;" xml:space="preserve">
<style type="text/css">
	.st0{fill:#009948;}
	.st1{fill-rule:evenodd;clip-rule:evenodd;fill:#FFFFFF;}
	.st2{fill:#FFFFFF;}
</style>
<path class="st0" d="M0,7.58C0,3.39,3.39,0,7.58,0h20.84C32.61,0,36,3.39,36,7.58v20.84c0,4.19-3.39,7.58-7.58,7.58H7.58
	C3.39,36,0,32.61,0,28.42V7.58z"/>
<path class="st1" d="M26.53,15.16H9.47c-1.57,0-2.84,1.27-2.84,2.84c0,1.57,1.27,2.84,2.84,2.84h17.05c1.57,0,2.84-1.27,2.84-2.84
	C29.37,16.43,28.1,15.16,26.53,15.16z M9.47,12.32c-3.14,0-5.68,2.54-5.68,5.68s2.54,5.68,5.68,5.68h17.05
	c3.14,0,5.68-2.55,5.68-5.68s-2.54-5.68-5.68-5.68H9.47z"/>
<path class="st1" d="M15.16,9.47v17.05c0,1.57,1.27,2.84,2.84,2.84c1.57,0,2.84-1.27,2.84-2.84V9.47c0-1.57-1.27-2.84-2.84-2.84
	C16.43,6.63,15.16,7.9,15.16,9.47z M12.32,26.53c0,3.14,2.54,5.68,5.68,5.68s5.68-2.54,5.68-5.68V9.47c0-3.14-2.54-5.68-5.68-5.68
	s-5.68,2.54-5.68,5.68V26.53z"/>
<path class="st2" d="M48.09,19.61h0.81c0.1-0.19,0.19-0.43,0.29-0.72c0.1-0.29,0.19-0.61,0.27-0.96c0.09-0.36,0.16-0.74,0.21-1.16
	c0.05-0.42,0.08-0.85,0.08-1.31v-1.18h5.37v5.33h0.87v3.24h-1.73V21h-4.43v1.85h-1.73V19.61z M53.26,19.61v-3.95h-1.81v0.17
	c0,0.42-0.03,0.81-0.08,1.2c-0.04,0.38-0.1,0.74-0.18,1.07c-0.08,0.32-0.16,0.61-0.25,0.87s-0.17,0.48-0.25,0.65H53.26z
	 M60.08,21.17c-0.53,0-1.01-0.08-1.43-0.25c-0.42-0.16-0.79-0.4-1.09-0.7c-0.3-0.31-0.54-0.68-0.7-1.12
	c-0.16-0.43-0.25-0.92-0.25-1.46s0.08-1.02,0.25-1.46c0.16-0.44,0.4-0.81,0.7-1.12c0.3-0.31,0.67-0.55,1.09-0.71
	c0.42-0.17,0.9-0.26,1.43-0.26c0.53,0,1.01,0.09,1.43,0.26c0.43,0.16,0.8,0.4,1.1,0.71c0.3,0.3,0.54,0.68,0.7,1.12
	c0.16,0.43,0.25,0.92,0.25,1.46s-0.08,1.02-0.25,1.46s-0.4,0.81-0.7,1.12c-0.3,0.3-0.67,0.54-1.1,0.7
	C61.08,21.09,60.61,21.17,60.08,21.17z M60.08,19.79c0.31,0,0.57-0.06,0.78-0.18c0.22-0.12,0.39-0.28,0.51-0.48
	c0.13-0.21,0.22-0.44,0.27-0.69c0.05-0.26,0.08-0.52,0.08-0.79s-0.03-0.53-0.08-0.79c-0.05-0.26-0.14-0.49-0.27-0.69
	c-0.12-0.2-0.29-0.36-0.51-0.48c-0.21-0.13-0.47-0.19-0.78-0.19s-0.57,0.07-0.78,0.19c-0.21,0.12-0.38,0.28-0.51,0.48
	c-0.12,0.2-0.21,0.43-0.26,0.69c-0.05,0.26-0.08,0.52-0.08,0.79s0.03,0.53,0.08,0.79c0.05,0.25,0.14,0.48,0.26,0.69
	c0.13,0.2,0.3,0.36,0.51,0.48C59.51,19.73,59.77,19.79,60.08,19.79z M67.96,21.17c-0.65,0-1.19-0.12-1.61-0.36
	c-0.42-0.24-0.76-0.56-1.01-0.95c-0.24-0.39-0.41-0.83-0.51-1.31c-0.1-0.49-0.14-0.97-0.14-1.47c0-0.59,0.03-1.15,0.08-1.69
	c0.05-0.55,0.17-1.04,0.36-1.48c0.19-0.44,0.46-0.82,0.82-1.14c0.36-0.33,0.85-0.58,1.47-0.74c0.19-0.05,0.41-0.09,0.66-0.1
	c0.26-0.02,0.51-0.04,0.74-0.07c0.23-0.03,0.43-0.06,0.59-0.1c0.16-0.05,0.25-0.13,0.26-0.25h1.62c-0.03,0.42-0.13,0.75-0.27,0.99
	c-0.14,0.24-0.34,0.44-0.61,0.59c-0.27,0.14-0.6,0.24-0.99,0.31c-0.39,0.06-0.85,0.12-1.38,0.17c-0.42,0.04-0.77,0.14-1.05,0.3
	c-0.29,0.16-0.52,0.36-0.7,0.6c-0.18,0.23-0.32,0.5-0.42,0.81c-0.09,0.29-0.15,0.61-0.18,0.94h0.04c0.08-0.23,0.19-0.45,0.32-0.68
	c0.15-0.23,0.33-0.43,0.55-0.61c0.22-0.18,0.47-0.33,0.77-0.44c0.29-0.12,0.63-0.18,1.01-0.18c0.42,0,0.82,0.08,1.2,0.25
	c0.38,0.16,0.71,0.4,0.99,0.7c0.28,0.3,0.49,0.67,0.65,1.09c0.16,0.42,0.25,0.88,0.25,1.4c0,0.53-0.08,1.01-0.25,1.43
	c-0.16,0.42-0.39,0.79-0.69,1.09c-0.3,0.29-0.67,0.52-1.1,0.69C68.98,21.09,68.5,21.17,67.96,21.17z M68.09,19.79
	c0.47,0,0.84-0.18,1.11-0.53c0.28-0.36,0.42-0.87,0.42-1.55c0-0.66-0.13-1.17-0.4-1.53c-0.27-0.37-0.65-0.56-1.14-0.56
	c-0.47,0-0.84,0.19-1.1,0.56c-0.27,0.37-0.4,0.89-0.4,1.55c0,0.68,0.13,1.19,0.4,1.55C67.24,19.62,67.61,19.79,68.09,19.79z
	 M72.66,14.28h1.76v0.86h0.03c0.23-0.36,0.51-0.63,0.86-0.79c0.35-0.16,0.73-0.25,1.14-0.25c0.53,0,0.98,0.1,1.36,0.3
	c0.38,0.2,0.7,0.46,0.95,0.79c0.25,0.33,0.44,0.72,0.56,1.16c0.12,0.43,0.18,0.89,0.18,1.36c0,0.45-0.06,0.88-0.18,1.3
	c-0.12,0.42-0.31,0.78-0.56,1.1c-0.24,0.32-0.55,0.58-0.92,0.77c-0.36,0.19-0.79,0.29-1.29,0.29c-0.42,0-0.8-0.08-1.16-0.25
	c-0.35-0.17-0.63-0.42-0.86-0.75H74.5v3.19h-1.85V14.28z M76.05,19.79c0.3,0,0.55-0.06,0.75-0.18c0.21-0.12,0.37-0.28,0.49-0.47
	c0.13-0.2,0.22-0.42,0.27-0.68c0.05-0.26,0.08-0.53,0.08-0.81c0-0.27-0.03-0.53-0.09-0.79c-0.05-0.26-0.14-0.49-0.27-0.69
	c-0.13-0.21-0.3-0.37-0.51-0.49c-0.2-0.13-0.45-0.19-0.74-0.19c-0.3,0-0.56,0.07-0.77,0.19c-0.2,0.12-0.36,0.28-0.49,0.48
	c-0.12,0.2-0.21,0.43-0.26,0.7c-0.05,0.26-0.08,0.52-0.08,0.79c0,0.28,0.03,0.55,0.08,0.81c0.06,0.25,0.15,0.48,0.27,0.68
	c0.13,0.19,0.29,0.35,0.49,0.47C75.49,19.73,75.75,19.79,76.05,19.79z M83.87,21.17c-0.53,0-1.01-0.08-1.43-0.25
	c-0.42-0.16-0.79-0.4-1.09-0.7c-0.3-0.31-0.54-0.68-0.7-1.12c-0.16-0.43-0.25-0.92-0.25-1.46s0.08-1.02,0.25-1.46
	c0.16-0.44,0.4-0.81,0.7-1.12c0.3-0.31,0.67-0.55,1.09-0.71c0.42-0.17,0.9-0.26,1.43-0.26c0.53,0,1.01,0.09,1.43,0.26
	c0.43,0.16,0.8,0.4,1.1,0.71c0.3,0.3,0.54,0.68,0.7,1.12c0.16,0.43,0.25,0.92,0.25,1.46s-0.08,1.02-0.25,1.46
	c-0.16,0.43-0.4,0.81-0.7,1.12c-0.3,0.3-0.67,0.54-1.1,0.7C84.87,21.09,84.4,21.17,83.87,21.17z M83.87,19.79
	c0.31,0,0.57-0.06,0.78-0.18c0.22-0.12,0.39-0.28,0.51-0.48c0.13-0.21,0.22-0.44,0.27-0.69c0.05-0.26,0.08-0.52,0.08-0.79
	s-0.03-0.53-0.08-0.79s-0.14-0.49-0.27-0.69c-0.12-0.2-0.29-0.36-0.51-0.48c-0.21-0.13-0.47-0.19-0.78-0.19
	c-0.31,0-0.57,0.07-0.78,0.19c-0.21,0.12-0.38,0.28-0.51,0.48c-0.12,0.2-0.21,0.43-0.26,0.69c-0.05,0.26-0.08,0.52-0.08,0.79
	s0.03,0.53,0.08,0.79c0.05,0.25,0.14,0.48,0.26,0.69c0.13,0.2,0.3,0.36,0.51,0.48C83.3,19.73,83.56,19.79,83.87,19.79z M88.62,14.28
	h5.07v1.39h-3.22V21h-1.85V14.28z M97.71,21.17c-0.53,0-1.01-0.08-1.43-0.25c-0.42-0.16-0.79-0.4-1.09-0.7
	c-0.3-0.31-0.54-0.68-0.7-1.12c-0.16-0.43-0.25-0.92-0.25-1.46s0.08-1.02,0.25-1.46c0.16-0.44,0.4-0.81,0.7-1.12
	c0.3-0.31,0.67-0.55,1.09-0.71c0.42-0.17,0.9-0.26,1.43-0.26s1.01,0.09,1.43,0.26c0.43,0.16,0.8,0.4,1.1,0.71
	c0.3,0.3,0.54,0.68,0.7,1.12c0.17,0.43,0.25,0.92,0.25,1.46s-0.08,1.02-0.25,1.46c-0.16,0.43-0.4,0.81-0.7,1.12
	c-0.3,0.3-0.67,0.54-1.1,0.7C98.71,21.09,98.23,21.17,97.71,21.17z M97.71,19.79c0.31,0,0.57-0.06,0.78-0.18
	c0.22-0.12,0.39-0.28,0.51-0.48c0.13-0.21,0.22-0.44,0.27-0.69c0.05-0.26,0.08-0.52,0.08-0.79s-0.03-0.53-0.08-0.79
	c-0.05-0.26-0.14-0.49-0.27-0.69c-0.12-0.2-0.29-0.36-0.51-0.48c-0.21-0.13-0.47-0.19-0.78-0.19c-0.31,0-0.57,0.07-0.78,0.19
	c-0.21,0.12-0.38,0.28-0.51,0.48c-0.12,0.2-0.21,0.43-0.26,0.69c-0.05,0.26-0.08,0.52-0.08,0.79s0.03,0.53,0.08,0.79
	c0.05,0.25,0.14,0.48,0.26,0.69c0.13,0.2,0.3,0.36,0.51,0.48C97.13,19.73,97.39,19.79,97.71,19.79z M105.4,19.61h0.81
	c0.1-0.19,0.19-0.43,0.29-0.72c0.1-0.29,0.19-0.61,0.27-0.96c0.09-0.36,0.16-0.74,0.21-1.16s0.08-0.85,0.08-1.31v-1.18h5.37v5.33
	h0.87v3.24h-1.73V21h-4.43v1.85h-1.73V19.61z M110.57,19.61v-3.95h-1.81v0.17c0,0.42-0.03,0.81-0.08,1.2
	c-0.04,0.38-0.1,0.74-0.18,1.07c-0.08,0.32-0.16,0.61-0.25,0.87c-0.09,0.26-0.17,0.48-0.25,0.65H110.57z M114.12,14.28h1.85v2.44
	h2.61v-2.44h1.85V21h-1.85v-2.82h-2.61V21h-1.85V14.28z M123.26,18.48c-0.48-0.08-0.87-0.31-1.17-0.69
	c-0.29-0.38-0.44-0.85-0.44-1.4c0-0.29,0.05-0.57,0.16-0.82c0.11-0.26,0.27-0.49,0.47-0.68c0.2-0.19,0.43-0.34,0.7-0.44
	c0.27-0.11,0.57-0.17,0.9-0.17h4.07V21h-1.85v-2.37h-0.87L123.39,21h-2.26L123.26,18.48z M126.09,15.62h-1.47
	c-0.43,0-0.72,0.08-0.87,0.23c-0.16,0.15-0.23,0.35-0.23,0.6c0,0.26,0.07,0.47,0.22,0.62c0.16,0.16,0.45,0.23,0.88,0.23h1.47V15.62z
	"/>
<path class="st2" d="M156.69,21.14c-0.3,0-0.59-0.03-0.86-0.1c-0.27-0.06-0.51-0.16-0.71-0.31c-0.2-0.16-0.36-0.35-0.48-0.58
	c-0.11-0.24-0.17-0.53-0.17-0.87c0-0.38,0.07-0.69,0.19-0.94c0.13-0.24,0.3-0.44,0.51-0.58c0.22-0.16,0.46-0.27,0.73-0.35
	c0.28-0.08,0.56-0.14,0.85-0.19c0.3-0.06,0.59-0.1,0.86-0.13c0.28-0.03,0.52-0.08,0.73-0.13c0.21-0.06,0.37-0.14,0.49-0.25
	c0.12-0.11,0.18-0.27,0.18-0.48c0-0.24-0.05-0.44-0.14-0.58c-0.09-0.15-0.2-0.26-0.35-0.34c-0.14-0.08-0.3-0.13-0.48-0.16
	c-0.17-0.03-0.35-0.04-0.52-0.04c-0.47,0-0.86,0.09-1.17,0.27c-0.31,0.17-0.48,0.51-0.51,1h-1.1c0.02-0.42,0.1-0.77,0.26-1.05
	c0.16-0.29,0.36-0.52,0.62-0.69c0.26-0.18,0.56-0.31,0.88-0.39c0.34-0.08,0.7-0.12,1.08-0.12c0.3,0,0.6,0.02,0.9,0.06
	c0.3,0.04,0.58,0.13,0.82,0.27c0.24,0.13,0.44,0.32,0.59,0.56c0.15,0.24,0.22,0.56,0.22,0.95v3.46c0,0.26,0.01,0.45,0.04,0.57
	c0.04,0.12,0.14,0.18,0.31,0.18c0.08,0,0.19-0.02,0.34-0.07v0.86c-0.19,0.11-0.46,0.17-0.79,0.17c-0.29,0-0.52-0.08-0.69-0.23
	c-0.16-0.16-0.25-0.43-0.25-0.79c-0.3,0.36-0.66,0.63-1.07,0.79C157.59,21.06,157.16,21.14,156.69,21.14z M156.94,20.18
	c0.36,0,0.68-0.05,0.94-0.14c0.26-0.1,0.47-0.23,0.64-0.38c0.16-0.16,0.29-0.32,0.36-0.49c0.08-0.18,0.12-0.35,0.12-0.51v-1.13
	c-0.14,0.11-0.32,0.19-0.55,0.23c-0.23,0.04-0.46,0.08-0.71,0.12c-0.24,0.03-0.49,0.07-0.74,0.1c-0.25,0.03-0.48,0.1-0.68,0.18
	c-0.2,0.09-0.36,0.21-0.49,0.38c-0.12,0.16-0.18,0.37-0.18,0.65c0,0.18,0.04,0.34,0.1,0.47c0.08,0.12,0.17,0.22,0.29,0.3
	c0.12,0.08,0.26,0.13,0.42,0.17S156.76,20.18,156.94,20.18z M161.81,14.28h5.49V21h-1.1v-5.75h-3.28V21h-1.11V14.28z M170.59,15.25
	h-2.4v-0.97h5.91v0.97h-2.4V21h-1.1V15.25z M177.84,21.14c-0.54,0-1.01-0.09-1.42-0.26c-0.4-0.17-0.73-0.42-1-0.73
	c-0.27-0.31-0.47-0.68-0.61-1.12c-0.13-0.43-0.19-0.91-0.19-1.42c0-0.5,0.08-0.97,0.23-1.39c0.16-0.43,0.37-0.81,0.65-1.12
	c0.29-0.31,0.62-0.55,1-0.73c0.39-0.17,0.82-0.26,1.27-0.26c0.6,0,1.09,0.13,1.48,0.38c0.4,0.24,0.71,0.55,0.95,0.94
	c0.24,0.38,0.41,0.8,0.49,1.25c0.1,0.45,0.13,0.88,0.12,1.29h-5.03c-0.01,0.29,0.03,0.58,0.1,0.84c0.08,0.26,0.2,0.49,0.38,0.7
	c0.17,0.2,0.39,0.36,0.66,0.48c0.27,0.12,0.59,0.18,0.95,0.18c0.47,0,0.85-0.11,1.14-0.32c0.3-0.22,0.5-0.55,0.6-0.99h1.09
	c-0.15,0.76-0.47,1.33-0.98,1.72C179.24,20.96,178.6,21.14,177.84,21.14z M179.65,17c-0.02-0.26-0.08-0.51-0.18-0.74
	c-0.1-0.23-0.23-0.43-0.4-0.6c-0.16-0.17-0.36-0.31-0.6-0.4c-0.22-0.1-0.48-0.16-0.75-0.16c-0.29,0-0.55,0.05-0.78,0.16
	c-0.23,0.1-0.42,0.23-0.59,0.4c-0.16,0.17-0.29,0.38-0.39,0.61c-0.1,0.23-0.15,0.47-0.17,0.73H179.65z M181.96,14.28h1.1v3.21
	l3.08-3.21h1.47l-2.98,2.91l3.33,3.81h-1.42l-2.81-3.2l-0.68,0.66V21h-1.1V14.28z M190.66,21.14c-0.3,0-0.59-0.03-0.86-0.1
	c-0.27-0.06-0.51-0.16-0.71-0.31c-0.2-0.16-0.36-0.35-0.48-0.58c-0.11-0.24-0.17-0.53-0.17-0.87c0-0.38,0.07-0.69,0.2-0.94
	c0.13-0.24,0.3-0.44,0.51-0.58c0.22-0.16,0.46-0.27,0.73-0.35c0.28-0.08,0.56-0.14,0.85-0.19c0.3-0.06,0.59-0.1,0.86-0.13
	c0.28-0.03,0.52-0.08,0.73-0.13c0.21-0.06,0.37-0.14,0.49-0.25c0.12-0.11,0.18-0.27,0.18-0.48c0-0.24-0.05-0.44-0.14-0.58
	c-0.09-0.15-0.2-0.26-0.35-0.34c-0.14-0.08-0.3-0.13-0.48-0.16c-0.17-0.03-0.35-0.04-0.52-0.04c-0.47,0-0.86,0.09-1.17,0.27
	c-0.31,0.17-0.48,0.51-0.51,1h-1.1c0.02-0.42,0.1-0.77,0.26-1.05c0.16-0.29,0.36-0.52,0.62-0.69c0.26-0.18,0.55-0.31,0.88-0.39
	c0.34-0.08,0.7-0.12,1.08-0.12c0.3,0,0.6,0.02,0.9,0.06c0.3,0.04,0.58,0.13,0.82,0.27c0.24,0.13,0.44,0.32,0.58,0.56
	c0.15,0.24,0.22,0.56,0.22,0.95v3.46c0,0.26,0.01,0.45,0.04,0.57c0.03,0.12,0.14,0.18,0.31,0.18c0.08,0,0.19-0.02,0.34-0.07v0.86
	c-0.19,0.11-0.46,0.17-0.79,0.17c-0.29,0-0.52-0.08-0.69-0.23c-0.16-0.16-0.25-0.43-0.25-0.79c-0.3,0.36-0.66,0.63-1.07,0.79
	C191.57,21.06,191.13,21.14,190.66,21.14z M190.91,20.18c0.36,0,0.68-0.05,0.94-0.14c0.26-0.1,0.47-0.23,0.64-0.38
	c0.16-0.16,0.29-0.32,0.36-0.49c0.08-0.18,0.12-0.35,0.12-0.51v-1.13c-0.14,0.11-0.32,0.19-0.55,0.23
	c-0.23,0.04-0.46,0.08-0.72,0.12c-0.24,0.03-0.49,0.07-0.74,0.1c-0.25,0.03-0.48,0.1-0.68,0.18c-0.2,0.09-0.36,0.21-0.49,0.38
	c-0.12,0.16-0.18,0.37-0.18,0.65c0,0.18,0.03,0.34,0.1,0.47c0.08,0.12,0.17,0.22,0.29,0.3c0.12,0.08,0.26,0.13,0.42,0.17
	C190.57,20.16,190.74,20.18,190.91,20.18z"/>
<rect x="141" y="6" class="st2" width="1" height="24"/>
</svg>
