<svg xmlns="http://www.w3.org/2000/svg" aria-hidden="true" style="position:absolute;width:0;height:0;overflow:hidden"><defs><symbol id="icon-bottle" viewBox="0 0 32 32"><path fill="#fff" d="M31.915 16c0 8.79-7.125 15.915-15.915 15.915S.085 24.79.085 16 7.21.085 16 .085 31.915 7.21 31.915 16z" style="fill:var(--color1, #fff)"/><path fill="#9cb2dc" d="M16 32C7.179 32 0 24.821 0 16S7.179 0 16 0s16 7.179 16 16-7.179 16-16 16zM16 .17C7.27.17.17 7.271.17 16S7.271 31.83 16 31.83c8.73 0 15.83-7.101 15.83-15.83S24.729.17 16 .17z" style="fill:var(--color2, #9cb2dc)"/><path fill="#9cb2dc" d="M5.013 5.013h21.974v21.974H5.013V5.013z" style="fill:var(--color2, #9cb2dc)"/><path fill="#9cb2dc" d="M26.987 16c0 6.068-4.919 10.987-10.987 10.987S5.013 22.068 5.013 16C5.013 9.932 9.932 5.013 16 5.013S26.987 9.932 26.987 16z" style="fill:var(--color2, #9cb2dc)"/><path fill="#9db3dd" d="M26.8 16c0 5.965-4.835 10.8-10.8 10.8S5.2 21.965 5.2 16c0-5.965 4.835-10.8 10.8-10.8S26.8 10.035 26.8 16z" style="fill:var(--color3, #9db3dd)"/><path fill="#9db4dd" d="M26.613 16c0 5.862-4.752 10.614-10.614 10.614S5.385 21.862 5.385 16c0-5.862 4.752-10.614 10.614-10.614S26.613 10.138 26.613 16z" style="fill:var(--color4, #9db4dd)"/><path fill="#9db5de" d="M26.427 16c0 5.759-4.668 10.427-10.427 10.427S5.573 21.759 5.573 16c0-5.759 4.668-10.427 10.427-10.427S26.427 10.241 26.427 16z" style="fill:var(--color5, #9db5de)"/><path fill="#9db5de" d="M26.24 16c0 5.655-4.585 10.24-10.24 10.24S5.76 21.655 5.76 16 10.345 5.76 16 5.76 26.24 10.345 26.24 16z" style="fill:var(--color5, #9db5de)"/><path fill="#9eb6df" d="M26.053 16c0 5.552-4.501 10.053-10.053 10.053S5.947 21.552 5.947 16c0-5.552 4.501-10.053 10.053-10.053S26.053 10.448 26.053 16z" style="fill:var(--color6, #9eb6df)"/><path fill="#9eb7df" d="M25.87 16c0 5.451-4.419 9.87-9.87 9.87S6.13 21.451 6.13 16 10.549 6.13 16 6.13s9.87 4.419 9.87 9.87z" style="fill:var(--color7, #9eb7df)"/><path fill="#9eb8e0" d="M25.683 16c0 5.348-4.335 9.684-9.684 9.684S6.315 21.349 6.315 16c0-5.348 4.335-9.684 9.684-9.684s9.684 4.335 9.684 9.684z" style="fill:var(--color8, #9eb8e0)"/><path fill="#9eb8e0" d="M25.497 16a9.497 9.497 0 1 1-18.994 0 9.497 9.497 0 0 1 18.994 0z" style="fill:var(--color8, #9eb8e0)"/><path fill="#9fb9e1" d="M25.31 16c0 5.142-4.168 9.31-9.31 9.31S6.69 21.142 6.69 16 10.858 6.69 16 6.69s9.31 4.168 9.31 9.31z" style="fill:var(--color9, #9fb9e1)"/><path fill="#9fbae1" d="M25.123 16a9.123 9.123 0 1 1-18.246 0 9.123 9.123 0 0 1 18.246 0z" style="fill:var(--color10, #9fbae1)"/><path fill="#9fbbe2" d="M24.937 16c0 4.936-4.001 8.937-8.937 8.937S7.063 20.936 7.063 16c0-4.936 4.001-8.937 8.937-8.937s8.937 4.001 8.937 8.937z" style="fill:var(--color11, #9fbbe2)"/><path fill="#9fbbe2" d="M24.75 16a8.75 8.75 0 1 1-17.5 0 8.75 8.75 0 0 1 17.5 0z" style="fill:var(--color11, #9fbbe2)"/><path fill="#9fbce2" d="M24.567 16c0 4.731-3.835 8.567-8.567 8.567S7.433 20.732 7.433 16c0-4.731 3.835-8.567 8.567-8.567s8.567 3.835 8.567 8.567z" style="fill:var(--color12, #9fbce2)"/><path fill="#a0bde3" d="M24.38 16a8.38 8.38 0 1 1-16.76 0 8.38 8.38 0 0 1 16.76 0z" style="fill:var(--color13, #a0bde3)"/><path fill="#a0bde3" d="M24.193 16a8.193 8.193 0 1 1-16.386 0 8.193 8.193 0 1 1 16.386 0z" style="fill:var(--color13, #a0bde3)"/><path fill="#a0bee4" d="M24.007 16a8.007 8.007 0 1 1-16.014 0 8.007 8.007 0 0 1 16.014 0z" style="fill:var(--color14, #a0bee4)"/><path fill="#a0bfe4" d="M23.82 16a7.82 7.82 0 1 1-15.64 0 7.82 7.82 0 0 1 15.64 0z" style="fill:var(--color15, #a0bfe4)"/><path fill="#a1c0e5" d="M23.633 16a7.633 7.633 0 1 1-15.266 0 7.633 7.633 0 0 1 15.266 0z" style="fill:var(--color16, #a1c0e5)"/><path fill="#a1c0e5" d="M23.447 16a7.447 7.447 0 1 1-14.894 0 7.447 7.447 0 0 1 14.894 0z" style="fill:var(--color16, #a1c0e5)"/><path fill="#a1c1e6" d="M23.263 16a7.263 7.263 0 1 1-14.527 0 7.263 7.263 0 0 1 14.527 0z" style="fill:var(--color17, #a1c1e6)"/><path fill="#a1c2e6" d="M23.077 16a7.077 7.077 0 1 1-14.154 0 7.077 7.077 0 0 1 14.154 0z" style="fill:var(--color18, #a1c2e6)"/><path fill="#a2c3e7" d="M22.89 16a6.89 6.89 0 1 1-13.78 0 6.89 6.89 0 0 1 13.78 0z" style="fill:var(--color19, #a2c3e7)"/><path fill="#a2c3e7" d="M22.703 16a6.703 6.703 0 1 1-13.406 0 6.703 6.703 0 0 1 13.406 0z" style="fill:var(--color19, #a2c3e7)"/><path fill="#a2c4e8" d="M22.517 16a6.517 6.517 0 1 1-13.035 0 6.517 6.517 0 0 1 13.035 0z" style="fill:var(--color20, #a2c4e8)"/><path fill="#a2c5e8" d="M22.33 16a6.33 6.33 0 1 1-12.66 0 6.33 6.33 0 0 1 12.66 0z" style="fill:var(--color21, #a2c5e8)"/><path fill="#a3c6e9" d="M22.143 16a6.143 6.143 0 1 1-12.285 0 6.143 6.143 0 0 1 12.285 0z" style="fill:var(--color22, #a3c6e9)"/><path fill="#a3c6e9" d="M21.96 16a5.96 5.96 0 1 1-11.92 0 5.96 5.96 0 1 1 11.92 0z" style="fill:var(--color22, #a3c6e9)"/><path fill="#a3c7ea" d="M21.773 16a5.773 5.773 0 1 1-11.546 0 5.773 5.773 0 0 1 11.546 0z" style="fill:var(--color23, #a3c7ea)"/><path fill="#a3c8ea" d="M21.587 16a5.587 5.587 0 1 1-11.174 0 5.587 5.587 0 0 1 11.174 0z" style="fill:var(--color24, #a3c8ea)"/><path fill="#a4c9eb" d="M21.4 16a5.4 5.4 0 1 1-10.8 0 5.4 5.4 0 0 1 10.8 0z" style="fill:var(--color25, #a4c9eb)"/><path fill="#a4c9eb" d="M21.213 16a5.213 5.213 0 1 1-10.426 0 5.213 5.213 0 0 1 10.426 0z" style="fill:var(--color25, #a4c9eb)"/><path fill="#a4caeb" d="M21.027 16a5.027 5.027 0 1 1-10.055 0 5.027 5.027 0 0 1 10.055 0z" style="fill:var(--color26, #a4caeb)"/><path fill="#a4cbec" d="M20.84 16a4.84 4.84 0 1 1-9.68 0 4.84 4.84 0 0 1 9.68 0z" style="fill:var(--color27, #a4cbec)"/><path fill="#a5ccec" d="M20.657 16a4.657 4.657 0 1 1-9.314 0 4.657 4.657 0 0 1 9.314 0z" style="fill:var(--color28, #a5ccec)"/><path fill="#a5cded" d="M20.47 16a4.47 4.47 0 1 1-8.94 0 4.47 4.47 0 0 1 8.94 0z" style="fill:var(--color29, #a5cded)"/><path fill="#a5cded" d="M20.283 16a4.283 4.283 0 1 1-8.566 0 4.283 4.283 0 0 1 8.566 0z" style="fill:var(--color29, #a5cded)"/><path fill="#a5ceee" d="M20.097 16a4.097 4.097 0 1 1-8.193 0 4.097 4.097 0 0 1 8.193 0z" style="fill:var(--color30, #a5ceee)"/><path fill="#a6cfee" d="M19.91 16a3.91 3.91 0 1 1-7.821-.001A3.91 3.91 0 0 1 19.91 16z" style="fill:var(--color31, #a6cfee)"/><path fill="#a6d0ef" d="M19.723 16a3.723 3.723 0 1 1-7.446 0 3.723 3.723 0 0 1 7.446 0z" style="fill:var(--color32, #a6d0ef)"/><path fill="#a6d0ef" d="M19.537 16a3.537 3.537 0 1 1-7.074 0 3.537 3.537 0 0 1 7.074 0z" style="fill:var(--color32, #a6d0ef)"/><path fill="#a7d1f0" d="M19.35 16a3.35 3.35 0 1 1-6.7 0 3.35 3.35 0 0 1 6.7 0z" style="fill:var(--color33, #a7d1f0)"/><path fill="#a7d2f0" d="M19.167 16a3.167 3.167 0 1 1-6.334 0 3.167 3.167 0 0 1 6.334 0z" style="fill:var(--color34, #a7d2f0)"/><path fill="#a7d3f1" d="M18.98 16a2.98 2.98 0 1 1-5.96 0 2.98 2.98 0 0 1 5.96 0z" style="fill:var(--color35, #a7d3f1)"/><path fill="#a7d3f1" d="M18.793 16a2.793 2.793 0 1 1-5.586 0 2.793 2.793 0 0 1 5.586 0z" style="fill:var(--color35, #a7d3f1)"/><path fill="#a8d4f2" d="M18.607 16a2.607 2.607 0 1 1-5.214 0 2.607 2.607 0 0 1 5.214 0z" style="fill:var(--color36, #a8d4f2)"/><path fill="#a8d5f2" d="M18.42 16a2.42 2.42 0 1 1-4.839.001A2.42 2.42 0 0 1 18.42 16z" style="fill:var(--color37, #a8d5f2)"/><path fill="#a8d6f3" d="M18.233 16a2.233 2.233 0 1 1-4.467 0 2.233 2.233 0 0 1 4.467 0z" style="fill:var(--color38, #a8d6f3)"/><path fill="#a9d7f3" d="M18.047 16a2.047 2.047 0 1 1-4.094 0 2.047 2.047 0 0 1 4.094 0z" style="fill:var(--color39, #a9d7f3)"/><path fill="#a9d7f4" d="M17.863 16a1.863 1.863 0 1 1-3.726 0 1.863 1.863 0 0 1 3.726 0z" style="fill:var(--color40, #a9d7f4)"/><path fill="#a9d8f4" d="M17.677 16a1.677 1.677 0 1 1-3.354 0 1.677 1.677 0 0 1 3.354 0z" style="fill:var(--color41, #a9d8f4)"/><path fill="#a9d9f5" d="M17.49 16a1.49 1.49 0 1 1-2.98 0 1.49 1.49 0 0 1 2.98 0z" style="fill:var(--color42, #a9d9f5)"/><path fill="#aadaf5" d="M17.303 16a1.303 1.303 0 1 1-2.606 0 1.303 1.303 0 0 1 2.606 0z" style="fill:var(--color43, #aadaf5)"/><path fill="#aadbf6" d="M17.117 16a1.117 1.117 0 1 1-2.234 0 1.117 1.117 0 0 1 2.234 0z" style="fill:var(--color44, #aadbf6)"/><path fill="#aadcf6" d="M16.93 16a.93.93 0 1 1-1.859.001A.93.93 0 0 1 16.93 16z" style="fill:var(--color45, #aadcf6)"/><path fill="#aaddf7" d="M16.743 16a.743.743 0 1 1-1.486 0 .743.743 0 0 1 1.486 0z" style="fill:var(--color46, #aaddf7)"/><path fill="#abdef8" d="M16.56 16a.56.56 0 1 1-1.12 0 .56.56 0 0 1 1.12 0z" style="fill:var(--color47, #abdef8)"/><path fill="#abdff9" d="M16.373 16a.373.373 0 1 1-.746 0 .373.373 0 0 1 .746 0z" style="fill:var(--color48, #abdff9)"/><path fill="#abe1fa" d="M16.187 16a.187.187 0 0 1-.374 0 .187.187 0 0 1 .374 0z" style="fill:var(--color49, #abe1fa)"/><path fill="#0076c0" d="m3.204 21.644.387.149c.034.014.081.027.143.048s.126.037.193.054l.21.051c.071.017.136.031.197.044.105.02.2.027.278.024s.149-.024.214-.058c.085-.044.139-.109.16-.197s.003-.18-.048-.282c-.041-.078-.098-.153-.176-.227s-.16-.132-.248-.177l.353-.224a1.55 1.55 0 0 1 .478.564c.051.095.081.19.098.285a.618.618 0 0 1-.115.502.734.734 0 0 1-.234.183.904.904 0 0 1-.343.095 1.66 1.66 0 0 1-.21-.003c-.078-.007-.163-.02-.255-.034-.075-.014-.146-.027-.207-.044s-.122-.031-.183-.044c-.061-.017-.126-.037-.19-.061l-.234-.085.441.862-.339.177-.726-1.412.356-.19zM6.259 23.735c-.014-.075-.034-.146-.061-.214s-.058-.126-.095-.177a.572.572 0 0 0-.21-.187c-.078-.034-.156-.051-.238-.048s-.163.024-.244.058c-.081.037-.16.081-.234.132a.448.448 0 0 1 .261.055.573.573 0 0 1 .2.176c.068.095.109.193.126.288s.01.19-.017.282c-.027.088-.071.173-.136.255s-.139.153-.227.214c-.2.143-.397.197-.594.163-.193-.034-.367-.156-.509-.36-.095-.132-.146-.261-.153-.384s.014-.241.061-.353c.048-.112.122-.217.217-.316a2.285 2.285 0 0 1 .736-.509c.149-.064.299-.105.445-.112.149-.01.292.014.428.071s.261.163.37.319a1.446 1.446 0 0 1 .224.468l-.35.177zm-1.504-.095c-.105.075-.176.163-.21.265s-.02.19.037.268c.054.078.132.119.227.122s.197-.034.299-.105c.109-.078.176-.163.207-.261s.017-.187-.041-.268c-.054-.078-.132-.119-.227-.122s-.19.031-.292.102zM5.359 25.069l.411.034c.037.003.085.003.149.003s.129 0 .2-.003l.217-.01c.074-.003.139-.01.2-.014.109-.014.197-.031.272-.058a.525.525 0 0 0 .187-.115.293.293 0 0 0 .098-.234.417.417 0 0 0-.126-.255.84.84 0 0 0-.234-.166 1.073 1.073 0 0 0-.285-.098l.275-.316a1.635 1.635 0 0 1 .618.401c.075.078.136.16.176.244s.068.17.075.255a.55.55 0 0 1-.041.255.701.701 0 0 1-.17.241c-.041.041-.088.078-.139.109a1.076 1.076 0 0 1-.367.139 8.22 8.22 0 0 1-.255.041c-.078.007-.146.014-.21.017l-.19.01c-.061.003-.129 0-.2-.003s-.153-.01-.248-.017l.669.699-.278.265-1.1-1.147.295-.275zM7.762 27.289c.064-.037.126-.081.187-.136s.122-.119.183-.2c.061-.078.136-.18.214-.299l.268-.397.889.594-.862 1.286.207.139-.424.631-.177-.119.322-.479-1.113-.743-.322.479-.176-.119.424-.631.16.109c.081-.041.156-.078.221-.115zm1.463-.404-.54-.36-.197.295c-.112.17-.227.316-.343.438s-.251.214-.407.275l.726.485.76-1.134zM10.95 28.535c-.058.122-.129.227-.214.312s-.177.149-.275.19a.753.753 0 0 1-.641-.027.84.84 0 0 1-.268-.197.76.76 0 0 1-.173-.601 1.14 1.14 0 0 1 .105-.356c.061-.126.132-.234.214-.319s.173-.149.272-.19a.734.734 0 0 1 .312-.054.922.922 0 0 1 .621.302.71.71 0 0 1 .143.278.786.786 0 0 1 .014.322c-.02.112-.054.227-.109.339zm-1.263-.588c-.044.095-.071.187-.085.278s-.01.177.01.258a.56.56 0 0 0 .102.214.544.544 0 0 0 .425.203c.082 0 .16-.02.231-.058s.143-.088.207-.156.119-.153.166-.248c.048-.098.078-.193.092-.285s.01-.173-.007-.251c-.017-.078-.051-.146-.102-.207s-.115-.112-.193-.149a.534.534 0 0 0-.475-.01c-.149.071-.272.21-.37.411zM12.283 29.363a.482.482 0 0 1-.329.325c-.075.024-.156.034-.241.031s-.17-.017-.251-.044c-.061-.02-.112-.041-.16-.058s-.088-.041-.122-.061c-.037-.02-.068-.044-.098-.068l-.088-.068.085-.197a.934.934 0 0 0 .431.275c.132.044.251.048.353.01s.166-.102.197-.19c.037-.119.027-.217-.034-.288a.646.646 0 0 0-.305-.183l-.146-.048.058-.173.143.044c.126.041.234.048.326.024s.156-.088.187-.19c.014-.048.017-.092.007-.129s-.031-.071-.061-.102-.065-.054-.105-.075a1.054 1.054 0 0 0-.122-.051c-.044-.014-.092-.024-.139-.027s-.095-.007-.139-.007a1.226 1.226 0 0 0-.224.021l.048-.2c.058-.003.129-.007.217-.007s.193.017.312.054c.078.027.153.058.214.092.065.037.115.078.153.126a.357.357 0 0 1 .058.353.403.403 0 0 1-.177.224.467.467 0 0 1-.299.064v.003a.545.545 0 0 1 .244.214.374.374 0 0 1 .01.305zM14.401 28.548l-.309 1.704-.21-.037.255-1.409-.01-.003-1.14 1.249-.251-.044.309-1.704.21.037L13 29.75h.01l1.14-1.249.251.048zM17.028 28.609l-.597 1.853-.068.21c-.024.074-.054.143-.095.204s-.085.112-.143.156a.373.373 0 0 1-.21.064c-.034 0-.068 0-.105-.003s-.071-.01-.102-.02l.017-.19c.02.01.041.017.065.024.02.003.048.007.081.003.061 0 .112-.02.153-.054s.075-.075.102-.126c.027-.051.048-.102.064-.156l.048-.156-.655-1.775.238-.007.523 1.466.468-1.487.217-.007zM20.518 28.772c.034.126.051.244.051.356s-.014.217-.044.309-.078.17-.143.234a.523.523 0 0 1-.248.136c-.092.024-.177.027-.255.007s-.146-.058-.204-.109h-.003l.221.859-.207.054-.221-.859h-.003c-.024.075-.068.139-.126.193s-.132.095-.224.119a.51.51 0 0 1-.285 0c-.088-.024-.17-.071-.241-.136s-.136-.149-.19-.248a1.374 1.374 0 0 1-.129-.336c-.034-.126-.051-.248-.054-.36s.01-.214.037-.305c.031-.092.078-.166.143-.231a.578.578 0 0 1 .53-.136.407.407 0 0 1 .105.048.375.375 0 0 1 .085.061h.003l-.251-.967.207-.054.251.967h.003a.681.681 0 0 1 .041-.095c.02-.031.044-.061.071-.092a.432.432 0 0 1 .23-.135c.109-.027.207-.031.295-.007s.17.068.238.132a.992.992 0 0 1 .183.248c.058.105.102.221.132.346zm-1.334-.088c-.054-.075-.119-.132-.193-.173s-.156-.048-.248-.024a.337.337 0 0 0-.193.119c-.044.058-.075.122-.092.2s-.02.156-.014.244.02.17.041.251c.02.081.051.163.085.241s.078.149.129.207.109.102.177.129a.362.362 0 0 0 .227.01c.092-.024.16-.071.204-.143s.071-.153.085-.241l-.207-.821zm1.116.146c-.02-.081-.051-.163-.085-.241s-.078-.149-.129-.207a.486.486 0 0 0-.177-.129.354.354 0 0 0-.224-.01c-.092.024-.16.071-.204.143s-.071.153-.085.244l.21.818c.054.071.119.129.19.17s.156.048.248.024a.374.374 0 0 0 .197-.119.497.497 0 0 0 .092-.2c.017-.075.02-.156.014-.244s-.027-.166-.048-.248zM22.551 28.799l-.193.088-.642-1.409-.611.278.18.397c.031.064.061.139.095.217s.061.156.088.238.044.16.058.238c.014.078.014.153.003.224s-.034.132-.071.19a.379.379 0 0 1-.17.136.531.531 0 0 1-.153.048l-.068-.183a.346.346 0 0 0 .126-.034.233.233 0 0 0 .115-.105.32.32 0 0 0 .017-.197 1.574 1.574 0 0 0-.088-.322 8.667 8.667 0 0 0-.2-.479l-.204-.445 1.001-.455.716 1.575zM24.031 27.913l-.163-.255a.569.569 0 0 1-.082.34.932.932 0 0 1-.109.143.65.65 0 0 1-.139.112c-.139.088-.272.119-.404.095s-.238-.102-.319-.231a.464.464 0 0 1-.031-.485c.078-.163.244-.326.496-.485.027-.017.058-.037.085-.051l.085-.051-.014-.024c-.095-.149-.19-.241-.282-.265-.092-.027-.2 0-.329.081a.857.857 0 0 0-.333.387l-.119-.19a1.16 1.16 0 0 1 .387-.39c.156-.098.302-.136.438-.109s.251.115.35.268l.472.747c.027.044.058.088.088.129s.061.085.095.126l-.173.109zm-.479-.729-.054.031c-.017.01-.037.02-.054.034a3.073 3.073 0 0 0-.19.132 1.102 1.102 0 0 0-.18.173c-.051.064-.085.132-.102.207s0 .149.051.227c.051.081.119.129.207.143s.177-.01.275-.071a.52.52 0 0 0 .231-.329c.01-.051.014-.098.003-.146s-.024-.095-.041-.139-.041-.088-.068-.136a.457.457 0 0 1-.078-.126zM24.76 27.394l-1.11-1.327.163-.136.513.611.122-1.14.21-.177-.139 1.164 1.327.098-.227.19-1.263-.098.567.679-.163.136zM26.532 24.465c.102.092.18.19.238.295s.092.21.102.316c.01.105 0 .21-.037.316a.822.822 0 0 1-.177.292.777.777 0 0 1-.268.197c-.098.044-.2.064-.305.061s-.214-.024-.319-.071a1.157 1.157 0 0 1-.309-.204c-.105-.095-.183-.193-.244-.299s-.092-.21-.105-.316c-.01-.105.003-.21.041-.312s.098-.2.183-.295a.801.801 0 0 1 .285-.21c.102-.041.204-.061.309-.058s.207.031.312.081c.102.054.2.122.295.207zm-.93 1.039a.985.985 0 0 0 .241.163c.085.037.166.061.251.064s.16-.007.234-.034a.53.53 0 0 0 .33-.584.656.656 0 0 0-.092-.241 1.109 1.109 0 0 0-.19-.231.924.924 0 0 0-.248-.17c-.085-.041-.163-.061-.241-.068s-.153.007-.227.037a.568.568 0 0 0-.197.143c-.122.136-.173.285-.146.451s.122.316.285.468zM26.742 22.659l.119-.177 1.436.967-.119.177-.686-.458-.516.767.686.462-.119.177-1.436-.967.119-.177.601.404.516-.767-.601-.407zM26.427 21.695l.115-.217.258.139-.115.217-.258-.139zm.668.34.102-.19 1.527.815-.102.19-1.527-.815zM26.882 20.701l1.263.563-.054.119-1.117-.499.085.285-.109.034-.115-.397.048-.105zM2.583 18.922a.596.596 0 0 1 .082-.444.615.615 0 0 1 .374-.261.595.595 0 0 1 .607.238c.044.064.075.136.095.217s.02.16.003.234-.044.149-.085.214a.605.605 0 0 1-.37.258c-.078.02-.16.017-.234.003s-.149-.041-.214-.085a.615.615 0 0 1-.166-.16.634.634 0 0 1-.092-.214zM2.308 17.022c-.007-.081.003-.16.031-.234s.065-.139.115-.197a.576.576 0 0 1 .638-.176.593.593 0 0 1 .34.292c.038.071.058.146.061.227s-.003.16-.027.234a.604.604 0 0 1-.292.343.5.5 0 0 1-.224.061.528.528 0 0 1-.234-.031.595.595 0 0 1-.407-.519zM2.301 15.097a.572.572 0 0 1 .204-.407.597.597 0 0 1 .838.051.597.597 0 0 1 .146.431c-.007.081-.027.156-.061.227s-.081.132-.139.18a.597.597 0 0 1-.428.146.622.622 0 0 1-.227-.061.597.597 0 0 1-.295-.336.472.472 0 0 1-.037-.231zM2.559 13.193c.017-.078.048-.153.095-.217s.102-.119.166-.16a.6.6 0 0 1 .444-.085.58.58 0 0 1 .214.092.578.578 0 0 1 .242.607c-.017.078-.048.153-.092.217s-.098.119-.163.16a.596.596 0 0 1-.661-.01c-.065-.044-.119-.098-.16-.163s-.071-.136-.088-.214-.014-.149.003-.227zM3.693 9.734l-.387.061-.136-.879.2-.363 2.07 1.151-.234.421-1.609-.893.095.502zM7.501 7.101 6.408 6.079l-.003.003.699 1.446-.166.176-1.49-.597-.003.003 1.093 1.022-.146.156-1.266-1.181.234-.251 1.507.618.003-.003-.72-1.463.234-.251L7.65 6.938l-.149.163zM9.079 5.824l-.17.129-.94-1.229-.533.407.265.346a5.3 5.3 0 0 1 .278.404c.044.071.078.146.112.221.031.075.048.146.054.217s-.003.139-.027.2a.4.4 0 0 1-.136.17.636.636 0 0 1-.139.081l-.105-.163a.38.38 0 0 0 .115-.061.206.206 0 0 0 .088-.129c.014-.051.003-.115-.027-.197s-.081-.176-.156-.295-.176-.258-.302-.421l-.295-.387.876-.669 1.042 1.375zM11.197 3.571l.078.166-1.541.713-.078-.166 1.541-.713zM12.552 3.703c.098.017.193.024.288.024s.18-.01.261-.027c.146-.031.255-.088.326-.166s.095-.173.071-.278a.273.273 0 0 0-.197-.221c-.109-.031-.265-.024-.472.02-.024.007-.048.01-.068.017s-.041.014-.061.017l-.081-.377c.017 0 .037-.003.058-.007s.044-.007.065-.014c.054-.014.115-.027.183-.051.068-.02.129-.051.187-.088s.102-.081.136-.136a.239.239 0 0 0 .024-.19c-.017-.085-.068-.143-.153-.176s-.19-.034-.326-.007c-.041.01-.085.02-.132.037-.044.017-.088.034-.129.054s-.081.044-.119.064-.068.048-.095.071l-.109-.373c.092-.058.187-.109.292-.153.102-.041.204-.075.305-.095.098-.02.2-.034.299-.034s.19.014.278.044c.085.031.16.078.221.146s.105.156.132.268a.593.593 0 0 1-.034.387.523.523 0 0 1-.282.255c.075-.01.143-.003.207.02a.525.525 0 0 1 .296.254.797.797 0 0 1 .075.193c.027.126.024.238-.014.336s-.092.18-.166.251c-.075.071-.163.129-.268.176s-.214.081-.322.105c-.105.024-.207.037-.305.044s-.2.01-.305.007l-.065-.401zM14.493 3.309c.102.037.19.061.268.075a.993.993 0 0 0 .224.014c.153-.01.272-.054.356-.132s.122-.176.112-.299a.348.348 0 0 0-.163-.288.655.655 0 0 0-.4-.081 1.344 1.344 0 0 0-.411.088l-.054-1.266 1.364-.085.024.363-.92.058.02.485a.506.506 0 0 1 .075-.017l.095-.01c.119-.007.227 0 .329.027a.661.661 0 0 1 .455.353.858.858 0 0 1 .085.333c.007.126-.007.238-.041.339s-.092.187-.166.261a.84.84 0 0 1-.278.173 1.28 1.28 0 0 1-.38.078c-.095.007-.193.007-.292 0s-.197-.017-.289-.037l-.014-.431zM17.324 3.771l.265-1.711.21.034-.122.787.937-.662.272.041-.964.665.801 1.062-.292-.044-.76-1.015-.136.876-.21-.034zM18.715 4.725l.713-2.339.197.061-.102.309a.682.682 0 0 1 .295-.18.603.603 0 0 1 .353.017c.119.037.214.092.285.166s.122.156.153.251a.808.808 0 0 1 .037.305 1.346 1.346 0 0 1-.19.634c-.054.095-.122.176-.2.241s-.166.109-.265.129a.606.606 0 0 1-.326-.02.674.674 0 0 1-.299-.18.56.56 0 0 1-.146-.316l-.299.981-.207-.061zm1.389-1.962c-.163-.051-.309-.027-.438.068s-.227.248-.292.465c-.024.081-.037.163-.041.248s.007.166.027.241.061.143.115.204a.474.474 0 0 0 .217.129c.149.044.282.02.404-.075s.21-.251.275-.462c.068-.221.078-.397.034-.536a.432.432 0 0 0-.302-.282zM21.597 5.054l.129-.275a.562.562 0 0 1-.329.116.758.758 0 0 1-.35-.075c-.146-.068-.244-.166-.295-.288s-.041-.255.024-.394c.081-.17.21-.265.39-.285s.407.031.679.16c.031.014.061.031.088.044.031.014.058.031.088.044l.01-.024c.075-.163.102-.288.075-.38s-.109-.17-.248-.234a.903.903 0 0 0-.506-.075l.095-.204c.092-.003.183.007.272.027s.177.051.261.088c.166.078.278.183.329.312s.037.275-.041.438l-.377.798c-.02.048-.044.095-.061.143-.02.048-.037.098-.054.146l-.18-.081zm.356-.798c-.017-.01-.037-.017-.054-.027l-.058-.031c-.061-.027-.132-.058-.214-.088s-.163-.051-.244-.058c-.081-.007-.156 0-.227.024s-.126.078-.166.163a.295.295 0 0 0-.01.251.398.398 0 0 0 .207.193.512.512 0 0 0 .401.02.367.367 0 0 0 .126-.075.883.883 0 0 0 .173-.238.958.958 0 0 1 .068-.136zM23.213 4.185l-.852 1.293-.18-.119.95-1.446 1.127.743-.95 1.446-.18-.119.852-1.293-.767-.506zM24.316 5.855c-.058.068-.105.139-.139.217s-.051.156-.054.238a.579.579 0 0 0 .044.234.69.69 0 0 0 .255.281c.037.023.075.044.115.064.041.02.078.034.115.051a.423.423 0 0 0 .109.027l-.126.176a1.664 1.664 0 0 1-.251-.129 1.466 1.466 0 0 1-.214-.153c-.092-.078-.156-.166-.2-.261s-.068-.193-.064-.299c0-.105.024-.21.071-.316.048-.109.115-.214.207-.316a1.1 1.1 0 0 1 .282-.234c.098-.058.2-.092.302-.105a.7.7 0 0 1 .58.184c.16.143.234.305.224.492s-.102.38-.275.577l-.071.078-.91-.808zm.862.543c.058-.068.105-.136.136-.204s.048-.136.051-.204a.414.414 0 0 0-.143-.343c-.112-.098-.241-.139-.384-.122s-.278.088-.404.214l.743.658zM25.785 8.54l-.139-.163 1.178-1.005-.434-.513-.333.282a2.847 2.847 0 0 1-.183.149 3.764 3.764 0 0 1-.204.149c-.071.048-.143.088-.214.122s-.143.058-.214.068c-.071.01-.139.003-.204-.017s-.122-.064-.177-.129a.67.67 0 0 1-.088-.136l.156-.115c.01.034.034.071.068.112.037.044.085.071.136.081s.115-.003.193-.037c.078-.034.173-.092.285-.173s.248-.19.404-.326l.373-.316.713.838-1.317 1.127zM27.238 9.731a.597.597 0 0 1-.238.095.437.437 0 0 1-.214-.014.5.5 0 0 1-.19-.112.782.782 0 0 1-.163-.193l-.356-.56 1.463-.927.115.18-.557.353.255.397c.044.068.078.139.098.21s.031.143.024.21a.455.455 0 0 1-.237.359zm-.129-.187a.31.31 0 0 0 .156-.224c.01-.092-.024-.197-.102-.326l-.217-.343-.597.377.231.363c.078.119.16.19.251.21s.183.003.278-.058zM29.2 12.212a.61.61 0 0 1-.054.451c-.037.065-.088.126-.149.173a.584.584 0 0 1-.661.055.593.593 0 0 1 .122-1.089.534.534 0 0 1 .234-.02.61.61 0 0 1 .509.431zM29.597 14.092a.59.59 0 0 1-.507.669.622.622 0 0 1-.438-.115.57.57 0 0 1-.153-.17c-.041-.068-.064-.143-.078-.224s-.007-.16.014-.234a.57.57 0 0 1 .268-.36.595.595 0 0 1 .893.435zM29.729 16.024c0 .081-.017.16-.051.231s-.078.132-.132.187c-.054.051-.119.095-.193.126a.583.583 0 0 1-.645-.136.595.595 0 0 1-.126-.19c-.031-.071-.044-.149-.041-.231s.017-.16.051-.231a.612.612 0 0 1 .319-.313c.071-.031.149-.044.231-.041s.16.017.231.051c.071.031.136.075.187.129s.095.119.126.193.044.143.044.224zM29.594 17.928c-.01.081-.037.156-.078.221s-.092.122-.153.17a.609.609 0 0 1-.662.034c-.068-.041-.122-.092-.17-.153s-.081-.129-.098-.204c-.02-.075-.024-.156-.014-.234s.037-.156.078-.221a.57.57 0 0 1 .153-.17.61.61 0 0 1 .438-.112c.081.01.156.037.221.078a.57.57 0 0 1 .17.153.588.588 0 0 1 .116.438z" style="fill:var(--color50, #0076c0)"/><path fill="#fff" d="m18.909 15.321-.726-.862a.105.105 0 0 1 .081-.173.106.106 0 0 0 .105-.105v-1.263c0-.054.041-.098.092-.105l.126-.014a.104.104 0 0 0 .092-.105v-2.688a.106.106 0 0 0-.105-.105h-.781a.102.102 0 0 1-.102-.088l-.631-3.584a.105.105 0 0 0-.102-.088h-1.914a.102.102 0 0 0-.102.088l-.631 3.584a.105.105 0 0 1-.102.088h-.781a.106.106 0 0 0-.105.105v2.688c0 .054.041.098.092.105l.126.014a.104.104 0 0 1 .092.105v1.263c0 .058.048.105.105.105.088 0 .139.105.081.173l-.726.862a1.524 1.524 0 0 0-.363.988v8.251c0 .282.231.513.513.513h5.519a.515.515 0 0 0 .513-.513v-8.251a1.54 1.54 0 0 0-.363-.988z" style="fill:var(--color1, #fff)"/><path fill="#0076c0" d="M11.866 15.043c0 .17-.027.319-.081.445-.054.129-.129.238-.227.326s-.21.156-.343.204a1.412 1.412 0 0 1-.434.081v.343h-.523v-.343c-.156-.007-.302-.034-.434-.081s-.248-.115-.343-.204c-.098-.088-.173-.197-.227-.326s-.081-.278-.081-.445c0-.173.027-.326.081-.455s.129-.234.227-.319.21-.146.343-.19.275-.068.434-.078v-.255h.523v.258c.156.007.302.034.434.078s.244.109.343.19.17.19.227.319c.054.126.081.278.081.451zm-1.605-.621c-.17.02-.299.078-.387.17s-.136.241-.136.438c0 .19.044.343.129.455s.217.177.394.2v-1.263zm1.045.611c0-.2-.044-.346-.136-.438s-.221-.149-.387-.17v1.263c.177-.024.309-.088.394-.2.088-.112.129-.265.129-.455zM13.475 16.401V14.86h-.496v.546c0 .115-.007.238-.024.36s-.048.231-.092.329-.109.18-.19.241-.187.095-.316.095c-.037 0-.085-.003-.139-.01a3.245 3.245 0 0 1-.139-.02l.02-.367c.01.003.031.003.061.007s.051.003.061.003c.061 0 .112-.02.146-.061s.061-.092.081-.156a.915.915 0 0 0 .034-.204c.003-.075.007-.146.007-.217v-.927h1.49v1.924h-.506zM15.661 16.401l-.01-.285a.518.518 0 0 1-.255.241.87.87 0 0 1-.356.071c-.2 0-.36-.054-.475-.16a.575.575 0 0 1-.173-.438c0-.414.322-.621.964-.621.041 0 .081 0 .119.003.037 0 .088.003.16.01v-.01c0-.275-.143-.414-.424-.414-.102 0-.204.02-.309.058s-.2.088-.288.153l-.017-.424c.092-.048.2-.081.322-.102s.238-.031.339-.031a1.115 1.115 0 0 1 .441.078.725.725 0 0 1 .187.115.554.554 0 0 1 .16.281c.01.034.017.071.02.119.003.044.01.098.01.16.003.061.003.136.003.221v.275c0 .075 0 .143.003.2 0 .061.003.115.003.173s.003.109.007.16c.003.051.003.109.007.163h-.438zm-.024-.873c-.034-.003-.061-.003-.078-.003h-.061c-.414 0-.621.109-.621.326 0 .071.027.132.085.176.054.048.129.068.214.068a.448.448 0 0 0 .407-.268.45.45 0 0 0 .041-.122c.007-.044.01-.102.014-.177zM18.305 14.479l-.713.913.804 1.008h-.638l-.662-.93v.93h-.499v-1.924h.499v.882l.631-.882h.577zM20.548 15.454c0 .149-.024.285-.071.407a.897.897 0 0 1-.52.523 1.104 1.104 0 0 1-.407.071c-.146 0-.282-.024-.404-.075s-.227-.119-.316-.207a.941.941 0 0 1-.207-.319 1.137 1.137 0 0 1-.071-.411c0-.153.024-.288.071-.414s.115-.231.207-.322c.088-.088.193-.16.316-.21s.258-.075.411-.075c.149 0 .285.024.407.075s.227.119.312.21a.896.896 0 0 1 .204.326c.044.126.068.268.068.421zm-1.48-.011c0 .075.007.149.024.224s.044.143.081.2.085.109.146.146a.412.412 0 0 0 .221.058.417.417 0 0 0 .353-.173c.088-.115.129-.272.129-.472 0-.197-.041-.35-.126-.462s-.2-.17-.346-.17c-.092 0-.17.02-.231.058s-.109.085-.146.146-.064.129-.081.207c-.014.081-.024.16-.024.238zM22.211 16.401v-.811h-.764v.811h-.499v-1.924h.499v.723h.764v-.723h.499v1.924h-.499zM11.075 19.503c.102.041.204.071.305.092s.197.031.285.031a.647.647 0 0 0 .387-.102.33.33 0 0 0 .143-.282.307.307 0 0 0-.16-.285c-.109-.061-.275-.088-.509-.088-.027 0-.054 0-.078.003s-.048.003-.071.007v-.424c.02.003.041.003.065.007h.071c.061 0 .132-.003.21-.01s.149-.024.221-.051a.492.492 0 0 0 .177-.112.272.272 0 0 0 .071-.197c0-.095-.041-.17-.122-.224s-.197-.081-.346-.081c-.048 0-.098.003-.149.01s-.102.017-.153.027a1.61 1.61 0 0 0-.143.044.667.667 0 0 0-.119.054l-.031-.424a1.946 1.946 0 0 1 1.025-.095.814.814 0 0 1 .288.112c.085.051.153.122.204.207s.078.193.078.319c0 .163-.041.299-.126.407s-.207.18-.363.21a.504.504 0 0 1 .377.214.73.73 0 0 1 .132.424c0 .143-.031.261-.092.356s-.139.173-.238.234-.207.102-.329.126-.248.037-.37.037c-.115 0-.231-.007-.339-.024a3.074 3.074 0 0 1-.329-.064l.027-.458zM13.078 18.675c0-.153.014-.305.037-.462s.071-.299.139-.424c.068-.126.163-.231.282-.312s.272-.122.458-.122c.193 0 .35.041.472.126.119.085.21.193.275.326s.109.278.132.441a3.229 3.229 0 0 1 0 .947c-.02.16-.068.299-.136.424s-.16.231-.282.309a.833.833 0 0 1-.462.119.807.807 0 0 1-.472-.126c-.119-.085-.21-.19-.278-.326s-.109-.282-.129-.441a2.912 2.912 0 0 1-.037-.479zm.536.047v.153c0 .061.007.126.014.193.007.068.017.136.034.204a.75.75 0 0 0 .065.187c.027.058.065.102.105.136s.092.051.156.051c.255 0 .384-.312.384-.94v-.16a1.998 1.998 0 0 0-.041-.414.782.782 0 0 0-.065-.193.41.41 0 0 0-.105-.139c-.044-.037-.098-.054-.163-.054s-.119.017-.163.054a.47.47 0 0 0-.109.143c-.027.058-.051.126-.068.197s-.027.143-.034.217-.01.139-.01.207v.16zM18.172 20.005v-1.49h-.014l-.404 1.49h-.56l-.404-1.49h-.01v1.49h-.462v-1.924h.75l.407 1.524h.007l.431-1.524h.72v1.924h-.462zM20.345 20.005v-1.541h-.496v.546c0 .115-.007.238-.024.36s-.048.231-.092.329-.109.18-.19.241-.187.095-.316.095c-.037 0-.085-.003-.139-.01a3.245 3.245 0 0 1-.139-.02l.02-.367c.01.003.031.003.061.007s.051.003.061.003c.061 0 .112-.02.146-.061s.061-.092.081-.156c.017-.061.031-.129.034-.204s.007-.146.007-.217v-.927h1.49v1.924h-.506z" style="fill:var(--color50, #0076c0)"/></symbol><symbol id="icon-check_mark" viewBox="0 0 34 32"><path d="m0 15.84 10.163 6.089c1.007-1.328 2.06-2.609 3.159-3.891s2.289-2.609 3.617-4.029l3.479-3.617c1.373-1.373 2.884-2.747 4.486-4.166l3.754-3.296c1.19-1.007 2.381-1.923 3.571-2.838L33.877 0l-3.388 3.433-3.433 3.708c-2.381 2.793-4.349 5.356-5.997 7.737-1.419 1.923-3.205 4.578-5.402 7.966l-2.701 4.258-1.419 2.426L10.026 32C8.607 28.933 5.265 24.126 0 17.534V15.84z"/></symbol><symbol id="icon-face-01" viewBox="0 0 25 32"><path d="M22.775 18.943c.092-.046.172-.092.264-.149.975-.608 1.537-1.537 1.537-2.547 0-.987-.539-1.882-1.48-2.478-.677-.425-1.044-.883-1.285-1.606a10.013 10.013 0 0 0-9.523-6.85c-4.245 0-8.043 2.708-9.454 6.735-.287.803-.677 1.308-1.354 1.733-.941.597-1.48 1.492-1.469 2.478.011 1.033.643 2.008 1.664 2.616.069.046.149.08.229.115.287.126.643.298.815.757.677 1.847 1.778 3.362 3.35 4.635l.31.252-.321.241c-1.905 1.411-3.224 3.293-4.05 5.725l-.034.08c-.264.769-.275 1.033.161 1.228.195.08.356.103.47.057.229-.103.379-.493.505-.849l.046-.115c.723-1.916 1.778-3.442 3.213-4.658.849-.711 1.664-.906 2.627-.62 2.191.643 4.383.654 6.494.034 1.033-.298 1.916-.103 2.777.643 1.411 1.205 2.455 2.742 3.178 4.681.138.379.287.769.516.872.103.046.241.034.425-.034.47-.184.459-.459.195-1.274-.826-2.455-2.123-4.326-3.993-5.725l-.321-.241.31-.252c1.606-1.297 2.662-2.777 3.247-4.521.195-.551.597-.769.952-.964zm-1.904.195c-1.331 3.89-4.062 5.817-8.376 5.909h-.275c-4.039 0-6.93-1.939-8.364-5.611l-.034-.08c-.321-.815-.551-1.411-1.457-1.526-.78-.103-1.159-.849-1.182-1.549-.034-.872.47-1.537 1.239-1.664.838-.138.998-.585 1.251-1.526 1.056-3.958 4.509-6.632 8.594-6.632h.011c4.062 0 7.504 2.662 8.559 6.643.241.918.413 1.4 1.262 1.515.769.103 1.285.792 1.262 1.652-.023.883-.516 1.503-1.285 1.618-.7.115-.952.493-1.205 1.251z"/><path d="M9.615 16.683c-.011.333.172 1.262-.803 1.297-1.09.034-.941-.929-.952-1.664a5.948 5.948 0 0 1 .023-.895c.057-.574.367-.929.975-.895.551.034.746.425.769.929 0 .298-.011.597-.011 1.228zM14.916 16.178c.092-.665-.252-1.698.929-1.618 1.09.069.826 1.056.838 1.755.011.734.138 1.71-.952 1.652-1.079-.057-.734-1.079-.815-1.79zM12.896 6.288a.533.533 0 0 1-.195-.034c-2.398-.803-3.213-2.8-2.777-4.36C10.314.506 11.553-.24 12.93.058c1.526.344 1.767 1.354 1.79 1.767.057.78-.413 1.549-1.079 1.801-.516.195-1.067.023-1.423-.447a.627.627 0 0 1 .126-.883.627.627 0 0 1 .883.126c.126 0 .252-.218.252-.482-.011-.39-.447-.574-.815-.654-.895-.195-1.377.367-1.537.952-.264.964.229 2.249 1.962 2.834a.63.63 0 0 1 .402.792.628.628 0 0 1-.597.425zM16.189 21.433c-.218-.998-.929-1.813-1.813-2.065a2.311 2.311 0 0 0-1.423.046 1.81 1.81 0 0 1-1.342 0 2.234 2.234 0 0 0-1.423-.046c-.883.252-1.595 1.067-1.813 2.065-.207.975.011 1.985.585 2.696.482.597 1.159.929 1.859.929h2.903c.7 0 1.388-.344 1.859-.929.597-.723.815-1.733.608-2.696z"/><path fill="#fff" d="M12.288 27.101a3.009 3.009 0 0 1-3.006-3.006c0-1.664 1.354-3.006 3.006-3.006s3.006 1.354 3.006 3.006a3.017 3.017 0 0 1-3.006 3.006zm0-4.945c-1.067 0-1.939.872-1.939 1.939s.872 1.939 1.939 1.939 1.939-.872 1.939-1.939-.872-1.939-1.939-1.939z" style="fill:var(--color1, #fff)"/></symbol><symbol id="icon-face-02" viewBox="0 0 29 32"><path d="M27.686 10.111c-.809-.502-1.226-1.03-1.507-1.887A12.043 12.043 0 0 0 14.732 0C9.634 0 5.062 3.248 3.371 8.089c-.331.956-.797 1.544-1.593 2.047-1.14.711-1.789 1.814-1.777 3.015.012 1.25.772 2.439 2.022 3.174.086.049.184.098.282.135.331.147.735.343.931.87.821 2.206 2.133 4.032 4.02 5.564l.319.257-.319.245c-2.28 1.704-3.873 3.946-4.866 6.876l-.037.098c-.294.87-.368 1.287.221 1.544.257.11.453.135.613.061.294-.123.478-.613.637-1.042l.049-.135c.87-2.28 2.12-4.093 3.824-5.54.993-.846 1.949-1.066 3.088-.723 2.635.772 5.258.784 7.795.037 1.201-.355 2.243-.123 3.26.76 1.679 1.434 2.917 3.26 3.787 5.564.172.466.355.944.65 1.078.147.061.331.049.552-.037.637-.245.576-.674.27-1.605-.993-2.954-2.549-5.196-4.78-6.876L22 23.211l.306-.257c1.924-1.556 3.199-3.334 3.897-5.429.221-.65.686-.895 1.103-1.128.11-.061.208-.11.319-.172 1.177-.735 1.863-1.863 1.863-3.101-.012-1.201-.662-2.304-1.802-3.015zm-1.25 4.927c-.882.135-1.189.601-1.507 1.532-1.569 4.62-4.829 6.912-9.952 7.023h-.319c-4.792 0-8.224-2.304-9.927-6.667l-.037-.086c-.392-.993-.674-1.716-1.789-1.863-.895-.123-1.324-.98-1.36-1.789-.024-1.03.551-1.802 1.446-1.936 1.042-.159 1.238-.76 1.544-1.875 1.25-4.706 5.356-7.868 10.209-7.88h.012c4.829 0 8.91 3.174 10.172 7.893.294 1.115.503 1.716 1.556 1.863.882.123 1.483.907 1.446 1.912-.049 1.017-.613 1.74-1.495 1.875z"/><path d="M14.768 20.492c-.797 0-1.458-.319-1.985-.882-.343-.38-.502-.821-.135-1.262.38-.441.833-.368 1.213.012.576.564 1.128.576 1.704.012.38-.368.821-.527 1.226-.086.441.478.233.968-.147 1.36-.515.515-1.14.821-1.875.846zM11.386 13.494c-.012.294.147 1.079-.686 1.103-.931.024-.797-.797-.821-1.422a3.994 3.994 0 0 1 .024-.76c.049-.49.306-.797.833-.76.466.037.637.368.65.797v1.042zM18.053 13.065c.086-.576-.221-1.458.797-1.385.931.061.699.907.711 1.507.012.625.11 1.471-.809 1.409-.931-.049-.637-.919-.699-1.532zM8.052 7.684a.628.628 0 0 1-.625-.588.64.64 0 0 1 .588-.674c4.093-.233 6.042-3.321 6.116-3.444a.632.632 0 0 1 .858-.208.622.622 0 0 1 .208.858c-.098.159-2.353 3.787-7.121 4.044 0 .012-.012.012-.024.012zM10.405 9.204a.637.637 0 0 1-.625-.588.631.631 0 0 1 .601-.662c4.927-.27 7.341-4.118 7.366-4.155.184-.294.564-.392.858-.208s.392.564.208.858c-.11.184-2.758 4.437-8.371 4.755h-.037z"/></symbol><symbol id="icon-face-03" viewBox="0 0 29 32"><path d="M14.347 25.832c-5.379-.012-8.968-2.418-11.029-7.439-.21-.518-.518-.777-1.036-.987C.913 16.851.16 15.765.135 14.31c-.012-1.48.716-2.578 2.072-3.158.58-.247.827-.58.975-1.16.185-.716.419-1.48.839-2.072.678-.95.271-1.283-.567-1.69-.987-.481-1.9-1.11-2.837-1.702-.74-.469-.876-.999-.074-1.53C2.085 1.974 3.639.975 5.379.321 7.192-.357 8.697.05 9.857 1.616c.37.506.654.592 1.234.407a10.894 10.894 0 0 1 6.612-.012c.604.185.925.16 1.345-.419C20.146.062 21.663-.332 23.415.297c1.789.641 3.38 1.665 4.947 2.726.715.481.678 1.024-.037 1.468-1.061.666-2.134 1.332-3.232 1.937-.555.308-.79.567-.382 1.16.234.308.407.678.543 1.049.419 1.246.888 2.245 2.183 3.059 2.146 1.332 1.604 4.589-.74 5.675-.469.21-.851.382-1.073.95-2.048 5.181-5.601 7.525-11.275 7.513zM5.65 12.348c-.358 0-.703.012-1.061 0s-.703-.074-1.061-.062c-1.049.025-1.801.716-1.924 1.715-.123 1.012.407 1.986 1.406 2.146.95.148 1.258.691 1.542 1.493 1.357 3.8 3.972 6.193 8.055 6.674 5.354.617 10.288-1.073 11.966-7.204.16-.592.53-.827 1.086-.888.678-.086 1.16-.469 1.456-1.061.703-1.394-.247-2.862-1.949-2.874-3.281-.037-6.106-.999-8.154-3.713-.321-.419-.506-.321-.814-.025-2.924 2.862-6.55 3.874-10.547 3.8zm8.771-9.424c-4.416.025-8.475 2.961-9.758 7.056-.16.518-.37.975.518.999 4.157.123 7.87-.876 10.708-4.145.802-.913 1.086-.876 1.727.173 1.246 2.023 3.072 3.22 5.379 3.664.407.074.938.308 1.246-.025.333-.358-.049-.814-.185-1.197-1.468-3.898-5.379-6.538-9.635-6.526zm12.41.789c-1.283-.901-2.517-1.591-3.824-2.097-.999-.395-1.924-.234-2.689.58-.358.382-.444.691.123.987.975.518 1.813 1.221 2.554 2.048.308.345.617.419 1.024.197.925-.506 1.887-.95 2.813-1.715zm-24.833.074c.913.53 1.69.925 2.393 1.419.752.53 1.283.382 1.875-.296.481-.555 1.135-.95 1.702-1.431.308-.259.938-.271.851-.827-.074-.53-.567-.827-1.036-1.036a2.13 2.13 0 0 0-1.715-.049c-1.394.518-2.689 1.234-4.071 2.22z"/><path d="M14.433 21.255c-1.012-.049-1.937-.419-2.628-1.258-.296-.358-.469-.777-.049-1.147.358-.321.703-.136 1.049.136 1.468 1.16 1.9 1.16 3.343-.012.37-.308.728-.518 1.123-.086.345.37.173.728-.111 1.049-.715.802-1.591 1.258-2.726 1.32zM9.166 14.211c.21-.567-.345-1.591.678-1.604 1.098-.012.716 1.024.716 1.641s.37 1.678-.703 1.653c-1.098-.025-.469-1.11-.691-1.69zM18.344 14.199c.173-.592-.321-1.579.678-1.604 1.024-.025.691.975.654 1.542-.037.629.506 1.752-.666 1.739-1.073 0-.456-1.098-.666-1.678zM11.485 25.795c.099-.345.382-.234.604-.185a9.682 9.682 0 0 0 4.786-.049c.234-.062.506-.16.629.16.111.296-.111.456-.333.592-.827.53-1.715.802-2.652.753a4.61 4.61 0 0 1-2.751-.79c-.16-.111-.345-.247-.284-.481zM26.042 32c1.258 0 1.493-.345 1.123-1.53-.567-1.764-1.764-2.874-3.516-3.417-1.234-.382-2.48-.703-3.713-1.073-.432-.123-.888-.197-.987-.79l-8.894.037c-.086.456-.432.567-.802.666-1.32.382-2.64.728-3.948 1.135-1.653.506-2.825 1.554-3.417 3.195-.493 1.369-.234 1.752 1.197 1.752l.37-1.53c.432-1.049 1.16-1.604 2.085-1.924.74-.259 1.517-.419 2.27-.678 1.468-.493 2.788-.703 4.342.173 1.838 1.036 3.886.666 5.699-.432.543-.333 1.024-.407 1.641-.21 1.258.407 2.554.728 3.824 1.123.975.296 1.739.876 2.233 1.949L26.042 32z"/></symbol><symbol id="icon-face-04" viewBox="0 0 32 32"><path d="M31.051 26.141c0-1.602.009-3.195 0-4.797-.009-1.184-.427-1.758-1.541-2.141-.4-.139-.801-.279-1.21-.409-.853-.279-1.584-.653-2.559.017-.888.609-2.081.479-2.968-.305-.461-.4-.783-.035-1.166.026-.453.061-1.071.627-1.306-.078-.244-.731.627-.583 1.01-.827.348-.218.966-.061 1.018-.705.044-.618.026-1.132-.635-1.558-1.132-.714-1.776-1.854-1.924-3.186-.139-1.297-.192-2.612.096-3.9.601-2.699 2.524-3.7 5.145-3.291.966.148 1.584.914 1.741 1.941.174 1.193.453 1.462 1.654 1.462.653 0 .949.261.958.879.009.931.07 1.872-.017 2.794-.139 1.489-.897 2.672-2.15 3.482-.583.366-.374.87-.409 1.349-.035.488.383.514.688.618.679.235 1.367.444 2.046.688.47.174.67.104.67-.461-.017-2.96.035-5.919-.026-8.879-.052-2.716-2.115-4.683-4.84-4.727-.853-.017-1.715-.087-2.551.087-2.237.453-3.839 2.411-3.865 4.762-.026 2.429-.009 4.849-.009 7.277 0 .366.078.844-.461.853s-.479-.461-.479-.827c0-2.481-.026-4.962.009-7.434.044-2.934 2.272-5.345 5.206-5.641 1.14-.113 2.298-.148 3.421.096 2.725.592 4.544 2.916 4.561 5.806.017 3.064.009 6.128 0 9.193 0 .444.061.818.357 1.184.357.444.505.992.505 1.567v10.159c0 .348.044.775-.444.783-.548.017-.496-.444-.496-.818-.026-1.68-.026-3.36-.026-5.04zM20.649 10.533c0 .4-.017.801 0 1.201.122 1.941 1.68 3.517 3.595 3.647a3.887 3.887 0 0 0 4.091-3.073c.183-.844.078-1.697.104-2.542.009-.305-.157-.383-.435-.435-1.515-.261-1.993-.749-2.211-2.255-.078-.557-.322-1.027-.862-1.114-1.689-.279-3.221-.061-3.97 1.906-.331.853-.348 1.758-.313 2.664zm5.153 6.268c.113-.453-.07-.705-.766-.514-.427.122-.897.061-1.341-.044-.174-.044-.418-.113-.427.174-.009.461-.226 1.036.148 1.367.557.496 1.28.392 1.959.192.557-.157.383-.618.427-1.175zM0 25.123c0-1.941-.009-3.891 0-5.832.009-1.61.766-2.672 2.281-3.203.958-.331 1.924-.635 2.881-.966.287-.096.644-.104.662-.557.017-.383-.104-.618-.435-.853-1.941-1.332-4.022-5.754-3.865-8.104C1.698 3.04 3.195 1.134 5.65.394a8.607 8.607 0 0 1 5.197.035c2.968.949 4.561 3.543 3.996 6.668-.374 2.072-1.471 3.865-2.585 5.615-.287.444-.74.775-1.201 1.036-.339.183-.392.444-.392.792 0 .4.27.47.557.557.81.261 1.619.531 2.429.81.313.104.644.252.505.67-.131.409-.479.348-.801.244-.427-.139-.853-.305-1.288-.435-.801-.235-1.454-.592-2.394.078-1.018.731-2.368.557-3.421-.305-.279-.226-.487-.226-.783-.131-.931.322-1.872.618-2.803.94-1.21.418-1.706 1.097-1.706 2.385-.009 3.839 0 7.678 0 11.508 0 .209.009.427-.009.635-.017.305-.165.522-.496.505-.279-.017-.409-.218-.435-.488-.017-.183-.017-.366-.017-.557v-5.832zM9.149 5.441l-.104-.052c.017.035.044.07.061.104.409 1.288.252 1.48-1.158 1.367-1.184-.104-2.324-.366-3.369-.931-.453-.244-.592-.122-.644.348-.139 1.114-.131 2.237-.044 3.351.148 2.089 1.854 3.761 3.943 3.97 2.037.2 4.039-1.106 4.579-3.108.392-1.454.279-2.96.087-4.448-.035-.244-.087-.505-.427-.418-1.001.252-1.959-.044-2.925-.183zm-1.123.435c-.017-.487-.34-.81-.47-1.201-.087-.235-.122-.47.096-.662.191-.174.392-.096.601-.026.496.183.992.383 1.506.54.801.244 1.628.418 2.42.035.653-.313.923-.044 1.097.557.235.853.305 1.732.357 2.742.844-2.124.27-4.344-1.341-5.615C10.203.609 6.573.54 4.388 2.037 2.455 3.369 2.055 6.285 2.882 7.704c.035-.853.078-1.68.322-2.481.252-.827.435-.905 1.175-.47 1.114.662 2.298 1.097 3.647 1.123zm.244 9.993c.357.026.749-.052 1.106-.235.427-.209.392-.618.322-.975-.078-.427-.427-.191-.644-.157a4.717 4.717 0 0 1-1.819-.044c-.348-.078-.47.044-.479.4-.017.688.4 1.001 1.515 1.01z"/><path d="M3.099 26.098v-5.032c0-.374-.026-.844.496-.836s.461.488.461.862v10.063c0 .374.044.844-.487.827s-.47-.488-.47-.853c-.009-1.671 0-3.351 0-5.032zM27.952 26.873c0-1.41-.009-2.82 0-4.231 0-.366-.061-.844.488-.836.54.009.47.479.47.844v8.548c0 .348.035.775-.444.801-.548.026-.514-.435-.514-.801-.009-1.454 0-2.89 0-4.326zM24.548 14.459c-.444.009-.827-.078-1.166-.305-.218-.139-.357-.322-.226-.601.122-.261.357-.339.601-.235.522.218 1.018.252 1.541.017.235-.113.488-.078.618.183.139.287.017.514-.244.67-.357.2-.749.287-1.123.27zM22.842 10.899c0 .418.044.888-.461.905-.592.017-.479-.505-.479-.879 0-.357-.104-.844.427-.853.592-.026.488.488.514.827zM26.246 10.855c.017-.339-.035-.775.461-.766.609.009.47.522.488.897s.026.853-.496.818c-.566-.044-.427-.575-.453-.949zM8.252 12.631c-.505-.035-1.027-.139-1.489-.427-.252-.157-.409-.357-.235-.653.139-.244.357-.331.609-.191.74.4 1.462.392 2.202.009.252-.131.47-.061.609.183.165.296.017.505-.235.662-.435.261-.923.383-1.462.418zM6.39 8.723c-.044.348.131.888-.461.914-.609.026-.487-.505-.487-.879s-.131-.905.444-.931c.592-.026.479.496.505.897zM11.029 8.74c-.035.374.122.914-.488.888-.583-.017-.444-.548-.453-.923-.009-.366-.078-.836.453-.853.618-.009.453.514.488.888zM15.713 26.873c-.392 0-.749-.104-1.088-.279-.2-.104-.313-.27-.235-.488.087-.244.305-.261.496-.157.566.287 1.106.27 1.663-.009.174-.087.366-.078.47.122.113.218.026.392-.174.505a2.39 2.39 0 0 1-1.132.305zM14.155 23.913c-.026.252.087.644-.366.644-.4 0-.348-.357-.348-.627 0-.287-.07-.67.366-.67.392 0 .339.357.348.653zM18.011 23.913c-.035.244.104.644-.357.653-.4 0-.357-.348-.357-.618 0-.287-.061-.67.357-.679.4-.017.348.34.357.644z"/><path d="M16.279 20.649c.453 1.053.357 1.201-.679 1.166-.958-.035-1.863-.252-2.699-.731-.427-.252-.557-.113-.644.313-.2 1.062-.096 2.141-.087 3.203.017 1.924 1.567 3.369 3.543 3.378s3.517-1.436 3.56-3.351c.017-.653 0-1.314.009-1.967 0-.505.017-1.01-.165-1.489-.07-.174-.104-.418-.383-.34-.81.235-1.593.026-2.455-.183zM9.776 31.948c-.757 0-.897-.2-.635-.923.313-.862.931-1.419 1.793-1.68.688-.218 1.384-.4 2.081-.601.191-.052.374-.113.418-.357.052-.261-.139-.34-.296-.453-1.018-.757-1.619-1.767-1.741-3.029-.035-.374-.244-.653-.392-.958-.357-.731-.627-1.489-.757-2.298-.044-.261 0-.505.287-.575.305-.07.409.139.479.409.078.313.052.653.348 1.045 0-.836.139-1.532.461-2.194.209-.427.453-.531.87-.252.696.461 1.462.783 2.307.897.444.061.531-.07.305-.444a3.748 3.748 0 0 1-.209-.409c-.087-.192-.113-.383.061-.54.148-.139.313-.104.488-.044.496.174.984.357 1.489.496.557.157 1.123.183 1.663-.078.357-.174.566-.052.749.27.4.731.54 1.515.505 2.333.27.044.244-.165.287-.287.94-2.733-.74-5.223-3.752-5.554-.366-.044-.74-.035-1.114-.061-.244-.017-.435-.122-.427-.4 0-.279.209-.374.444-.383 4.022-.148 6.651 2.629 5.667 6.416-.07.252-.148.505-.252.74-.427.923-.888 1.828-1.088 2.855-.157.801-.723 1.436-1.375 1.95-.165.131-.366.235-.322.514.052.313.287.348.514.418.653.192 1.306.366 1.95.566.914.287 1.55.87 1.845 1.793.2.618.07.801-.592.801l-.261-.801c-.252-.566-.653-.87-1.175-1.027-.67-.209-1.349-.374-2.011-.592-.322-.104-.575-.07-.862.113-.958.583-2.037.775-3.003.226-.818-.461-1.506-.357-2.289-.087-.392.131-.801.218-1.193.357-.488.165-.87.461-1.097 1.01l-.165.818zm6.015-2.594c.487.026.958-.113 1.393-.4.113-.07.226-.157.174-.313-.061-.165-.209-.113-.331-.087a5.224 5.224 0 0 1-2.516.026c-.122-.026-.27-.087-.322.096-.035.122.061.2.157.261.435.296.905.435 1.445.418z"/><path d="M16.07 15.922c-4.022-.148-6.651 2.629-5.667 6.416l.818-.026c-.94-2.733.74-5.223 3.752-5.554.366-.044.74-.035 1.114-.061.244-.017.435-.122.427-.4 0-.279-.2-.366-.444-.374z"/></symbol><symbol id="icon-logo_dobrogo_dnia"><path fill="#009948" d="M0 6.738A6.734 6.734 0 0 1 6.738 0h18.524A6.734 6.734 0 0 1 32 6.738v18.524A6.734 6.734 0 0 1 25.262 32H6.738A6.734 6.734 0 0 1 0 25.262V6.738z" style="fill:var(--color52, #009948)"/><path fill="#fff" d="M23.582 13.476A2.51 2.51 0 0 1 26.098 16a2.522 2.522 0 0 1-2.524 2.524H8.418c-1.396 0-2.524-1.129-2.524-2.524s1.129-2.524 2.524-2.524h15.164zM8.418 10.951c-2.791 0-5.049 2.258-5.049 5.049s2.258 5.049 5.049 5.049h15.156c2.791 0 5.049-2.267 5.049-5.049s-2.258-5.049-5.049-5.049H8.418z" style="fill:var(--color1, #fff)"/><path fill="#fff" d="M13.476 8.418c0-1.396 1.129-2.524 2.524-2.524s2.524 1.129 2.524 2.524v15.156c0 1.396-1.129 2.524-2.524 2.524s-2.524-1.129-2.524-2.524V8.418zm-2.525 15.164c0 2.791 2.258 5.049 5.049 5.049s5.049-2.258 5.049-5.049V8.418c0-2.791-2.258-5.049-5.049-5.049s-5.049 2.258-5.049 5.049v15.164zM42.747 17.431h.72c.089-.169.169-.382.258-.64s.169-.542.24-.853c.08-.32.142-.658.187-1.031s.071-.756.071-1.164v-1.049h4.773v4.738h.773v2.88h-1.538v-1.644h-3.938v1.644h-1.538v-2.88zm4.595 0V13.92h-1.609v.151c0 .373-.027.72-.071 1.067a7.386 7.386 0 0 1-.16.951c-.071.284-.142.542-.222.773s-.151.427-.222.578h2.284zm6.062 1.387c-.471 0-.898-.071-1.271-.222a2.764 2.764 0 0 1-.969-.622 2.775 2.775 0 0 1-.622-.996c-.142-.382-.222-.818-.222-1.298s.071-.907.222-1.298c.142-.391.356-.72.622-.996s.596-.489.969-.631c.373-.151.8-.231 1.271-.231s.898.08 1.271.231c.382.142.711.356.978.631a2.7 2.7 0 0 1 .622.996c.142.382.222.818.222 1.298s-.071.907-.222 1.298-.356.72-.622.996c-.267.267-.596.48-.978.622-.382.151-.8.222-1.271.222zm0-1.227c.276 0 .507-.053.693-.16a1.16 1.16 0 0 0 .453-.427c.116-.187.196-.391.24-.613.044-.231.071-.462.071-.702s-.027-.471-.071-.702a1.68 1.68 0 0 0-.24-.613 1.174 1.174 0 0 0-.453-.427c-.187-.116-.418-.169-.693-.169s-.507.062-.693.169a1.297 1.297 0 0 0-.453.427c-.107.178-.187.382-.231.613s-.071.462-.071.702.027.471.071.702c.044.222.124.427.231.613.116.178.267.32.453.427s.418.16.693.16zm7.005 1.227c-.578 0-1.058-.107-1.431-.32s-.676-.498-.898-.844a3.632 3.632 0 0 1-.453-1.164 6.44 6.44 0 0 1-.124-1.307c0-.524.027-1.022.071-1.502.044-.489.151-.924.32-1.316s.409-.729.729-1.013c.32-.293.756-.516 1.307-.658a2.75 2.75 0 0 1 .587-.089c.231-.018.453-.036.658-.062s.382-.053.524-.089c.142-.044.222-.116.231-.222h1.44c-.027.373-.116.667-.24.88s-.302.391-.542.524c-.24.124-.533.213-.88.276-.347.053-.756.107-1.227.151-.373.036-.684.124-.933.267-.258.142-.462.32-.622.533-.16.204-.284.444-.373.72-.08.258-.133.542-.16.836h.036c.071-.204.169-.4.284-.604.133-.204.293-.382.489-.542s.418-.293.684-.391c.258-.107.56-.16.898-.16.373 0 .729.071 1.067.222.338.142.631.356.88.622s.436.596.578.969c.142.373.222.782.222 1.244 0 .471-.071.898-.222 1.271a2.744 2.744 0 0 1-.613.969 2.953 2.953 0 0 1-.978.613c-.4.116-.827.187-1.307.187zm.115-1.227c.418 0 .747-.16.987-.471.249-.32.373-.773.373-1.378 0-.587-.116-1.04-.356-1.36-.24-.329-.578-.498-1.013-.498-.418 0-.747.169-.978.498-.24.329-.356.791-.356 1.378 0 .604.116 1.058.356 1.378.231.302.56.453.987.453zm4.063-4.898h1.564v.764h.027c.204-.32.453-.56.764-.702s.649-.222 1.013-.222c.471 0 .871.089 1.209.267s.622.409.844.702c.222.293.391.64.498 1.031.107.382.16.791.16 1.209 0 .4-.053.782-.16 1.156s-.276.693-.498.978a2.35 2.35 0 0 1-.818.684c-.32.169-.702.258-1.147.258-.373 0-.711-.071-1.031-.222a1.958 1.958 0 0 1-.764-.667h-.027v2.836h-1.644v-8.071zm3.013 4.898c.267 0 .489-.053.667-.16.187-.107.329-.249.436-.418.116-.178.196-.373.24-.604s.071-.471.071-.72c0-.24-.027-.471-.08-.702a1.68 1.68 0 0 0-.24-.613 1.26 1.26 0 0 0-.453-.436c-.178-.116-.4-.169-.658-.169-.267 0-.498.062-.684.169-.178.107-.32.249-.436.427a1.832 1.832 0 0 0-.231.622 3.722 3.722 0 0 0-.071.702c0 .249.027.489.071.72.053.222.133.427.24.604.116.169.258.311.436.418.196.107.427.16.693.16zm6.951 1.227c-.471 0-.898-.071-1.271-.222a2.764 2.764 0 0 1-.969-.622 2.775 2.775 0 0 1-.622-.996c-.142-.382-.222-.818-.222-1.298s.071-.907.222-1.298c.142-.391.356-.72.622-.996s.596-.489.969-.631c.373-.151.8-.231 1.271-.231s.898.08 1.271.231c.382.142.711.356.978.631a2.7 2.7 0 0 1 .622.996c.142.382.222.818.222 1.298s-.071.907-.222 1.298c-.142.382-.356.72-.622.996-.267.267-.596.48-.978.622-.382.151-.8.222-1.271.222zm0-1.227c.276 0 .507-.053.693-.16a1.16 1.16 0 0 0 .453-.427c.116-.187.196-.391.24-.613.044-.231.071-.462.071-.702s-.027-.471-.071-.702-.124-.436-.24-.613a1.174 1.174 0 0 0-.453-.427c-.187-.116-.418-.169-.693-.169s-.507.062-.693.169a1.297 1.297 0 0 0-.453.427c-.107.178-.187.382-.231.613s-.071.462-.071.702.027.471.071.702c.044.222.124.427.231.613.116.178.267.32.453.427s.418.16.693.16zm4.222-4.898h4.507v1.236h-2.862v4.738h-1.644v-5.973zm8.08 6.125c-.471 0-.898-.071-1.271-.222a2.764 2.764 0 0 1-.969-.622 2.775 2.775 0 0 1-.622-.996c-.142-.382-.222-.818-.222-1.298s.071-.907.222-1.298c.142-.391.356-.72.622-.996s.596-.489.969-.631c.373-.151.8-.231 1.271-.231s.898.08 1.271.231c.382.142.711.356.978.631a2.7 2.7 0 0 1 .622.996c.151.382.222.818.222 1.298s-.071.907-.222 1.298c-.142.382-.356.72-.622.996-.267.267-.596.48-.978.622a3.442 3.442 0 0 1-1.271.222zm0-1.227c.276 0 .507-.053.693-.16a1.16 1.16 0 0 0 .453-.427c.116-.187.196-.391.24-.613.044-.231.071-.462.071-.702s-.027-.471-.071-.702a1.68 1.68 0 0 0-.24-.613 1.174 1.174 0 0 0-.453-.427c-.187-.116-.418-.169-.693-.169s-.507.062-.693.169a1.297 1.297 0 0 0-.453.427c-.107.178-.187.382-.231.613s-.071.462-.071.702.027.471.071.702c.044.222.124.427.231.613.116.178.267.32.453.427.178.107.409.16.693.16zm6.836-.16h.72c.089-.169.169-.382.258-.64s.169-.542.24-.853c.08-.32.142-.658.187-1.031s.071-.756.071-1.164v-1.049h4.773v4.738h.773v2.88h-1.538v-1.644h-3.938v1.644h-1.538v-2.88zm4.595 0V13.92h-1.609v.151c0 .373-.027.72-.071 1.067a7.386 7.386 0 0 1-.16.951c-.071.284-.142.542-.222.773s-.151.427-.222.578h2.284zm3.156-4.738h1.644v2.169h2.32v-2.169h1.644v5.973h-1.644v-2.507h-2.32v2.507h-1.644v-5.973zm8.124 3.734a1.623 1.623 0 0 1-1.04-.613c-.258-.338-.391-.756-.391-1.244a1.803 1.803 0 0 1 .56-1.333 1.82 1.82 0 0 1 .622-.391 2.1 2.1 0 0 1 .8-.151h3.618v5.973h-1.644v-2.107h-.773l-1.636 2.107h-2.009l1.893-2.24zm2.516-2.543h-1.307c-.382 0-.64.071-.773.204-.142.133-.204.311-.204.533 0 .231.062.418.196.551.142.142.4.204.782.204h1.307v-1.493zM139.28 18.791c-.267 0-.524-.027-.764-.089a1.614 1.614 0 0 1-.631-.276 1.594 1.594 0 0 1-.427-.516 1.84 1.84 0 0 1-.151-.773c0-.338.062-.613.169-.836a1.44 1.44 0 0 1 .453-.516c.196-.142.409-.24.649-.311.249-.071.498-.124.756-.169.267-.053.524-.089.764-.116.249-.027.462-.071.649-.116.187-.053.329-.124.436-.222s.16-.24.16-.427c0-.213-.044-.391-.124-.516a.785.785 0 0 0-.311-.302 1.257 1.257 0 0 0-.427-.142 2.664 2.664 0 0 0-.462-.036c-.418 0-.764.08-1.04.24-.276.151-.427.453-.453.889h-.978c.018-.373.089-.684.231-.933a1.67 1.67 0 0 1 .551-.613c.231-.16.498-.276.782-.347.302-.071.622-.107.96-.107.267 0 .533.018.8.053s.516.116.729.24c.213.116.391.284.524.498s.196.498.196.844v3.076c0 .231.009.4.036.507.036.107.124.16.276.16.071 0 .169-.018.302-.062v.764c-.169.098-.409.151-.702.151-.258 0-.462-.071-.613-.204-.142-.142-.222-.382-.222-.702-.267.32-.587.56-.951.702a3.347 3.347 0 0 1-1.164.204zm.222-.853c.32 0 .604-.044.836-.124.231-.089.418-.204.569-.338.142-.142.258-.284.32-.436a1.12 1.12 0 0 0 .107-.453v-1.004c-.124.098-.284.169-.489.204s-.409.071-.631.107c-.213.027-.436.062-.658.089s-.427.089-.604.16c-.178.08-.32.187-.436.338-.107.142-.16.329-.16.578 0 .16.036.302.089.418.071.107.151.196.258.267s.231.116.373.151.267.044.427.044zm4.329-5.245h4.88v5.973h-.978v-5.111h-2.916v5.111h-.987v-5.973zm7.805.863h-2.133v-.862h5.253v.862h-2.133v5.111h-.978v-5.111zm6.444 5.235c-.48 0-.898-.08-1.262-.231-.356-.151-.649-.373-.889-.649s-.418-.604-.542-.996a4.363 4.363 0 0 1-.169-1.262c0-.444.071-.862.204-1.236.142-.382.329-.72.578-.996.258-.276.551-.489.889-.649a2.821 2.821 0 0 1 1.129-.231c.533 0 .969.116 1.316.338.356.213.631.489.844.836.213.338.364.711.436 1.111.089.4.116.782.107 1.147h-4.471c-.009.258.027.516.089.747a1.62 1.62 0 0 0 .925 1.049c.24.107.524.16.844.16.418 0 .756-.098 1.013-.284.267-.196.444-.489.533-.88h.969c-.133.676-.418 1.182-.871 1.529-.427.338-.996.498-1.671.498zm1.609-3.68c-.018-.231-.071-.453-.16-.658s-.204-.382-.356-.533a1.408 1.408 0 0 0-.533-.356 1.628 1.628 0 0 0-.667-.142 1.58 1.58 0 0 0-.693.142 1.649 1.649 0 0 0-.524.356c-.142.151-.258.338-.347.542s-.133.418-.151.649h3.431zm2.053-2.418h.978v2.853l2.738-2.853h1.307l-2.649 2.587 2.96 3.387h-1.262l-2.498-2.844-.604.587v2.258h-.978v-5.973zm7.734 6.098c-.267 0-.524-.027-.764-.089a1.614 1.614 0 0 1-.631-.276 1.594 1.594 0 0 1-.427-.516 1.84 1.84 0 0 1-.151-.773c0-.338.062-.613.178-.836a1.44 1.44 0 0 1 .453-.516c.196-.142.409-.24.649-.311.249-.071.498-.124.756-.169.267-.053.524-.089.764-.116.249-.027.462-.071.649-.116.187-.053.329-.124.436-.222s.16-.24.16-.427c0-.213-.044-.391-.124-.516a.785.785 0 0 0-.311-.302 1.257 1.257 0 0 0-.427-.142 2.664 2.664 0 0 0-.462-.036c-.418 0-.764.08-1.04.24-.276.151-.427.453-.453.889h-.978c.018-.373.089-.684.231-.933a1.67 1.67 0 0 1 .551-.613 2.31 2.31 0 0 1 .782-.347c.302-.071.622-.107.96-.107.267 0 .533.018.8.053s.516.116.729.24c.213.116.391.284.516.498.133.213.196.498.196.844v3.076c0 .231.009.4.036.507s.124.16.276.16c.071 0 .169-.018.302-.062v.764c-.169.098-.409.151-.702.151-.258 0-.462-.071-.613-.204-.142-.142-.222-.382-.222-.702-.267.32-.587.56-.951.702a3.314 3.314 0 0 1-1.164.204zm.222-.853c.32 0 .604-.044.836-.124.231-.089.418-.204.569-.338.142-.142.258-.284.32-.436a1.12 1.12 0 0 0 .107-.453v-1.004c-.124.098-.284.169-.489.204s-.409.071-.64.107c-.213.027-.436.062-.658.089s-.427.089-.604.16c-.178.08-.32.187-.436.338-.107.142-.16.329-.16.578 0 .16.027.302.089.418.071.107.151.196.258.267s.231.116.373.151c.133.027.284.044.436.044zM125.333 5.333h.889v21.333h-.889V5.333z" style="fill:var(--color1, #fff)"/></symbol><symbol id="icon-logo_Orion" viewBox="0 0 117 32"><path d="M60.322 16.029h5.422v14.723h-5.422V16.029zM46.366 26.944h-3.701l.018 3.83h-5.422V16.047h5.422c7.361 0 7.343.013 7.343.013h.152c3.669 0 6.643 2.443 6.643 5.457 0 2.345-1.873 4.32-4.432 5.087l4.628 4.155-7.602.004-3.05-3.821zm-3.696-3.897h6.67c.91-.094 1.61-.704 1.61-1.449s-.664-1.387-1.565-1.48H42.67v2.929zM110.143 16.069h5.426v14.723h-5.426l-9.122-7.959v7.959h-5.422V16.069h5.422l9.122 7.856zM75.365 23.448c0 1.596 2.336 2.894 5.217 2.898 2.88 0 5.217-1.302 5.217-2.898s-2.332-2.894-5.217-2.894c-2.88 0-5.217 1.297-5.217 2.894zm-6.3 0c0-4.307 5.159-7.803 11.517-7.803 6.363 0 11.517 3.491 11.517 7.803 0 4.307-5.159 7.803-11.517 7.803s-11.517-3.496-11.517-7.803z"/><path d="M8.806 20.929c0 2.131 3.598 3.861 8.043 3.861 4.441 0 8.039-1.73 8.039-3.861s-3.598-3.861-8.039-3.861c-4.445 0-8.043 1.73-8.043 3.861zM.615 18.397c1.806-4.53 7.174-7.843 10.826-9.417 7.883-3.406 16.176-5.408 24.46-6.808C44.809.669 49.616.487 58.435.179c10.893-.375 17.072-.218 27.929.901 11.236 1.155 20.403 3.255 29.262 5.894l.976 2.912c-10.014-2.247-17.848-3.478-27.608-4.249-10.487-.825-15.94-.798-25.936-.321-16.381.785-28.375 3.594-37.181 6.857 4.673 1.922 7.816 5.275 7.816 9.1 0 5.921-7.544 10.723-16.845 10.723C7.543 32-.001 27.198-.001 21.277c0-.999.214-1.962.615-2.88z"/></symbol><symbol id="icon-logo-tabletki"><path fill="#fff" d="M58.068 11.739h-4.352V9.171h11.852v2.568h-4.352v11.034h-3.148V11.739zm18.648 8.125h-6.318l-1.205 2.92h-3.227l6.068-13.602h3.114l6.091 13.602h-3.307l-1.216-2.92zm-.989-2.398-2.159-5.205-2.159 5.205h4.318zm19.898-.523c-.443-.58-1.045-1-1.83-1.239a3.206 3.206 0 0 0 1.318-1.227c.33-.523.489-1.102.489-1.773 0-1.091-.443-1.955-1.341-2.58-.886-.636-2.148-.955-3.807-.955h-6.648v13.602h7.034c1.773 0 3.125-.318 4.045-.955.932-.648 1.398-1.568 1.398-2.761 0-.841-.216-1.545-.659-2.114zm-8.693-2.193v-3.205h3.125c.773 0 1.364.136 1.773.409.398.261.602.659.602 1.182 0 .534-.205.932-.602 1.205s-.989.409-1.773.409h-3.125zm5.545 5.239c-.42.273-1.034.409-1.864.409h-3.682v-3.352h3.67c1.67 0 2.511.568 2.511 1.693 0 .557-.205.989-.636 1.25zM99.841 9.17h3.148v11.034h6.83v2.568h-9.977V9.17zm23.443 13.603V20.25h-7.409v-3.148h6.318v-2.443h-6.318v-2.955h7.159V9.17H112.75v13.602h10.534zm6.489-11.034h-4.352V9.171h11.864v2.568h-4.352v11.034h-3.148V11.739zm13.5 7.591 1.83-1.909 4.352 5.341h3.67l-5.966-7.545 5.636-6.068h-3.5l-6.023 6.352v-6.33h-3.125v13.602h3.125V19.33zm12.432-10.16h3.148v13.602h-3.148V9.17zm7.136 13.216c.364.364.807.545 1.341.545s.977-.182 1.341-.545c.364-.364.545-.818.545-1.364 0-.557-.182-1-.545-1.341-.364-.352-.807-.523-1.341-.523s-.977.17-1.341.523c-.364.341-.545.784-.545 1.341 0 .545.182 1 .545 1.364zm12.579.625c-1.943 0-3.455-.534-4.545-1.614-1.08-1.08-1.614-2.614-1.614-4.602V9.181h3.148v7.5c0 2.432 1.011 3.659 3.034 3.659.989 0 1.739-.295 2.261-.875.523-.591.773-1.523.773-2.784v-7.5h3.114v7.614c0 2-.545 3.534-1.636 4.602-1.08 1.068-2.591 1.614-4.534 1.614zm12.807-3.147h6.318l1.205 2.92h3.307l-6.091-13.602h-3.114l-6.068 13.602h3.227l1.216-2.92zm3.171-7.603 2.159 5.205h-4.318l2.159-5.205z" style="fill:var(--color1, #fff)"/><path fill="#3b9c25" d="M15.511 31.841c8.568 0 15.511-6.943 15.511-15.5 0-8.568-6.943-15.5-15.511-15.5C6.943.83 0 7.773 0 16.341c0 8.557 6.943 15.5 15.511 15.5z" style="fill:var(--color53, #3b9c25)"/><path fill="#fff" d="M15.784 30.398c8.352 0 15.114-6.761 15.114-15.114C30.898 6.943 24.125.17 15.784.17 7.432.17.67 6.931.67 15.284c-.011 8.352 6.761 15.114 15.114 15.114z" style="fill:var(--color1, #fff)"/><path fill="#3b9c25" d="M36.284 32c8.352 0 15.114-6.761 15.114-15.114 0-8.341-6.773-15.114-15.114-15.114-8.352 0-15.114 6.761-15.114 15.114C21.17 25.227 27.931 32 36.284 32z" style="fill:var(--color53, #3b9c25)"/><path fill="#fff" d="M36.284 31.193c8.352 0 15.114-6.761 15.114-15.114 0-8.341-6.773-15.114-15.114-15.114-8.352 0-15.114 6.761-15.114 15.114 0 8.341 6.761 15.114 15.114 15.114z" style="fill:var(--color1, #fff)"/></symbol><symbol id="icon-logotype_apteka24"><path fill="#8bf" d="M22.822 22.822v2.357a6.822 6.822 0 1 1-13.644 0V12.652a3.473 3.473 0 0 1 3.473-3.473h12.527a6.822 6.822 0 0 1 0 13.644h-2.357z" style="fill:var(--color54, #8bf)"/><path fill="#f36" d="M9.178 9.178V6.821a6.822 6.822 0 1 1 13.644 0v12.527a3.473 3.473 0 0 1-3.473 3.473H6.822a6.822 6.822 0 0 1 0-13.644h2.357z" style="fill:var(--color55, #f36)"/><path fill="#d21746" d="M9.178 22.822V12.651a3.473 3.473 0 0 1 3.473-3.473h10.171v10.171a3.473 3.473 0 0 1-3.473 3.473H9.178z" style="fill:var(--color56, #d21746)"/><path fill="#394556" d="M99.969 4.776a.63.63 0 0 0-.633.627v16.523a.63.63 0 0 0 .633.627h1.899a.63.63 0 0 0 .633-.627v-1.897a.028.028 0 0 0 .009-.01l2.816-3.022 3.635 5.282a.635.635 0 0 0 .523.274h2.299c.509 0 .81-.564.523-.981l-4.776-6.941 4.304-4.62c.375-.402.087-1.053-.466-1.053h-2.585a.634.634 0 0 0-.465.202l-5.817 6.243v-10a.63.63 0 0 0-.633-.627h-1.899zM42.768 15.25c0-3.466 2.836-6.275 6.333-6.275a6.35 6.35 0 0 1 4.222 1.597v-.97a.63.63 0 0 1 .633-.627h1.901a.63.63 0 0 1 .632.627v12.341a.63.63 0 0 1-.633.627h-1.901a.631.631 0 0 1-.633-.627v-.97A6.344 6.344 0 0 1 49.1 22.57c-3.497 0-6.333-2.808-6.333-6.275v-1.046zm6.861-3.138c-2.04 0-3.694 1.638-3.694 3.66s1.654 3.66 3.694 3.66 3.694-1.638 3.694-3.66c0-2.022-1.654-3.66-3.694-3.66zM113.057 15.25c0-3.465 2.836-6.275 6.333-6.275 1.622 0 3.101.604 4.222 1.598v-.97a.63.63 0 0 1 .633-.627h1.899a.63.63 0 0 1 .633.627v12.34a.63.63 0 0 1-.633.627h-1.899a.63.63 0 0 1-.633-.627v-.97a6.342 6.342 0 0 1-4.222 1.598c-3.497 0-6.333-2.809-6.333-6.275V15.25zm6.861-3.138c-2.04 0-3.694 1.639-3.694 3.66s1.654 3.66 3.694 3.66 3.694-1.639 3.694-3.66-1.654-3.66-3.694-3.66zM181.102 15.25c0-3.465 2.835-6.275 6.332-6.275 1.623 0 3.102.604 4.222 1.598v-.97a.63.63 0 0 1 .633-.627h1.9a.63.63 0 0 1 .633.627v12.34a.63.63 0 0 1-.633.627h-1.9a.63.63 0 0 1-.633-.627v-.97a6.34 6.34 0 0 1-4.222 1.598c-3.497 0-6.332-2.809-6.332-6.275V15.25zm6.86-3.138c-2.04 0-3.694 1.639-3.694 3.66s1.654 3.66 3.694 3.66 3.694-1.639 3.694-3.66-1.654-3.66-3.694-3.66zM160.145 20.478c0-1.155.945-2.091 2.111-2.091s2.111.936 2.111 2.091c0 1.155-.945 2.092-2.111 2.092s-2.111-.936-2.111-2.092zM62.147 9.586a.63.63 0 0 0-.633-.627h-1.901a.631.631 0 0 0-.633.627V26.11a.63.63 0 0 0 .633.627h1.901a.631.631 0 0 0 .633-.627v-5.153a6.344 6.344 0 0 0 4.222 1.597c3.497 0 6.333-2.808 6.333-6.275v-1.046c0-3.466-2.836-6.274-6.333-6.274a6.35 6.35 0 0 0-4.222 1.597v-.97zm3.694 2.51c2.04 0 3.694 1.639 3.694 3.66s-1.654 3.66-3.694 3.66-3.694-1.639-3.694-3.66 1.654-3.66 3.694-3.66zM75.701 17.847c0 2.599 2.127 4.706 4.75 4.706h1.532a.63.63 0 0 0 .633-.627v-1.882a.63.63 0 0 0-.633-.627h-1.532a1.576 1.576 0 0 1-1.583-1.569v-5.751h2.588a.63.63 0 0 0 .633-.627V9.588a.63.63 0 0 0-.633-.627h-2.588V5.405a.63.63 0 0 0-.633-.627h-1.9a.63.63 0 0 0-.633.627v3.556h-1.761a.293.293 0 0 0-.295.292v2.554c0 .162.132.292.295.292h1.761v5.751zM166.273 16.818V9.602a.63.63 0 0 1 .633-.627h1.9a.63.63 0 0 1 .633.627v6.693c0 1.732 1.417 3.137 3.166 3.137s3.167-1.405 3.167-3.137V9.602a.63.63 0 0 1 .632-.627h1.9a.63.63 0 0 1 .633.627v12.34a.63.63 0 0 1-.633.627h-1.9a.63.63 0 0 1-.632-.627v-.688a5.82 5.82 0 0 1-3.695 1.315c-3.206 0-5.805-2.576-5.805-5.752zM132.152 9.724c-.106.33-.378.619-.728.619h-1.9c-.349 0-.637-.283-.597-.627.78-6.517 13.686-6.791 13.686.405a5.328 5.328 0 0 1-3.251 4.894l-6.151 2.625c-.7.299-1.154.982-1.154 1.738 0 .031.024.056.056.056h9.866a.63.63 0 0 1 .633.627v1.882a.63.63 0 0 1-.633.627h-12.456a.63.63 0 0 1-.633-.627v-2.565a5.03 5.03 0 0 1 3.068-4.619l6.151-2.625a2.19 2.19 0 0 0 1.336-2.013c0-3.227-6.429-3.078-7.293-.397zM83.672 15.772c0-3.754 3.072-6.797 6.861-6.797s6.86 3.043 6.86 6.797c0 .368-.029.729-.086 1.082a.596.596 0 0 1-.599.487h-9.559c1.021 2.323 4.3 2.735 6.013 1.116.192-.182.466-.268.718-.185l1.883.622c.378.125.548.564.312.884a6.873 6.873 0 0 1-5.544 2.792c-3.789 0-6.861-3.043-6.861-6.797zm3.296-1.045h7.136c-.88-3.533-6.232-3.439-7.136 0zM153.085 4.776c-.576 0-1.123.25-1.496.684l-7.043 8.172a3.638 3.638 0 0 0-.879 2.37v2.787a.63.63 0 0 0 .633.627h8.339v2.51a.63.63 0 0 0 .632.627h1.9a.63.63 0 0 0 .633-.627v-2.51h2.006a.63.63 0 0 0 .633-.627v-1.882a.63.63 0 0 0-.633-.627h-2.006V5.404a.63.63 0 0 0-.633-.627l-2.087-.001zm-6.126 10.888 5.68-6.62v7.236h-5.806v-.277c0-.124.045-.244.126-.339z" style="fill:var(--color57, #394556)"/></symbol><symbol id="icon-logotype_apteka911"><path fill="#8e2422" d="M235.36 26.486h5.844V10.465l-5.157 3.3-2.131-3.163 9.42-6.945h3.025v22.828h5.638v4.469h-16.64v-4.469zm-44.005-15.127a7.088 7.088 0 0 0-.825-1.788 5.346 5.346 0 0 0-1.65-1.306c-.619-.206-1.375-.413-2.269-.413-1.306 0-2.407.344-3.094 1.169-.825.756-1.169 1.856-1.169 3.232-2.063 4.057 11.483 7.288 9.007-.894zm-14.233 1.1c0-12.377 19.734-12.308 19.734 1.238 0 3.025-.413 5.501-1.306 7.701-2.269 6.326-7.288 9.695-13.752 10.108l-1.169-4.125c6.395-.55 15.127-9.214 8.251-6.945-1.788.688-4.401.413-6.257-.138-2.063-.688-3.85-2.131-4.744-4.125-.481-1.031-.756-2.2-.756-3.713zm30.322 14.027h5.707V10.465l-5.019 3.3-2.2-3.163 9.351-6.945h3.094v22.828h5.638v4.469h-16.571v-4.469zm21.041-10.52c1.581 0 2.819 1.169 2.819 2.819 0 1.513-1.238 2.682-2.819 2.682s-2.75-1.169-2.75-2.682c0-1.65 1.169-2.819 2.75-2.819zm-26.197 0c1.581 0 2.819 1.169 2.819 2.819 0 1.513-1.238 2.682-2.819 2.682-1.513 0-2.75-1.169-2.75-2.682 0-1.65 1.238-2.819 2.75-2.819zM19.39 27.173H9.901l-1.375 4.469H0L10.176 4.551h9.214l10.176 27.091h-8.801l-1.375-4.469zm-1.719-5.913-3.025-9.695-2.888 9.695h5.913zM58.17 31.643h-8.389V11.222h-9.145v20.421h-8.457V4.552H58.17v27.091zm3.713-27.091h25.441v6.67h-8.595v20.421h-8.32V11.222h-8.526v-6.67zm29.222 0h22.415v5.776H99.493v4.332h12.995v5.501H99.493v5.363h14.439v6.119H91.104V4.552zm51.982 27.091h-9.42l-3.3-6.945c-.756-1.719-1.375-3.713-3.575-3.713v10.658h-8.389V4.552h8.389v10.383c7.426-.619-1.925-10.589 15.402-10.589v5.776c-1.169 0-2.613 0-3.575.756-.688.55-1.238 1.444-1.65 2.613-.481 1.238-.963 2.131-1.444 2.75-2.819 3.575.275.481 3.919 7.976l3.644 7.426zm19.664-4.47h-9.489l-1.306 4.469h-8.595l10.176-27.091h9.214l10.176 27.091h-8.732l-1.444-4.469zm-1.719-5.913-3.025-9.695-2.888 9.695h5.913z" style="fill:var(--color58, #8e2422)"/><path fill="#fff" d="M235.36 23.323h5.844V7.302l-5.157 3.3-2.131-3.094 9.42-7.082h3.025v22.897h5.638v4.469h-16.64v-4.469zM182.348 9.09c0 2.819 1.994 4.263 4.676 4.263 1.581 0 3.438-.481 4.538-1.719 0-.275.069-.55.069-.825 0-1.1.138-1.375-.275-2.613-.413-1.444-1.1-2.338-2.475-3.025-1.513-.756-4.194-.688-5.363.688-.825.756-1.169 1.856-1.169 3.232zm-4.607-3.301c1.031-2.407 2.475-3.85 4.882-4.744 1.238-.481 2.544-.688 4.057-.688 3.163 0 5.707.894 7.426 2.613 1.788 1.788 2.75 4.332 2.75 7.563 0 4.744-1.238 9.695-4.538 13.133-2.75 2.888-6.601 4.469-10.52 4.607l-1.169-4.057c2.75-.344 5.088-1.031 7.22-2.888 1.65-1.375 2.75-3.369 3.232-5.432-.619.688-1.375 1.1-2.2 1.375-1.856.55-4.401.481-6.257-.138-2.063-.688-3.782-2.131-4.744-4.125-1.031-2.131-1.031-5.088-.138-7.22zm29.703 17.534h5.707V7.302l-5.019 3.3-2.2-3.094 9.351-7.082h3.094v22.897h5.638v4.469h-16.571v-4.469zm21.041-10.589c1.581 0 2.819 1.306 2.819 2.819s-1.238 2.819-2.819 2.819-2.75-1.306-2.75-2.819 1.169-2.819 2.75-2.819zm-26.197 0c1.581 0 2.819 1.306 2.819 2.819s-1.238 2.819-2.819 2.819c-1.513 0-2.75-1.306-2.75-2.819s1.238-2.819 2.75-2.819zM19.39 24.01H9.901l-1.375 4.469H0L10.176 1.388h9.214l10.176 27.091h-8.801L19.39 24.01zm-1.719-5.844-3.025-9.832-2.888 9.832h5.913zM58.17 28.48h-8.389V8.059h-9.145V28.48h-8.457V1.389H58.17V28.48zm3.713-27.091h25.441v6.67h-8.595V28.48h-8.32V8.059h-8.526v-6.67zm29.222 0h22.415v5.776H99.493v4.332h12.995v5.501H99.493v5.363h14.439v6.119H91.104V1.389zm51.982 27.091h-9.42l-3.3-7.013c-.756-1.65-1.375-3.713-3.575-3.713V28.48h-8.389V1.389h8.389v10.383c.756 0 1.306-.275 1.719-.756.481-.55 1.031-1.856 1.925-4.194 1.1-2.819 1.856-4.469 5.019-5.226 1.444-.275 3.713-.413 6.738-.413V6.89h-.344c-2.682 0-4.057.894-4.882 3.438-.756 1.856-1.581 3.438-3.575 4.194 1.238.344 2.269 1.031 3.163 2.063.963.894 1.856 2.475 2.888 4.538l3.644 7.357zm19.664-4.47h-9.489l-1.306 4.469h-8.595l10.176-27.091h9.214l10.176 27.091h-8.732l-1.444-4.469zm-1.719-5.844-3.025-9.832-2.888 9.832h5.913z" style="fill:var(--color1, #fff)"/></symbol><symbol id="icon-text" viewBox="0 0 132 32"><path fill="#a7a9ac" d="M4.711 10.329c0 1.278-.183 2.457-.528 3.397-.378 1.019-.893 1.497-1.657 1.497-.651 0-1.132-.359-1.474-1.099-.299-.641-.491-1.577-.618-2.895C.331 10.21.285 8.911.285 7.192c0-2.098.136-3.675.379-4.794C1.016.761 1.61.001 2.55.001c.674 0 1.165.398 1.557 1.278.355.82.548 1.839.548 2.839h-.412c0-.74-.126-1.617-.378-2.298-.299-.8-.79-1.238-1.338-1.238-.561 0-1.039.518-1.338 1.458C.857 3.119.684 4.978.684 7.495c0 2.716.173 4.675.515 5.714.309.92.8 1.438 1.408 1.438s1.099-.561 1.385-1.62c.206-.78.319-1.819.319-2.696h.402zM8.237.359h.481l2.208 14.506h-.402l-.651-4.655H7.104l-.674 4.655h-.365L8.236.359zM7.172 9.648h2.63L8.474.776 7.173 9.648zM12.64 1.418l.126 2.576v10.87h-.388V.358h.402l2.63 13.726L18.03.358h.402v14.506h-.388V3.997l.126-2.576-2.586 13.447h-.355l-2.586-13.45zM21.014 13.885c-.445-1.139-.674-3.197-.674-6.295 0-2.958.229-4.954.664-6.152C21.382.462 21.884 0 22.618 0c.973 0 1.577.76 1.922 2.417.239 1.099.365 2.839.365 5.176 0 1.597-.046 2.796-.126 3.715-.136 1.238-.332 2.158-.641 2.796-.355.76-.857 1.119-1.521 1.119-.734.003-1.235-.418-1.604-1.338zm3.193-1.458c.206-1.039.299-2.656.299-4.834 0-2.019-.093-3.556-.276-4.575-.276-1.577-.847-2.437-1.614-2.437s-1.315.82-1.59 2.337c-.196.999-.286 2.576-.286 4.675 0 2.696.173 4.635.505 5.654.299.9.79 1.398 1.371 1.398.767 0 1.315-.76 1.59-2.218zM31.346.359v14.506h-.388V.94h-3.101v7.211c0 3.516-.093 6.853-1.282 6.853-.262 0-.388-.02-.458-.04v-.601c.046.02.286.06.355.06.73 0 .996-2.397.996-6.713V.359h3.878zM33.896 14.864h-.402V.358h.402v14.506zM36.366 14.864h-.388V.358h.388v8.131l3.26-8.131h.422l-2.311 5.774 2.503 8.732h-.422l-2.334-8.151-1.122 2.616v5.535zM43.963 13.168c-.252 1.318-.618 1.899-1.099 1.899-.239 0-.365-.02-.435-.06v-.598c.056.02.113.04.299.04.422 0 .711-.438.893-1.378l.206-1.019L41.413.365h.422l2.185 10.91L46.032.365h.435l-2.503 12.803zM47.681 14.864V.358h1.796c.618 0 1.076.259 1.418.8.379.598.561 1.438.561 2.576 0 1.537-.206 2.879-1.487 3.516 1.328.299 1.717 1.979 1.717 3.576 0 1.617-.252 2.696-.777 3.337-.379.458-.893.701-1.577.701h-1.65zM48.07.94v6.033h1.189c.528 0 .95-.179 1.248-.621.365-.481.561-1.378.561-2.557 0-1.079-.206-1.919-.608-2.377-.299-.299-.73-.481-1.268-.481H48.07zm0 13.347h1.338c.561 0 1.039-.239 1.338-.72.365-.578.548-1.557.548-2.756 0-2.178-.73-3.257-2.072-3.257h-1.155v6.733zM55.016.359h.481l2.208 14.506h-.402l-.651-4.655h-2.769l-.674 4.655h-.365L55.015.359zM53.95 9.648h2.63L55.252.776l-1.301 8.872zM59.488 14.864H59.1V.358h.388v6.435h3.523V.358h.388v14.506h-.388v-7.49h-3.523v7.49zM65.78 14.864h-.388V.358h.388v6.435h3.523V.358h.388v14.506h-.388v-7.49H65.78v7.49zM75.322 14.864h-.388V8.25h-1.385l-1.909 6.614h-.505l1.956-6.654c-1.202-.481-1.703-1.72-1.703-3.875 0-1.418.196-2.377.594-3.078.342-.598.833-.9 1.487-.9h1.853v14.506zm-.392-7.191V.94h-1.258c-1.235 0-1.899 1.199-1.899 3.357 0 1.199.196 2.138.561 2.676.342.478.847.697 1.497.697h1.099zM79.851 1.418l.126 2.576v10.87h-.388V.358h.398l2.63 13.726L85.237.358h.402v14.506h-.388V3.997l.126-2.576-2.583 13.447h-.355l-2.586-13.45zM88.227 13.885c-.445-1.139-.674-3.197-.674-6.295 0-2.958.229-4.954.664-6.152C88.596.459 89.097 0 89.831 0c.973 0 1.577.76 1.922 2.417.239 1.099.365 2.839.365 5.176 0 1.597-.046 2.796-.126 3.715-.136 1.238-.332 2.158-.641 2.796-.355.76-.857 1.119-1.521 1.119-.737.003-1.238-.418-1.604-1.338zm3.191-1.458c.206-1.039.299-2.656.299-4.834 0-2.019-.093-3.556-.276-4.575-.276-1.577-.847-2.437-1.614-2.437s-1.315.82-1.59 2.337c-.196.999-.286 2.576-.286 4.675 0 2.696.173 4.635.505 5.654.299.9.79 1.398 1.371 1.398.767 0 1.315-.76 1.59-2.218zM96.096 6.694l-2.321 8.171h-.435l2.527-8.732L93.523.359h.445l3.27 8.151V.359h.379V8.51l3.284-8.151h.435l-2.344 5.774 2.527 8.732h-.435l-2.321-8.171-1.145 2.676v5.495h-.379V9.37l-1.142-2.676zM106.392 14.864h-3.49V.358h3.43v.578h-3.041v6.036h2.769v.578h-2.769v6.733h3.101v.581zM110.649.359h3.536V.96h-3.144v6.013h1.394c1.418 0 2.151 1.318 2.151 3.915 0 1.418-.193 2.377-.594 3.078-.342.598-.837.9-1.487.9h-1.853V.36zm.388 7.194v6.733h1.258c1.235 0 1.899-1.199 1.899-3.357 0-1.199-.196-2.138-.561-2.676-.342-.481-.847-.701-1.497-.701h-1.099zM118.544 13.168c-.252 1.318-.618 1.899-1.099 1.899-.239 0-.365-.02-.435-.06v-.598c.056.02.113.04.299.04.425 0 .711-.438.893-1.378l.206-1.019L115.994.365h.422l2.185 10.91 2.012-10.91h.435l-2.503 12.803zM123.68.94h-1.889V.359h4.164v.578h-1.889v13.925h-.388V.94zM131.732 14.864h-.388V3.077l.056-1.76-3.636 13.546h-.422V.357h.388v11.787l-.056 1.76L131.31.358h.425v14.506zM3.075 30.463V16.578h.345v13.885h2.729V16.578h.345v14.506H0V16.578h.345v13.885h2.729zM8.141 31.084h-.345V16.578h.345v8.131l2.892-8.131h.375l-2.052 5.774 2.225 8.732h-.375l-2.072-8.151-.996 2.616v5.535zM12.789 31.084h-.355V16.578h.355v14.506zM14.171 30.483c.893-3.118.893-5.014.893-8.911v-4.994h3.3v13.905h.528V32h-.325v-.916h-4.466V32h-.325v-1.517h.395zm3.848 0V17.176h-2.61v4.774c0 3.596-.222 6.295-.883 8.533h3.493zM23.905 16.578v14.506h-.345V17.156h-2.752v7.215c0 3.516-.08 6.853-1.136 6.853-.232 0-.345-.02-.405-.04v-.601c.04.02.252.06.315.06.651 0 .883-2.397.883-6.713v-7.351h3.44zM29.062 31.084h-.345V19.297l.05-1.76-3.227 13.546h-.375V16.577h.345v11.787l-.05 1.756 3.227-13.546h.375v14.509zM30.22 31.084V16.578h1.594c.548 0 .953.259 1.258.8.335.598.498 1.438.498 2.576 0 1.537-.183 2.879-1.318 3.516 1.179.299 1.524 1.979 1.524 3.576 0 1.617-.222 2.696-.691 3.337-.335.458-.794.701-1.401.701H30.22zm.346-13.929v6.033h1.056c.468 0 .843-.179 1.106-.621.325-.481.498-1.378.498-2.557 0-1.079-.183-1.919-.538-2.377-.266-.299-.651-.481-1.126-.481h-.996zm0 13.348h1.189c.498 0 .923-.239 1.189-.72.325-.578.488-1.557.488-2.756 0-2.178-.651-3.257-1.836-3.257H30.57v6.733zM38.667 31.084h-.345V19.297l.05-1.76-3.227 13.546h-.375V16.577h.345v11.787l-.05 1.756 3.227-13.546h.375v14.509zM40.168 17.637l.113 2.576v10.87h-.345V16.577h.355l2.334 13.726 2.324-13.726h.355v14.506h-.345v-10.87l.113-2.576-2.294 13.447h-.315l-2.294-13.447zM48.422 30.483c.893-3.118.893-5.014.893-8.911v-4.994h3.3v13.905h.528V32h-.325v-.916h-4.466V32h-.325v-1.517h.395zm3.848 0V17.176h-2.61v4.774c0 3.596-.222 6.295-.883 8.533h3.493zM58.156 16.578v14.506h-.345V17.156h-2.752v7.215c0 3.516-.08 6.853-1.136 6.853-.232 0-.345-.02-.405-.04v-.601c.04.02.252.06.315.06.651 0 .883-2.397.883-6.713v-7.351h3.44zM62.682 31.084h-.345V24.47h-1.228l-1.697 6.614h-.448L60.7 24.43c-1.066-.481-1.514-1.72-1.514-3.875 0-1.418.173-2.377.528-3.078.305-.598.74-.9 1.318-.9h1.644v14.506zm-.342-7.195v-6.733h-1.116c-1.096 0-1.683 1.199-1.683 3.357 0 1.199.173 2.138.498 2.676.305.478.75.701 1.331.701h.97zM65.345 31.084V16.578h1.594c.548 0 .953.259 1.258.8.335.598.498 1.438.498 2.576 0 1.537-.183 2.879-1.318 3.516 1.179.299 1.524 1.979 1.524 3.576 0 1.617-.222 2.696-.691 3.337-.335.458-.794.701-1.401.701h-1.464zm.342-13.929v6.033h1.056c.468 0 .843-.179 1.106-.621.325-.481.498-1.378.498-2.557 0-1.079-.183-1.919-.538-2.377-.266-.299-.651-.481-1.126-.481h-.996zm0 13.348h1.189c.498 0 .923-.239 1.189-.72.325-.578.488-1.557.488-2.756 0-2.178-.651-3.257-1.836-3.257h-1.026v6.733zM71.341 16.578h.425l1.959 14.506h-.355l-.578-4.655h-2.457l-.598 4.655h-.325l1.929-14.506zm-.943 9.29h2.334l-1.179-8.872-1.155 8.872zM77.576 30.463V16.578h.345v13.885h2.729V16.578h.345v14.506h-6.498V16.578h.345v13.885h2.733zM82.792 30.104c-.395-1.139-.598-3.197-.598-6.295 0-2.958.203-4.954.588-6.152.335-.979.78-1.438 1.431-1.438.863 0 1.401.76 1.707 2.417.213 1.099.325 2.839.325 5.176 0 1.597-.04 2.796-.113 3.715-.123 1.238-.296 2.158-.568 2.796-.315.76-.76 1.119-1.351 1.119-.647 0-1.096-.422-1.421-1.338zm2.832-1.461c.183-1.039.266-2.656.266-4.834 0-2.019-.083-3.556-.242-4.575-.242-1.577-.75-2.437-1.431-2.437s-1.169.82-1.411 2.337c-.173.999-.252 2.576-.252 4.675 0 2.696.153 4.635.448 5.654.262.9.701 1.398 1.219 1.398.674 0 1.162-.757 1.404-2.218zM87.776 17.195V31.08h-.345V16.577h3.075v.621h-2.729zM91.836 30.104c-.395-1.139-.598-3.197-.598-6.295 0-2.958.203-4.954.588-6.152.335-.979.78-1.438 1.431-1.438.863 0 1.401.76 1.707 2.417.213 1.099.325 2.839.325 5.176 0 1.597-.04 2.796-.113 3.715-.123 1.238-.296 2.158-.568 2.796-.315.76-.76 1.119-1.351 1.119-.647 0-1.096-.422-1.421-1.338zm2.833-1.461c.183-1.039.266-2.656.266-4.834 0-2.019-.083-3.556-.242-4.575-.242-1.577-.75-2.437-1.431-2.437s-1.169.82-1.411 2.337c-.173.999-.252 2.576-.252 4.675 0 2.696.153 4.635.448 5.654.262.9.701 1.398 1.219 1.398.674 0 1.162-.757 1.404-2.218zM99.36 23.749v-.558h.335c.953 0 1.501-1.278 1.501-3.317 0-1.839-.608-3.058-1.371-3.058-.803 0-1.318 1.238-1.371 2.656h-.335c0-1.697.79-3.257 1.746-3.257 1.086 0 1.673 1.418 1.673 3.775 0 1.657-.508 3.098-1.298 3.456.661.299.923.76 1.145 1.318.232.661.365 1.477.365 2.557 0 2.716-.711 4.117-1.909 4.117-1.228 0-1.919-1.497-1.919-4.057h.355c-.01 1.999.508 3.456 1.564 3.456 1.006 0 1.564-1.179 1.564-3.297 0-2.258-.618-3.815-1.756-3.795h-.289zM102.77 30.483c.893-3.118.893-5.014.893-8.911v-4.994h3.3v13.905h.528V32h-.325v-.916H102.7V32h-.325v-1.517h.395zm3.848 0V17.176h-2.61v4.774c0 3.596-.222 6.295-.883 8.533h3.493zM108.922 30.104c-.395-1.139-.598-3.197-.598-6.295 0-2.958.203-4.954.588-6.152.335-.979.78-1.438 1.431-1.438.863 0 1.401.76 1.707 2.417.213 1.099.325 2.839.325 5.176 0 1.597-.04 2.796-.113 3.715-.123 1.238-.296 2.158-.568 2.796-.315.76-.76 1.119-1.351 1.119-.651 0-1.096-.422-1.421-1.338zm2.832-1.461c.183-1.039.266-2.656.266-4.834 0-2.019-.083-3.556-.242-4.575-.242-1.577-.75-2.437-1.431-2.437s-1.169.82-1.411 2.337c-.173.999-.252 2.576-.252 4.675 0 2.696.153 4.635.448 5.654.262.9.701 1.398 1.219 1.398.674 0 1.162-.757 1.404-2.218zM113.926 31.084h-.345V16.578h1.524c.608 0 1.066.279 1.391.8.385.661.578 1.597.578 2.978 0 2.636-.631 3.915-1.909 3.915h-1.238v6.813zm0-13.929v6.534h.973c.578 0 1.036-.219 1.318-.641.335-.518.508-1.418.508-2.616 0-2.258-.621-3.277-1.727-3.277h-1.072zM118.232 30.104c-.395-1.139-.598-3.197-.598-6.295 0-2.958.203-4.954.588-6.152.335-.979.78-1.438 1.431-1.438.863 0 1.401.76 1.707 2.417.213 1.099.325 2.839.325 5.176 0 1.597-.04 2.796-.113 3.715-.123 1.238-.296 2.158-.568 2.796-.315.76-.76 1.119-1.351 1.119-.651 0-1.099-.422-1.421-1.338zm2.832-1.461c.183-1.039.266-2.656.266-4.834 0-2.019-.083-3.556-.242-4.575-.242-1.577-.75-2.437-1.431-2.437s-1.169.82-1.411 2.337c-.173.999-.252 2.576-.252 4.675 0 2.696.153 4.635.448 5.654.262.9.701 1.398 1.219 1.398.671 0 1.159-.757 1.404-2.218zM122.757 31.084V16.578h1.594c.548 0 .953.259 1.258.8.335.598.498 1.438.498 2.576 0 1.537-.183 2.879-1.318 3.516 1.179.299 1.524 1.979 1.524 3.576 0 1.617-.222 2.696-.691 3.337-.335.458-.794.701-1.401.701h-1.464zm.346-13.929v6.033h1.056c.468 0 .843-.179 1.106-.621.325-.481.498-1.378.498-2.557 0-1.079-.183-1.919-.538-2.377-.266-.299-.651-.481-1.126-.481h-.996zm0 13.348h1.189c.498 0 .923-.239 1.189-.72.325-.578.488-1.557.488-2.756 0-2.178-.651-3.257-1.836-3.257h-1.026v6.733zM127.153 20.293c.222-.199.296-.979.296-1.677v-.82h-.296v-1.218h.395V18.617c0 1.199-.173 1.72-.395 1.839v-.163zM131.762 31.084h-.345V24.47h-1.228l-1.697 6.614h-.445l1.736-6.654c-1.066-.481-1.514-1.72-1.514-3.875 0-1.418.173-2.377.528-3.078.305-.598.74-.9 1.318-.9h1.643v14.506zm-.346-7.195v-6.733H130.3c-1.096 0-1.683 1.199-1.683 3.357 0 1.199.173 2.138.498 2.676.305.478.75.701 1.331.701h.97z" style="fill:var(--color59, #a7a9ac)"/></symbol><symbol id="icon-facebook" viewBox="0 0 32 32"><path d="M21.328 5.312h2.923V.224A36.483 36.483 0 0 0 20.143 0h-.156.008c-4.213 0-7.099 2.65-7.099 7.52V12H8.25v5.688h4.646V32h5.699V17.69h4.459l.707-5.688h-5.168V8.08c0-1.643.443-2.768 2.734-2.768z"/></symbol><symbol id="icon-instagram" viewBox="0 0 32 32"><path d="M31.968 9.408c-.074-1.701-.349-2.869-.742-3.882a7.839 7.839 0 0 0-1.85-2.837l-.001-.001A7.906 7.906 0 0 0 26.597.861l-.054-.018C25.524.449 24.362.176 22.661.101 20.949.019 20.405 0 16.059 0c-4.344 0-4.888.019-6.595.094-1.699.074-2.869.349-3.88.742a7.847 7.847 0 0 0-2.839 1.85l-.001.001A7.9 7.9 0 0 0 .919 5.465l-.018.054C.506 6.538.232 7.7.157 9.401c-.082 1.712-.101 2.256-.101 6.602 0 4.344.019 4.888.094 6.595.075 1.701.35 2.869.744 3.882a7.915 7.915 0 0 0 1.849 2.837l.001.001c.8.813 1.77 1.443 2.832 1.843 1.019.395 2.182.67 3.882.744 1.707.075 2.251.094 6.595.094 4.346 0 4.89-.019 6.595-.094 1.701-.074 2.869-.349 3.882-.742a8.237 8.237 0 0 0 4.664-4.628l.019-.055c.394-1.019.669-2.182.744-3.882.075-1.707.093-2.251.093-6.595s-.006-4.888-.08-6.595zm-2.88 13.066c-.07 1.563-.333 2.406-.55 2.97a5.341 5.341 0 0 1-3.004 3.024l-.036.012c-.56.219-1.411.482-2.968.55-1.688.075-2.194.094-6.464.094-4.269 0-4.782-.019-6.464-.094-1.563-.069-2.406-.331-2.97-.55a4.953 4.953 0 0 1-1.836-1.192l-.001-.001a4.978 4.978 0 0 1-1.184-1.803L3.6 25.45c-.218-.563-.48-1.413-.549-2.97-.075-1.688-.094-2.195-.094-6.464 0-4.27.019-4.784.094-6.464.069-1.563.331-2.406.549-2.97a4.897 4.897 0 0 1 1.198-1.837l.002-.002a4.972 4.972 0 0 1 1.806-1.182l.034-.011c.56-.219 1.411-.48 2.968-.55 1.688-.074 2.195-.093 6.464-.093 4.275 0 4.782.019 6.464.093 1.563.069 2.406.331 2.97.55a4.91 4.91 0 0 1 1.837 1.194c.531.52.938 1.144 1.195 1.84.218.56.48 1.411.549 2.968.075 1.688.094 2.194.094 6.464 0 4.269-.019 4.768-.094 6.458z"/><path d="M16.059 7.782a8.223 8.223 0 0 0-8.219 8.221 8.223 8.223 0 0 0 16.442.008v-.009a8.223 8.223 0 0 0-8.221-8.221zm0 13.552a5.333 5.333 0 0 1 .001-10.666h.001a5.334 5.334 0 1 1 0 10.668zM26.525 7.458a1.92 1.92 0 0 1-3.84 0 1.92 1.92 0 0 1 3.84 0z"/></symbol></defs></svg>