<?xml version="1.0" encoding="utf-8"?>
<!-- Generator: Adobe Illustrator 26.3.1, SVG Export Plug-In . SVG Version: 6.00 Build 0)  -->
<svg version="1.1" xmlns="http://www.w3.org/2000/svg" xmlns:xlink="http://www.w3.org/1999/xlink" x="0px" y="0px"
	 viewBox="0 0 396.85 96.38" style="enable-background:new 0 0 396.85 96.38;" xml:space="preserve">
<style type="text/css">
	.st0{fill:#A7A9AC;}
</style>
<g id="Layer_1">
</g>
<g id="Слой_1">
	<g>
		<path class="st0" d="M14.19,31.11c0,3.85-0.55,7.4-1.59,10.23c-1.14,3.07-2.69,4.51-4.99,4.51c-1.96,0-3.41-1.08-4.44-3.31
			c-0.9-1.93-1.48-4.75-1.86-8.72C1,30.75,0.86,26.84,0.86,21.66c0-6.32,0.41-11.07,1.14-14.44C3.06,2.29,4.85,0,7.68,0
			c2.03,0,3.51,1.2,4.69,3.85c1.07,2.47,1.65,5.54,1.65,8.55h-1.24c0-2.23-0.38-4.87-1.14-6.92c-0.9-2.41-2.38-3.73-4.03-3.73
			c-1.69,0-3.13,1.56-4.03,4.39c-1,3.25-1.52,8.85-1.52,16.43c0,8.18,0.52,14.08,1.55,17.21c0.93,2.77,2.41,4.33,4.24,4.33
			s3.31-1.69,4.17-4.88c0.62-2.35,0.96-5.48,0.96-8.12H14.19z"/>
		<path class="st0" d="M24.81,1.08h1.45l6.65,43.69H31.7l-1.96-14.02h-8.34l-2.03,14.02h-1.1L24.81,1.08z M21.6,29.06h7.92l-4-26.72
			L21.6,29.06z"/>
		<path class="st0" d="M38.07,4.27l0.38,7.76v32.74h-1.17V1.08h1.21l7.92,41.34L54.3,1.08h1.21v43.69h-1.17V12.04l0.38-7.76
			l-7.79,40.5h-1.07L38.07,4.27z"/>
		<path class="st0" d="M63.29,41.82c-1.34-3.43-2.03-9.63-2.03-18.96c0-8.91,0.69-14.92,2-18.53C64.4,1.39,65.91,0,68.12,0
			c2.93,0,4.75,2.29,5.79,7.28c0.72,3.31,1.1,8.55,1.1,15.59c0,4.81-0.14,8.42-0.38,11.19c-0.41,3.73-1,6.5-1.93,8.42
			c-1.07,2.29-2.58,3.37-4.58,3.37C65.91,45.86,64.4,44.59,63.29,41.82z M72.91,37.43c0.62-3.13,0.9-8,0.9-14.56
			c0-6.08-0.28-10.71-0.83-13.78c-0.83-4.75-2.55-7.34-4.86-7.34c-2.31,0-3.96,2.47-4.79,7.04c-0.59,3.01-0.86,7.76-0.86,14.08
			c0,8.12,0.52,13.96,1.52,17.03c0.9,2.71,2.38,4.21,4.13,4.21C70.43,44.11,72.08,41.82,72.91,37.43z"/>
		<path class="st0" d="M94.41,1.08v43.69h-1.17V2.83H83.9v21.72c0,10.59-0.28,20.64-3.86,20.64c-0.79,0-1.17-0.06-1.38-0.12v-1.81
			c0.14,0.06,0.86,0.18,1.07,0.18c2.2,0,3-7.22,3-20.22V1.08H94.41z"/>
		<path class="st0" d="M102.09,44.77h-1.21V1.08h1.21V44.77z"/>
		<path class="st0" d="M109.53,44.77h-1.17V1.08h1.17v24.49l9.82-24.49h1.27l-6.96,17.39l7.54,26.3h-1.27l-7.03-24.55l-3.38,7.88
			V44.77z"/>
		<path class="st0" d="M132.41,39.66c-0.76,3.97-1.86,5.72-3.31,5.72c-0.72,0-1.1-0.06-1.31-0.18v-1.8c0.17,0.06,0.34,0.12,0.9,0.12
			c1.27,0,2.14-1.32,2.69-4.15l0.62-3.07l-7.27-35.2H126l6.58,32.86l6.06-32.86h1.31L132.41,39.66z"/>
		<path class="st0" d="M143.61,44.77V1.08h5.41c1.86,0,3.24,0.78,4.27,2.41c1.14,1.8,1.69,4.33,1.69,7.76
			c0,4.63-0.62,8.67-4.48,10.59c4,0.9,5.17,5.96,5.17,10.77c0,4.87-0.76,8.12-2.34,10.05c-1.14,1.38-2.69,2.11-4.75,2.11H143.61z
			 M144.78,2.83V21h3.58c1.59,0,2.86-0.54,3.76-1.87c1.1-1.45,1.69-4.15,1.69-7.7c0-3.25-0.62-5.78-1.83-7.16
			c-0.9-0.9-2.2-1.45-3.82-1.45H144.78z M144.78,43.03h4.03c1.69,0,3.13-0.72,4.03-2.17c1.1-1.74,1.65-4.69,1.65-8.3
			c0-6.56-2.2-9.81-6.24-9.81h-3.48V43.03z"/>
		<path class="st0" d="M165.7,1.08h1.45l6.65,43.69h-1.21l-1.96-14.02h-8.34l-2.03,14.02h-1.1L165.7,1.08z M162.49,29.06h7.92
			l-4-26.72L162.49,29.06z"/>
		<path class="st0" d="M179.17,44.77H178V1.08h1.17v19.38h10.61V1.08h1.17v43.69h-1.17V22.21h-10.61V44.77z"/>
		<path class="st0" d="M198.12,44.77h-1.17V1.08h1.17v19.38h10.61V1.08h1.17v43.69h-1.17V22.21h-10.61V44.77z"/>
		<path class="st0" d="M226.86,44.77h-1.17V24.85h-4.17l-5.75,19.92h-1.52l5.89-20.04c-3.62-1.45-5.13-5.18-5.13-11.67
			c0-4.27,0.59-7.16,1.79-9.27c1.03-1.8,2.51-2.71,4.48-2.71h5.58V44.77z M225.68,23.11V2.83h-3.79c-3.72,0-5.72,3.61-5.72,10.11
			c0,3.61,0.59,6.44,1.69,8.06c1.03,1.44,2.55,2.1,4.51,2.1H225.68z"/>
		<path class="st0" d="M240.5,4.27l0.38,7.76v32.74h-1.17V1.08h1.2l7.92,41.34l7.89-41.34h1.21v43.69h-1.17V12.04l0.38-7.76
			l-7.78,40.5h-1.07L240.5,4.27z"/>
		<path class="st0" d="M265.73,41.82c-1.34-3.43-2.03-9.63-2.03-18.96c0-8.91,0.69-14.92,2-18.53c1.14-2.95,2.65-4.33,4.86-4.33
			c2.93,0,4.75,2.29,5.79,7.28c0.72,3.31,1.1,8.55,1.1,15.59c0,4.81-0.14,8.42-0.38,11.19c-0.41,3.73-1,6.5-1.93,8.42
			c-1.07,2.29-2.58,3.37-4.58,3.37C268.34,45.86,266.83,44.59,265.73,41.82z M275.34,37.43c0.62-3.13,0.9-8,0.9-14.56
			c0-6.08-0.28-10.71-0.83-13.78c-0.83-4.75-2.55-7.34-4.86-7.34c-2.31,0-3.96,2.47-4.79,7.04c-0.59,3.01-0.86,7.76-0.86,14.08
			c0,8.12,0.52,13.96,1.52,17.03c0.9,2.71,2.38,4.21,4.13,4.21C272.86,44.11,274.51,41.82,275.34,37.43z"/>
		<path class="st0" d="M289.43,20.16l-6.99,24.61h-1.31l7.61-26.3l-7.06-17.39h1.34l9.85,24.55V1.08h1.14v24.55l9.89-24.55h1.31
			l-7.06,17.39l7.61,26.3h-1.31l-6.99-24.61l-3.45,8.06v16.55h-1.14V28.22L289.43,20.16z"/>
		<path class="st0" d="M320.44,44.77h-10.51V1.08h10.33v1.74h-9.16V21h8.34v1.74h-8.34v20.28h9.34V44.77z"/>
		<path class="st0" d="M333.26,1.08h10.65v1.81h-9.47V21h4.2c4.27,0,6.48,3.97,6.48,11.79c0,4.27-0.58,7.16-1.79,9.27
			c-1.03,1.8-2.52,2.71-4.48,2.71h-5.58V1.08z M334.43,22.75v20.28h3.79c3.72,0,5.72-3.61,5.72-10.11c0-3.61-0.59-6.44-1.69-8.06
			c-1.03-1.45-2.55-2.11-4.51-2.11H334.43z"/>
		<path class="st0" d="M357.04,39.66c-0.76,3.97-1.86,5.72-3.31,5.72c-0.72,0-1.1-0.06-1.31-0.18v-1.8c0.17,0.06,0.34,0.12,0.9,0.12
			c1.28,0,2.14-1.32,2.69-4.15l0.62-3.07l-7.27-35.2h1.27l6.58,32.86l6.06-32.86h1.31L357.04,39.66z"/>
		<path class="st0" d="M372.51,2.83h-5.69V1.08h12.54v1.74h-5.69v41.94h-1.17V2.83z"/>
		<path class="st0" d="M396.76,44.77h-1.17V9.27l0.17-5.3l-10.95,40.8h-1.27V1.08h1.17v35.5l-0.17,5.3l10.95-40.8h1.28V44.77z"/>
		<path class="st0" d="M9.26,91.75V49.93h1.04v41.82h8.22V49.93h1.04v43.69H0V49.93h1.04v41.82H9.26z"/>
		<path class="st0" d="M24.52,93.62h-1.04V49.93h1.04v24.49l8.71-24.49h1.13l-6.18,17.39l6.7,26.3h-1.13l-6.24-24.55l-3,7.88V93.62z
			"/>
		<path class="st0" d="M38.52,93.62h-1.07V49.93h1.07V93.62z"/>
		<path class="st0" d="M42.68,91.81c2.69-9.39,2.69-15.1,2.69-26.84V49.93h9.94v41.88h1.59v4.57h-0.98v-2.76H42.47v2.76h-0.98v-4.57
			H42.68z M54.27,91.81V51.73h-7.86v14.38c0,10.83-0.67,18.96-2.66,25.7H54.27z"/>
		<path class="st0" d="M72,49.93v43.69h-1.04V51.67h-8.29V73.4c0,10.59-0.24,20.64-3.42,20.64c-0.7,0-1.04-0.06-1.22-0.12v-1.81
			c0.12,0.06,0.76,0.18,0.95,0.18c1.96,0,2.66-7.22,2.66-20.22V49.93H72z"/>
		<path class="st0" d="M87.53,93.62h-1.04v-35.5l0.15-5.3l-9.72,40.8h-1.13V49.93h1.04v35.5l-0.15,5.29l9.72-40.8h1.13V93.62z"/>
		<path class="st0" d="M91.02,93.62V49.93h4.8c1.65,0,2.87,0.78,3.79,2.41c1.01,1.8,1.5,4.33,1.5,7.76c0,4.63-0.55,8.67-3.97,10.59
			c3.55,0.9,4.59,5.96,4.59,10.77c0,4.87-0.67,8.12-2.08,10.05c-1.01,1.38-2.39,2.11-4.22,2.11H91.02z M92.06,51.67v18.17h3.18
			c1.41,0,2.54-0.54,3.33-1.87c0.98-1.45,1.5-4.15,1.5-7.7c0-3.25-0.55-5.78-1.62-7.16c-0.8-0.9-1.96-1.45-3.39-1.45H92.06z
			 M92.06,91.87h3.58c1.5,0,2.78-0.72,3.58-2.17c0.98-1.74,1.47-4.69,1.47-8.3c0-6.56-1.96-9.81-5.53-9.81h-3.09V91.87z"/>
		<path class="st0" d="M116.46,93.62h-1.04v-35.5l0.15-5.3l-9.72,40.8h-1.13V49.93h1.04v35.5l-0.15,5.29l9.72-40.8h1.13V93.62z"/>
		<path class="st0" d="M120.98,53.12l0.34,7.76v32.74h-1.04V49.93h1.07l7.03,41.34l7-41.34h1.07v43.69h-1.04V60.88l0.34-7.76
			l-6.91,40.5h-0.95L120.98,53.12z"/>
		<path class="st0" d="M145.84,91.81c2.69-9.39,2.69-15.1,2.69-26.84V49.93h9.94v41.88h1.59v4.57h-0.98v-2.76h-13.45v2.76h-0.98
			v-4.57H145.84z M157.43,91.81V51.73h-7.86v14.38c0,10.83-0.67,18.96-2.66,25.7H157.43z"/>
		<path class="st0" d="M175.16,49.93v43.69h-1.04V51.67h-8.29V73.4c0,10.59-0.24,20.64-3.42,20.64c-0.7,0-1.04-0.06-1.22-0.12v-1.81
			c0.12,0.06,0.76,0.18,0.95,0.18c1.96,0,2.66-7.22,2.66-20.22V49.93H175.16z"/>
		<path class="st0" d="M188.79,93.62h-1.04V73.7h-3.7l-5.11,19.92h-1.35l5.23-20.04c-3.21-1.45-4.56-5.18-4.56-11.67
			c0-4.27,0.52-7.16,1.59-9.27c0.92-1.8,2.23-2.71,3.97-2.71h4.95V93.62z M187.76,71.95V51.67h-3.36c-3.3,0-5.07,3.61-5.07,10.11
			c0,3.61,0.52,6.44,1.5,8.06c0.92,1.44,2.26,2.11,4.01,2.11H187.76z"/>
		<path class="st0" d="M196.81,93.62V49.93h4.8c1.65,0,2.87,0.78,3.79,2.41c1.01,1.8,1.5,4.33,1.5,7.76c0,4.63-0.55,8.67-3.97,10.59
			c3.55,0.9,4.59,5.96,4.59,10.77c0,4.87-0.67,8.12-2.08,10.05c-1.01,1.38-2.39,2.11-4.22,2.11H196.81z M197.84,51.67v18.17h3.18
			c1.41,0,2.54-0.54,3.33-1.87c0.98-1.45,1.5-4.15,1.5-7.7c0-3.25-0.55-5.78-1.62-7.16c-0.8-0.9-1.96-1.45-3.39-1.45H197.84z
			 M197.84,91.87h3.58c1.5,0,2.78-0.72,3.58-2.17c0.98-1.74,1.47-4.69,1.47-8.3c0-6.56-1.96-9.81-5.53-9.81h-3.09V91.87z"/>
		<path class="st0" d="M214.87,49.93h1.28l5.9,43.69h-1.07l-1.74-14.02h-7.4l-1.8,14.02h-0.98L214.87,49.93z M212.03,77.91h7.03
			l-3.55-26.72L212.03,77.91z"/>
		<path class="st0" d="M233.65,91.75V49.93h1.04v41.82h8.22V49.93h1.04v43.69h-19.57V49.93h1.04v41.82H233.65z"/>
		<path class="st0" d="M249.36,90.67c-1.19-3.43-1.8-9.63-1.8-18.96c0-8.91,0.61-14.92,1.77-18.53c1.01-2.95,2.35-4.33,4.31-4.33
			c2.6,0,4.22,2.29,5.14,7.28c0.64,3.31,0.98,8.55,0.98,15.59c0,4.81-0.12,8.42-0.34,11.19c-0.37,3.73-0.89,6.5-1.71,8.42
			c-0.95,2.29-2.29,3.37-4.07,3.37C251.69,94.7,250.34,93.43,249.36,90.67z M257.89,86.27c0.55-3.13,0.8-8,0.8-14.56
			c0-6.08-0.25-10.71-0.73-13.78c-0.73-4.75-2.26-7.34-4.31-7.34c-2.05,0-3.52,2.47-4.25,7.04c-0.52,3.01-0.76,7.76-0.76,14.08
			c0,8.12,0.46,13.96,1.35,17.03c0.79,2.71,2.11,4.21,3.67,4.21C255.69,92.95,257.16,90.67,257.89,86.27z"/>
		<path class="st0" d="M264.37,51.79v41.82h-1.04V49.93h9.26v1.87H264.37z"/>
		<path class="st0" d="M276.6,90.67c-1.19-3.43-1.8-9.63-1.8-18.96c0-8.91,0.61-14.92,1.77-18.53c1.01-2.95,2.35-4.33,4.31-4.33
			c2.6,0,4.22,2.29,5.14,7.28c0.64,3.31,0.98,8.55,0.98,15.59c0,4.81-0.12,8.42-0.34,11.19c-0.37,3.73-0.89,6.5-1.71,8.42
			c-0.95,2.29-2.29,3.37-4.07,3.37C278.93,94.7,277.58,93.43,276.6,90.67z M285.13,86.27c0.55-3.13,0.8-8,0.8-14.56
			c0-6.08-0.25-10.71-0.73-13.78c-0.73-4.75-2.26-7.34-4.31-7.34c-2.05,0-3.52,2.47-4.25,7.04c-0.52,3.01-0.76,7.76-0.76,14.08
			c0,8.12,0.46,13.96,1.35,17.03c0.79,2.71,2.11,4.21,3.67,4.21C282.93,92.95,284.4,90.67,285.13,86.27z"/>
		<path class="st0" d="M299.26,71.53v-1.68h1.01c2.87,0,4.52-3.85,4.52-9.99c0-5.54-1.83-9.21-4.13-9.21c-2.42,0-3.97,3.73-4.13,8
			h-1.01c0-5.11,2.38-9.81,5.26-9.81c3.27,0,5.04,4.27,5.04,11.37c0,4.99-1.53,9.33-3.91,10.41c1.99,0.9,2.78,2.29,3.45,3.97
			c0.7,1.99,1.1,4.45,1.1,7.7c0,8.18-2.14,12.4-5.75,12.4c-3.7,0-5.78-4.51-5.78-12.22h1.07c-0.03,6.02,1.53,10.41,4.71,10.41
			c3.03,0,4.71-3.55,4.71-9.93c0-6.8-1.86-11.49-5.29-11.43H299.26z"/>
		<path class="st0" d="M309.53,91.81c2.69-9.39,2.69-15.1,2.69-26.84V49.93h9.94v41.88h1.59v4.57h-0.98v-2.76h-13.45v2.76h-0.98
			v-4.57H309.53z M321.12,91.81V51.73h-7.86v14.38c0,10.83-0.67,18.96-2.66,25.7H321.12z"/>
		<path class="st0" d="M328.06,90.67c-1.19-3.43-1.8-9.63-1.8-18.96c0-8.91,0.61-14.92,1.77-18.53c1.01-2.95,2.35-4.33,4.31-4.33
			c2.6,0,4.22,2.29,5.14,7.28c0.64,3.31,0.98,8.55,0.98,15.59c0,4.81-0.12,8.42-0.34,11.19c-0.37,3.73-0.89,6.5-1.71,8.42
			c-0.95,2.29-2.29,3.37-4.07,3.37C330.38,94.7,329.04,93.43,328.06,90.67z M336.59,86.27c0.55-3.13,0.8-8,0.8-14.56
			c0-6.08-0.25-10.71-0.73-13.78c-0.73-4.75-2.26-7.34-4.31-7.34s-3.52,2.47-4.25,7.04c-0.52,3.01-0.76,7.76-0.76,14.08
			c0,8.12,0.46,13.96,1.35,17.03c0.79,2.71,2.11,4.21,3.67,4.21C334.39,92.95,335.86,90.67,336.59,86.27z"/>
		<path class="st0" d="M343.13,93.62h-1.04V49.93h4.59c1.83,0,3.21,0.84,4.19,2.41c1.16,1.99,1.74,4.81,1.74,8.97
			c0,7.94-1.9,11.79-5.75,11.79h-3.73V93.62z M343.13,51.67v19.68h2.93c1.74,0,3.12-0.66,3.97-1.93c1.01-1.56,1.53-4.27,1.53-7.88
			c0-6.8-1.87-9.87-5.2-9.87H343.13z"/>
		<path class="st0" d="M356.1,90.67c-1.19-3.43-1.8-9.63-1.8-18.96c0-8.91,0.61-14.92,1.77-18.53c1.01-2.95,2.35-4.33,4.31-4.33
			c2.6,0,4.22,2.29,5.14,7.28c0.64,3.31,0.98,8.55,0.98,15.59c0,4.81-0.12,8.42-0.34,11.19c-0.37,3.73-0.89,6.5-1.71,8.42
			c-0.95,2.29-2.29,3.37-4.07,3.37C358.42,94.7,357.07,93.43,356.1,90.67z M364.63,86.27c0.55-3.13,0.8-8,0.8-14.56
			c0-6.08-0.25-10.71-0.73-13.78c-0.73-4.75-2.26-7.34-4.31-7.34s-3.52,2.47-4.25,7.04c-0.52,3.01-0.76,7.76-0.76,14.08
			c0,8.12,0.46,13.96,1.35,17.03c0.79,2.71,2.11,4.21,3.67,4.21C362.42,92.95,363.89,90.67,364.63,86.27z"/>
		<path class="st0" d="M369.73,93.62V49.93h4.8c1.65,0,2.87,0.78,3.79,2.41c1.01,1.8,1.5,4.33,1.5,7.76c0,4.63-0.55,8.67-3.97,10.59
			c3.55,0.9,4.59,5.96,4.59,10.77c0,4.87-0.67,8.12-2.08,10.05c-1.01,1.38-2.39,2.11-4.22,2.11H369.73z M370.77,51.67v18.17h3.18
			c1.41,0,2.54-0.54,3.33-1.87c0.98-1.45,1.5-4.15,1.5-7.7c0-3.25-0.55-5.78-1.62-7.16c-0.8-0.9-1.96-1.45-3.39-1.45H370.77z
			 M370.77,91.87h3.58c1.5,0,2.78-0.72,3.58-2.17c0.98-1.74,1.47-4.69,1.47-8.3c0-6.56-1.96-9.81-5.53-9.81h-3.09V91.87z"/>
		<path class="st0" d="M382.97,61.12c0.67-0.6,0.89-2.95,0.89-5.05V53.6h-0.89v-3.67h1.19v4.15c0,0.72,0,1.32,0,1.99
			c0,3.61-0.52,5.18-1.19,5.54V61.12z"/>
		<path class="st0" d="M396.85,93.62h-1.04V73.7h-3.7l-5.11,19.92h-1.34l5.23-20.04c-3.21-1.45-4.56-5.18-4.56-11.67
			c0-4.27,0.52-7.16,1.59-9.27c0.92-1.8,2.23-2.71,3.97-2.71h4.95V93.62z M395.81,71.95V51.67h-3.36c-3.3,0-5.07,3.61-5.07,10.11
			c0,3.61,0.52,6.44,1.5,8.06c0.92,1.44,2.26,2.11,4.01,2.11H395.81z"/>
	</g>
</g>
</svg>
